<svg width="61" height="61" viewBox="0 0 61 61" xmlns="http://www.w3.org/2000/svg">
    <g fill="none" fill-rule="evenodd">
        <path d="M0 0h61v61H0z"/>
        <g fill="#B8B8D2" fill-rule="nonzero">
            <path d="M38.983 26.726c.16-2.014-.834-3.197-1.986-4.567a45.47 45.47 0 0 1-.592-.714c-2.06-2.55-3.072-6.003-2.882-9.773.322-.05.567-.298.567-.595v-3.47c0-.335-.31-.607-.693-.607h-5.795c-.382 0-.692.272-.692.607v3.468c0 .299.246.545.568.597.19 3.768-.824 7.221-2.882 9.771-.202.25-.4.487-.591.714-1.153 1.37-2.147 2.554-1.988 4.569.086 1.094.34 2.21.774 3.412 2.224 6.162-.129 17.755-.234 18.257-1.22 4.394.99 5.443 1.246 5.548a.78.78 0 0 0 .293.057h12.807c.1 0 .2-.02.293-.057.256-.105 2.465-1.154 1.245-5.548-.104-.503-2.456-12.096-.232-18.257.434-1.203.687-2.32.774-3.412zm-6.606-11.144h-3.753c.22-1.249.305-2.555.244-3.9h3.265a17.589 17.589 0 0 0 .244 3.9zm-4.083-7.367h4.41v2.252h-4.41V8.215zm9.308 18.427c-.078.995-.31 2.02-.712 3.129-2.367 6.558.09 18.363.195 18.862a.647.647 0 0 0 .008.033c.805 2.886-.093 3.875-.405 4.119H24.313c-.312-.244-1.211-1.233-.406-4.119l.008-.033c.106-.5 2.563-12.305.195-18.862-.4-1.109-.633-2.132-.712-3.13-.124-1.568.61-2.441 1.72-3.763.196-.233.4-.475.607-.732 1.234-1.529 2.122-3.347 2.637-5.348h4.276c.516 2 1.404 3.82 2.638 5.348.208.257.411.5.608.734 1.11 1.321 1.842 2.194 1.718 3.762z"/>
            <path d="M35.147 26.028h-2.413c-.56-.492-1.353-.802-2.234-.802-.88 0-1.674.31-2.233.802h-2.414c-.382 0-.693.272-.693.608v2.225c0 .335.31.607.693.607h2.414c.559.493 1.352.802 2.233.802s1.674-.31 2.234-.802h2.413c.382 0 .692-.272.692-.607v-2.225c0-.336-.31-.608-.692-.608zm-8.602 2.225v-1.01h.954a2.1 2.1 0 0 0 0 1.01h-.954zm1.244-1.67-.01.017.01-.017zm-.153.285c-.01.023-.022.046-.03.069l.03-.07zm.143 2.03.01.018-.01-.018zm-.174-.337.03.07a3.359 3.359 0 0 1-.03-.07zm2.895.494c-.926 0-1.68-.587-1.68-1.307 0-.721.754-1.307 1.68-1.307.926 0 1.679.586 1.679 1.307 0 .72-.753 1.307-1.679 1.307zm2.725-.155a.285.285 0 0 0-.01.016c.004-.006.006-.012.01-.016zm-.009-2.317zm.152.285.03.069c-.009-.024-.02-.046-.03-.07zm.031 1.694-.03.069.03-.07zm1.055-.31H33.5a2.144 2.144 0 0 0 0-1.01h.953v1.01zM34.72 38.933a.572.572 0 0 0-.252-.58.769.769 0 0 0-.7-.083c-1.296.482-2.003.571-3.198.598H30.428c-.203-.004-.39-.005-.58-.005-.837 0-1.342 0-2.562-.57a.775.775 0 0 0-.732.044.575.575 0 0 0-.275.597c.01.05.98 5.017-.466 9.515-.078.24.02.498.248.65.133.088 1.387.867 4.4 1.014h.076c3.013-.147 4.267-.926 4.4-1.014.227-.15.326-.41.249-.65-1.444-4.49-.476-9.465-.467-9.515zm-4.22 9.963c-1.68-.085-2.705-.387-3.213-.586.96-3.35.737-6.773.525-8.481.81.248 1.378.248 2.052.248.164 0 .338 0 .527.004h.215c.96-.022 1.695-.085 2.59-.33-.214 1.68-.46 5.156.516 8.557-.512.202-1.536.504-3.212.588z"/>
        </g>
    </g>
</svg>
