<svg width="61" height="61" viewBox="0 0 61 61" xmlns="http://www.w3.org/2000/svg">
    <g fill="none" fill-rule="evenodd">
        <path d="M0 0h61v61H0z"/>
        <g fill="#B8B8D2" fill-rule="nonzero">
            <path d="M30.5 16.4h2.325a.78.78 0 0 0 .775-.783v-2.35c0-1.728-1.39-3.133-3.1-3.133h-2.325a.78.78 0 0 0-.775.783v2.35c0 1.728 1.391 3.133 3.1 3.133zm0-4.7c.855 0 1.55.703 1.55 1.567v1.567H30.5a1.56 1.56 0 0 1-1.55-1.567V11.7h1.55zM35.925 16.4h2.325c1.71 0 3.1-1.405 3.1-3.133v-2.35a.78.78 0 0 0-.775-.783H38.25c-1.709 0-3.1 1.405-3.1 3.133v2.35a.78.78 0 0 0 .775.783zm.775-3.133a1.56 1.56 0 0 1 1.55-1.567h1.55v1.567a1.56 1.56 0 0 1-1.55 1.567H36.7v-1.567zM21.998 38.334h-.007a.776.776 0 0 0-.772.783c0 .432.352.783.78.783.428 0 .774-.35.774-.783a.779.779 0 0 0-.775-.783z"/>
            <path d="M46 33.634c0-2.153 0-8.703-1.401-15.054a.777.777 0 0 0-.757-.613H23.23l-5.21-10.533a.772.772 0 0 0-1.04-.351.788.788 0 0 0-.347 1.051l4.864 9.833h-4.338a.777.777 0 0 0-.757.613C15 24.93 15 31.48 15 33.634c0 8.373 6.54 15.214 14.725 15.626v3.173h-6.2a.78.78 0 0 0-.775.784.78.78 0 0 0 .775.783h13.95a.78.78 0 0 0 .775-.783.78.78 0 0 0-.775-.784h-6.2V49.26C39.46 48.848 46 42.007 46 33.634zm-15.5 14.1c-7.692 0-13.95-6.326-13.95-14.1 0-1.31.002-4.288.33-7.834h5.87a.78.78 0 0 0 .775-.783.78.78 0 0 0-.775-.783h-5.709c.178-1.522.416-3.113.743-4.7h25.432c1.234 5.988 1.234 12.06 1.234 14.1 0 7.774-6.257 14.1-13.95 14.1z"/>
            <path d="M26.894 25.8H41.35a.78.78 0 0 0 .775-.783.78.78 0 0 0-.775-.783H26.196l-1.19-2.671a.773.773 0 0 0-1.024-.394.787.787 0 0 0-.389 1.036l6.975 15.666a.774.774 0 0 0 1.025.394.786.786 0 0 0 .389-1.036L26.894 25.8z"/>
            <path d="M34.398 30.5h-.007a.776.776 0 0 0-.772.784c0 .432.352.783.78.783.428 0 .774-.351.774-.783a.779.779 0 0 0-.775-.784zM37.498 35.2h-.007a.776.776 0 0 0-.772.783c0 .433.352.784.78.784.428 0 .774-.351.774-.784a.779.779 0 0 0-.775-.783zM29.748 43.034h-.007a.776.776 0 0 0-.772.783c0 .432.352.783.78.783.428 0 .774-.35.774-.783a.779.779 0 0 0-.775-.783zM41.37 34.417c0 .432.35.783.778.783.429 0 .775-.35.775-.783a.779.779 0 0 0-.775-.783h-.007a.776.776 0 0 0-.772.783z"/>
        </g>
    </g>
</svg>
