<svg width="61" height="61" viewBox="0 0 61 61" xmlns="http://www.w3.org/2000/svg">
    <g fill="none" fill-rule="evenodd">
        <path d="M0 0h61v61H0z"/>
        <g fill="#B8B8D2" fill-rule="nonzero">
            <path d="M40.604 12.216c-.001-1.724-1.38-3.126-3.073-3.126a2.66 2.66 0 0 0-.292.016 3.017 3.017 0 0 0-2.05-.811c-.316 0-.626.05-.926.15a3.023 3.023 0 0 0-2.196-.945 3 3 0 0 0-1.562.442 3 3 0 0 0-1.56-.442c-.84 0-1.625.345-2.197.946-.3-.1-.61-.151-.926-.151-.76 0-1.487.291-2.05.81-.1-.01-.196-.015-.292-.015-1.67 0-3.031 1.362-3.072 3.052-.07.412-.46 2.848-.402 6.446.057 3.567.588 8.992 2.795 14.575 1.343 3.397 2.076 6.475 2.241 9.41.147 2.597-.138 5.133-.895 7.98a2.365 2.365 0 0 0 .39 2.042 2.237 2.237 0 0 0 1.802.905h8.322c.712 0 1.369-.33 1.801-.905a2.365 2.365 0 0 0 .391-2.042c-.757-2.847-1.042-5.383-.896-7.98.166-2.935.9-6.013 2.242-9.41 2.207-5.583 2.738-11.008 2.795-14.575.055-3.423-.294-5.794-.39-6.372zM23.48 10.58c.113 0 .233.016.377.052a.725.725 0 0 0 .734-.248c.311-.38.76-.599 1.23-.599.269 0 .534.075.788.221.339.196.77.086.979-.25.299-.48.806-.766 1.356-.766.39 0 .771.152 1.072.428a.722.722 0 0 0 .98 0c.3-.276.68-.428 1.07-.428.551 0 1.058.287 1.357.767.21.335.64.445.98.25.253-.148.518-.222.786-.222.47 0 .92.218 1.23.6a.724.724 0 0 0 .735.247c.144-.036.264-.052.377-.052.624 0 1.165.364 1.432.894H34.41a.739.739 0 0 0-.732.745v4.77a.838.838 0 0 1-.83.844.838.838 0 0 1-.83-.845v-4.716c0-.585-.437-.798-.731-.798h-3.122a.739.739 0 0 0-.732.745v9.538a.838.838 0 0 1-.83.845.838.838 0 0 1-.829-.845v-9.538a.739.739 0 0 0-.732-.745h-2.993c.267-.53.808-.894 1.432-.894zm-1.713 2.384h2.542v8.048h-2.722c-.278-3.843.019-6.822.18-8.048zm15.074 19.642c-2.63 6.657-3.05 12.14-1.4 18.337a.865.865 0 0 1-.141.746.785.785 0 0 1-.639.32H26.34a.785.785 0 0 1-.639-.32.864.864 0 0 1-.14-.746c1.649-6.196 1.23-11.68-1.401-18.337-1.4-3.542-2.11-7.038-2.438-10.104h2.709c.306.923 1.164 1.59 2.173 1.59 1.008 0 1.866-.667 2.172-1.59h10.507c-.33 3.063-1.04 6.56-2.44 10.104zm2.575-11.594h-10.52v-8.048h1.658v4.024c0 1.288 1.029 2.335 2.293 2.335 1.265 0 2.293-1.047 2.293-2.335v-4.024h4.093c.163 1.225.462 4.203.183 8.048z"/>
            <path d="M32.847 48.83h-4.683a.739.739 0 0 0-.732.746c0 .411.327.745.732.745h4.683a.739.739 0 0 0 .732-.745.739.739 0 0 0-.732-.746zM32.6 38.38a.724.724 0 0 0 .874-.563c.413-1.863 1.011-3.773 1.828-5.841a34.15 34.15 0 0 0 .731-2.038.748.748 0 0 0-.466-.94.729.729 0 0 0-.924.474 32.597 32.597 0 0 1-.698 1.947c-.847 2.143-1.468 4.128-1.899 6.07-.089.401.159.8.553.89zM36.04 27.252c.055.013.11.02.163.02a.735.735 0 0 0 .713-.581 38.4 38.4 0 0 0 .325-1.622.744.744 0 0 0-.59-.866.733.733 0 0 0-.85.6 36.966 36.966 0 0 1-.312 1.558c-.09.401.157.8.551.891z"/>
        </g>
    </g>
</svg>
