<svg width="61" height="61" viewBox="0 0 61 61" xmlns="http://www.w3.org/2000/svg">
    <g fill="none" fill-rule="evenodd">
        <path d="M0 0h61v61H0z"/>
        <g transform="translate(9 8)" fill="#B8B8D2" fill-rule="nonzero">
            <path d="m42.978 42.435-3.241-23.116a.75.75 0 0 0-.37-.547l-4.716-2.688-.213-3.334c1.204-.027 2.176-1.026 2.176-2.25V9c0-.976-.622-1.801-1.484-2.112V4.5a4.53 4.53 0 0 0-1.303-3.188 4.43 4.43 0 0 0-6.3.006A4.525 4.525 0 0 0 26.229 4.5v2.388A2.245 2.245 0 0 0 24.746 9v1.5c0 1.224.972 2.223 2.176 2.25l-.212 3.334-4.716 2.688a.75.75 0 0 0-.37.55l-3.19 23.12c-.085.65.11 1.303.535 1.793.42.486 1.03.765 1.668.765h6.334c.34 0 .637-.234.72-.568l.416-1.682h4.935l.652 1.763a.742.742 0 0 0 .695.487h6.386c.645 0 1.256-.282 1.68-.774a2.267 2.267 0 0 0 .523-1.791zM28.576 2.378a2.962 2.962 0 0 1 4.202-.006c.382.39.646.864.776 1.378h-5.748a3.02 3.02 0 0 1 .77-1.372zm-.863 2.872h5.934v1.5h-5.934v-1.5zm13.621 37.993a.727.727 0 0 1-.56.257h-5.87l-.652-1.763a.74.74 0 0 0-.694-.487h-6.03a.743.743 0 0 0-.72.568l-.416 1.682h-5.755a.721.721 0 0 1-.553-.254.763.763 0 0 1-.18-.602l3.137-22.747 4.747-2.705a.753.753 0 0 0 .376-.606l.29-4.537a.753.753 0 0 0-.2-.562.738.738 0 0 0-.541-.237h-.742a.747.747 0 0 1-.742-.75V9c0-.413.333-.75.742-.75h7.418c.409 0 .741.337.741.75v1.5c0 .413-.332.75-.741.75h-.742c-.205 0-.4.085-.54.237a.76.76 0 0 0-.2.562l.289 4.537c.015.253.158.481.376.606l4.747 2.706 3.19 22.748a.745.745 0 0 1-.175.597zM16.362 31.517l-.52-6.825a.745.745 0 0 0-.739-.692H1.753a.745.745 0 0 0-.74.692L.019 37.736a6.826 6.826 0 0 0 1.764 5.103A6.663 6.663 0 0 0 6.677 45h3.502c1.85 0 3.635-.788 4.895-2.16a6.827 6.827 0 0 0 1.764-5.105l-.476-6.218zM2.44 25.5h11.978l.435 5.728-.056.044a8.368 8.368 0 0 1-.709.48c-.041.025-.082.047-.124.07a6.6 6.6 0 0 1-.733.371 5.771 5.771 0 0 1-4.347 0c-.579-.235-1.123-.566-1.698-.916-.258-.157-.514-.313-.776-.462a13.36 13.36 0 0 0-1.11-.557c-.122-.055-.248-.1-.371-.152a14.175 14.175 0 0 0-.783-.303c-.149-.052-.3-.096-.45-.143a13.125 13.125 0 0 0-1.213-.314c-.11-.023-.22-.055-.33-.074l.287-3.772zm11.546 16.32a5.114 5.114 0 0 1-3.807 1.68h-3.5a5.114 5.114 0 0 1-3.807-1.68 5.238 5.238 0 0 1-1.373-3.97l.537-7.061c.07.013.141.022.212.037a12.55 12.55 0 0 1 1.06.28c.129.04.258.08.385.125.233.081.463.172.69.267.11.046.22.087.327.136.332.15.658.31.974.49.247.141.492.29.737.438.3.182.605.368.921.543.316.175.643.339.987.479.412.169.84.295 1.274.383.021.005.042.012.063.016.194.038.392.064.588.086.034.003.068.011.103.015.193.018.387.024.582.027.038.001.076.006.115.006a7.24 7.24 0 0 0 2.739-.536c.078-.032.154-.073.231-.108.12-.054.239-.105.356-.167.084-.043.166-.094.249-.141.113-.064.226-.124.339-.194l.018-.01.374 4.889a5.243 5.243 0 0 1-1.374 3.97z"/>
            <path d="M35.431 33.035a2.237 2.237 0 0 0-2.11-1.535h-5.282a2.24 2.24 0 0 0-2.114 1.543l-.49 1.498a2.28 2.28 0 0 0 .308 2.028 2.19 2.19 0 0 0 1.8.931h6.275c.721 0 1.376-.34 1.799-.932a2.277 2.277 0 0 0 .307-2.025l-.493-1.508zm-1.019 2.655a.721.721 0 0 1-.594.31h-6.276a.751.751 0 0 1-.698-.988l.488-1.492c.105-.31.39-.52.707-.52h5.28c.319 0 .603.21.706.513l.49 1.502a.743.743 0 0 1-.103.675zM30.591 28.545c2.454 0 4.45-2.018 4.45-4.5s-1.996-4.5-4.45-4.5-4.45 2.018-4.45 4.5 1.995 4.5 4.45 4.5zm0-7.5c1.636 0 2.967 1.345 2.967 3 0 1.654-1.33 3-2.967 3-1.636 0-2.967-1.346-2.967-3 0-1.655 1.33-3 2.967-3z"/>
            <circle cx="5.275" cy="36" r="1"/>
            <circle cx="8.242" cy="40.5" r="1"/>
            <circle cx="12.877" cy="37.5" r="1"/>
        </g>
    </g>
</svg>
