<svg width="61" height="61" viewBox="0 0 61 61" xmlns="http://www.w3.org/2000/svg">
    <g fill="none" fill-rule="evenodd">
        <path d="M0 0h61v61H0z"/>
        <g fill="#B8B8D2" fill-rule="nonzero">
            <path d="M28.909 9.968h3.161v1.436h-3.161z"/>
            <path d="M25.034 7v7.371h10.91v-7.37h-10.91zm9.38 2.968h-1.63v1.436h1.63v1.532h-7.85v-1.532h1.53V9.968h-1.53V8.436h7.85v1.532zM22.689 45.96h1.529v1.436h-1.529zM20.242 45.96h1.631v1.436h-1.631zM32.783 45.96h1.529v1.436h-1.529zM35.231 45.96h1.529v1.436h-1.529zM37.474 45.96h1.529v1.436h-1.529z"/>
            <path d="M38.323 19.513c-1.929 0-3.438-1.433-3.829-2.94h.737v-1.436H25.85v1.436h.666c-.415 1.725-2.212 2.94-3.84 2.94-2.578 0-4.676 1.97-4.676 4.39V49.61c0 2.421 2.098 4.39 4.677 4.39h15.646C40.903 54 43 52.031 43 49.61V23.903c0-2.42-2.098-4.39-4.677-4.39zM19.53 42.993h3.874v-1.436h-3.874v-1.436h3.874v-1.436h-3.874v-1.531h3.874v-1.436h-3.874v-2.297h6.321v14.741h-6.32v-5.169zm21.941 5.17h-9.4V25.38h9.4v8.04h-4.71v5.17h4.71v1.531h-2.467v1.436h2.467v4.404h-1.549v1.436h1.55v.765zm0-13.307v2.298h-3.18v-2.298h3.18zm0-10.912H30.54v25.654h10.93v.012c0 1.63-1.411 2.955-3.147 2.955H22.676c-1.735 0-3.147-1.326-3.147-2.955v-.012h7.85V31.985h-7.85v-8.082c0-1.629 1.412-2.954 3.147-2.954 1.437 0 2.811-.567 3.87-1.597.81-.788 1.342-1.77 1.521-2.779h4.866c.179 1.008.711 1.991 1.521 2.78 1.058 1.029 2.433 1.596 3.87 1.596 1.735 0 3.147 1.325 3.147 2.954v.04z"/>
        </g>
    </g>
</svg>
