<svg width="61" height="61" viewBox="0 0 61 61" xmlns="http://www.w3.org/2000/svg">
    <g fill="none" fill-rule="evenodd">
        <path d="M0 0h61v61H0z"/>
        <g fill="#B8B8D2" fill-rule="nonzero">
            <path d="M29.043 43.666a.732.732 0 0 0-.729.734c0 .405.327.734.729.734.402 0 .728-.33.728-.734a.732.732 0 0 0-.728-.734zM31.957 45.721a.732.732 0 0 0-.728.734c0 .405.326.734.728.734.402 0 .729-.329.729-.734a.732.732 0 0 0-.729-.734zM31.957 35.934a.732.732 0 0 0-.728.734c0 .405.326.734.728.734.402 0 .729-.33.729-.734a.732.732 0 0 0-.729-.734z"/>
            <path d="M33.688 30.171c-.272.22-.408.329-.76.329-.351 0-.487-.11-.759-.329-.34-.274-.807-.65-1.67-.65-.862 0-1.328.376-1.669.65-.271.22-.407.329-.759.329-.351 0-.488-.11-.759-.329-.34-.274-.807-.65-1.67-.65a.731.731 0 0 0-.728.734v19.573a.736.736 0 0 0 .736.738l9.705-.002a.73.73 0 0 0 .68-.47.741.741 0 0 0 .052-.273l-.001-19.566a.731.731 0 0 0-.729-.734c-.863 0-1.329.376-1.67.65zM26.37 49.098l.001-17.805.03.025c.341.274.808.65 1.67.65.863 0 1.33-.376 1.67-.65.271-.219.407-.329.759-.329.351 0 .488.11.759.329.34.274.807.65 1.67.65.862 0 1.329-.376 1.669-.65l.03-.025.002 17.803-8.26.002z"/>
            <path d="m34.786 23.146-.861-10.718.733-.739a.738.738 0 0 0 .176-.751l-.971-2.936a.73.73 0 0 0-.692-.502H27.83a.729.729 0 0 0-.692.502l-.971 2.936a.738.738 0 0 0 .176.751l.733.739-.861 10.718A8.125 8.125 0 0 0 22 30.256V49.83c0 2.024 1.634 3.67 3.643 3.67h9.714c2.009 0 3.643-1.646 3.643-3.67V30.255a8.125 8.125 0 0 0-4.214-7.109zm2.757 26.684c0 1.214-.98 2.202-2.186 2.202h-9.714a2.196 2.196 0 0 1-2.186-2.202V30.255a6.643 6.643 0 0 1 3.761-5.976.734.734 0 0 0 .415-.605l.868-10.791h1.756a.731.731 0 0 0 .729-.734.731.731 0 0 0-.729-.734H28.13l-.44-.443.664-2.004h4.292l.663 2.004-.653.658a.737.737 0 0 0-.21.578l.92 11.467c.022.261.18.492.416.604 2.284 1.087 3.76 3.433 3.76 5.976V49.83z"/>
        </g>
    </g>
</svg>
