<svg width="61" height="61" viewBox="0 0 61 61" xmlns="http://www.w3.org/2000/svg">
    <g fill="none" fill-rule="evenodd">
        <path d="M0 0h61v61H0z"/>
        <g fill="#B8B8D2" fill-rule="nonzero">
            <path d="M34.78 40.924h-1.895c-.345-.865-1.27-1.501-2.326-1.501-1.12 0-2.089.626-2.444 1.501H26.22c-.442 0-.808.338-.808.746v6.94c0 .409.366.747.808.747h8.56c.452 0 .808-.338.808-.746V41.67c0-.408-.366-.746-.808-.746zm-.797 6.941h-6.945v-5.45h1.745c.441 0 .807-.337.807-.745 0-.418.442-.756.98-.756.441 0 .85.358.85.756 0 .408.367.746.808.746h1.755v5.45z"/>
            <path d="M38.494 35.833v-.04a32.31 32.31 0 0 0-2.348-8.393l-1.27-3.102c-.636-1.83-.98-3.838-.98-5.658v-3.341c.204-.1.398-.249.538-.428.237-.298.312-.656.216-.994l-.636-5.38a.739.739 0 0 0-.086-.258c-.13-.23-.355-.647-.84-.806a.81.81 0 0 0-.312-.15 9.597 9.597 0 0 0-4.63 0 .705.705 0 0 0-.312.16c-.453.15-.776.567-.797 1.084l-.765 5.4c0 .03-.01.06-.01.099 0 .597.366 1.114.893 1.332v3.302c0 1.929-.387 3.928-1.098 5.638l-1.281 3.132c-1.25 3.172-2.057 6.524-2.466 10.243v.02c-.29 3.271-.377 6.135-.259 8.75v6.344c0 .388.313.706.733.746l1.27.12c2.143.238 4.275.347 6.428.347 2.143 0 4.308-.119 6.515-.348l1.27-.119c.41-.04.733-.358.733-.746v-6.364c.01-3.62-.248-7.16-.506-10.59zM28.652 8.766a.505.505 0 0 0 .13-.09 7.855 7.855 0 0 1 3.402 0c.075.06.161.11.258.14l.603 5.15H27.91l.743-5.2zm-1.077 16.059c.775-1.87 1.206-4.067 1.206-6.165v-3.202h3.5v3.192c0 1.969.377 4.146 1.055 6.125 0 .01.01.03.01.04l.194.477-2.982 1.641-3.155-1.68.172-.428zm-1.26 3.112.528-1.282 3.747 1.998 3.553-1.949.507 1.233s0 .01.01.01c.043.09.076.18.119.279l-4.243 2.496-4.296-2.526c.01-.09.043-.179.075-.259zm10.531 24.214h-.01c-4.297.457-8.41.457-12.577 0h-.022l-.549-.05v-5.718c-.118-2.565-.032-5.37.248-8.581.323-2.924.904-5.609 1.755-8.154l4.824 2.844 4.802-2.834a30.374 30.374 0 0 1 1.561 6.294c.248 3.391.507 6.901.507 10.451v5.698h.01l-.549.05z"/>
        </g>
    </g>
</svg>
