<svg width="61" height="61" viewBox="0 0 61 61" xmlns="http://www.w3.org/2000/svg">
    <g fill="none" fill-rule="evenodd">
        <path d="M0 0h61v61H0z"/>
        <g fill="#B8B8D2" fill-rule="nonzero">
            <path d="M36.489 50.667c0-1.204-.827-2.182-1.88-2.182h-3.382V37.423l16.387-20.77c.15-.225.225-.601.075-.827-.15-.3-.376-.451-.677-.451h-7.14l4.434-6.246-1.203-.903-5.036 7.149H25.664c-.15-.753-.3-1.43-.6-2.032C23.633 10.107 20.402 8 16.944 8c-4.886 0-8.795 3.988-8.795 8.88 0 4.89 3.91 8.88 8.795 8.88v-1.506c-3.984 0-7.291-3.31-7.291-7.374s3.307-7.375 7.291-7.375c2.932 0 5.562 1.73 6.765 4.44.226.451.376.903.451 1.43H13.938c-.3 0-.526.075-.676.376-.15.3-.075.602.075.828l16.462 20.995v10.91h-3.383c-1.127 0-1.879 1.205-1.879 2.258v.753H8V53h34.577v-1.505h-6.013v-.828h-.075zM23.71 27.415l-1.203-1.505h15.786l-3.533 4.515h-5.036v1.505h3.908L30.4 35.993l-5.562-7.073h4.134v-1.505H23.71zM45.434 16.88l-5.939 7.525h-6.013l5.262-7.525h6.69zm-21.198 0H36.94l-5.262 7.525H21.38l-5.863-7.525h8.72zm1.73 33.862c0-.451.3-.752.375-.752h8.268c.076 0 .376.301.376.752v.753h-9.02v-.753zM43.917 51.624H53V53h-9.083z"/>
            <path d="M10.202 37.312h9.908v1.376h-9.908zM21.486 37.312h3.853v1.376h-3.853zM40.89 37.312h9.908v1.376H40.89zM35.661 37.312h3.853v1.376h-3.853zM13.229 43.917h12.936v1.376H13.229zM34.835 42.541h12.936v1.376H34.835z"/>
        </g>
    </g>
</svg>
