<svg width="61" height="61" viewBox="0 0 61 61" xmlns="http://www.w3.org/2000/svg">
    <g fill="none" fill-rule="evenodd">
        <path d="M0 0h61v61H0z"/>
        <g fill="#B8B8D2" fill-rule="nonzero">
            <path d="M29.108 27.367h-.01c-.443 0-.8.351-.8.784 0 .432.364.783.81.783.444 0 .805-.351.805-.783a.795.795 0 0 0-.805-.784z"/>
            <path d="M35.528 25.017a.795.795 0 0 0-.806-.783H24.91l-1.481-7.204a.801.801 0 0 0-.949-.614.784.784 0 0 0-.631.922l3.222 15.666a.801.801 0 0 0 .948.614.784.784 0 0 0 .632-.921l-1.419-6.896h9.49c.445 0 .806-.351.806-.784zM24.274 38.334h-.008c-.444 0-.801.35-.801.783 0 .432.364.783.81.783.444 0 .805-.35.805-.783a.795.795 0 0 0-.806-.783zM30.719 39.9h-.009a.79.79 0 0 0-.8.784c0 .432.363.783.809.783.444 0 .805-.351.805-.783a.795.795 0 0 0-.805-.784zM43.888 9.082c-.006-.005-.007-.012-.012-.016-.006-.006-.013-.007-.017-.012a7.333 7.333 0 0 0-5.109-2.053c-1.906 0-3.7.753-5.033 2.004-.03.022-.066.034-.094.06-.024.024-.034.055-.054.08a6.999 6.999 0 0 0-1.372 1.884c-.19.391-.02.859.383 1.045a.815.815 0 0 0 1.073-.372c.162-.333.368-.636.59-.926l1.66 1.613a.818.818 0 0 0 1.139 0 .769.769 0 0 0 0-1.107l-1.657-1.61a5.737 5.737 0 0 1 3.365-1.105c1.264 0 2.428.412 3.37 1.098l-1.661 1.617a.767.767 0 0 0 0 1.107c.157.153.363.23.57.23a.815.815 0 0 0 .569-.23l1.66-1.617a5.347 5.347 0 0 1 1.13 3.279 5.374 5.374 0 0 1-1.126 3.28l-1.664-1.619a.82.82 0 0 0-1.14 0 .767.767 0 0 0 0 1.108l1.658 1.612c-.579.422-1.24.753-1.976.934a.781.781 0 0 0-.582.952.802.802 0 0 0 .979.566 7.279 7.279 0 0 0 3.33-1.842c.002-.003.006-.004.01-.007l.007-.01C45.202 17.737 46 15.97 46 14.05c0-1.937-.808-3.693-2.112-4.969zM30.719 35.2h-.009a.79.79 0 0 0-.8.784c0 .432.363.783.809.783.444 0 .805-.35.805-.783a.795.795 0 0 0-.805-.784z"/>
            <path d="M39.556 31.284c0-3.592-.515-5.675-.969-7.513-.344-1.395-.642-2.6-.642-4.237 0-2.134 1.51-5.103 1.525-5.133a.765.765 0 0 0-.035-.762.812.812 0 0 0-.685-.372H22.462l-1.459-5.673a.805.805 0 0 0-.976-.57.781.781 0 0 0-.586.95l1.36 5.293h-2.995a.813.813 0 0 0-.686.372.765.765 0 0 0-.035.762c.016.03 1.526 2.993 1.526 5.133 0 1.636-.298 2.842-.642 4.237-.455 1.838-.969 3.92-.969 7.513 0 8.98 4.45 15.828 10.472 16.394v4.756h-6.444a.794.794 0 0 0-.805.783c0 .432.36.783.805.783h14.5c.445 0 .805-.35.805-.783a.795.795 0 0 0-.805-.783h-6.444v-4.756c6.022-.566 10.472-7.414 10.472-16.394zM28.278 46.167c-5.51 0-9.667-6.398-9.667-14.883 0-2.394.244-4.08.538-5.483h1.88c.444 0 .805-.351.805-.784a.795.795 0 0 0-.806-.783h-1.516l.023-.097c.354-1.43.687-2.78.687-4.603 0-1.616-.676-3.517-1.175-4.7H37.51c-.499 1.183-1.176 3.084-1.176 4.7 0 1.822.334 3.173.687 4.603.433 1.753.925 3.74.925 7.147 0 8.485-4.156 14.883-9.667 14.883z"/>
            <path d="M34.747 31.284a.795.795 0 0 0-.806-.783h-.009a.79.79 0 0 0-.8.783c0 .432.364.783.809.783.445 0 .806-.35.806-.783z"/>
        </g>
    </g>
</svg>
