<svg width="61" height="61" viewBox="0 0 61 61" xmlns="http://www.w3.org/2000/svg">
    <g fill="none" fill-rule="evenodd">
        <path d="M0 0h61v61H0z"/>
        <g fill="#B8B8D2" fill-rule="nonzero">
            <path d="M38.708 38.962c-.33-2.063-1.895-3.705-3.897-4.087-1.605-.306-3.156.255-4.311 1.516-1.155-1.26-2.706-1.821-4.311-1.516-2.002.382-3.568 2.024-3.897 4.087-.265 1.659-.03 5.96 7.838 10.065.117.061.244.09.37.09v-.002.003c.126 0 .253-.03.37-.091 7.868-4.105 8.102-8.406 7.838-10.065zm-8.208 8.57c-6.647-3.587-6.89-7.02-6.68-8.347.232-1.45 1.305-2.599 2.67-2.859 1.29-.246 2.51.374 3.349 1.698.062.1.15.186.26.25.366.211.841.1 1.063-.25.838-1.324 2.059-1.943 3.347-1.698 1.366.26 2.439 1.41 2.67 2.86.212 1.325-.032 4.759-6.679 8.346zM18.19 42.72a.765.765 0 0 1-.759-.6 12.063 12.063 0 0 1 .945-7.582.788.788 0 0 1 1.024-.368.727.727 0 0 1 .385.979 10.646 10.646 0 0 0-.835 6.69c.08.4-.193.789-.613.866-.05.01-.099.014-.148.014z"/>
            <path d="M38.326 26.097v-1.43c0-1.429-1.215-2.59-2.709-2.59H34.36v-2.694c.014-.008.03-.015.044-.024 1.97-1.255 3.146-3.354 3.146-5.615C37.55 10.026 34.387 7 30.5 7s-7.05 3.026-7.05 6.744c0 2.26 1.176 4.36 3.146 5.615.014.01.03.016.044.024v2.693h-1.257c-1.467 0-2.663 1.122-2.705 2.516-.003.024-.004 1.505-.004 1.505C17.312 28.86 14 34.142 14 39.992c0 5.83 3.341 11.165 8.72 13.92a.8.8 0 0 0 .364.088h14.832c.127 0 .252-.03.365-.087C43.659 51.157 47 45.823 47 39.993c0-5.851-3.312-11.133-8.674-13.896zm-13.33-12.353c0-2.903 2.47-5.264 5.504-5.264 3.035 0 5.503 2.361 5.503 5.264 0 1.693-.844 3.27-2.27 4.26h-6.466c-1.426-.991-2.27-2.568-2.27-4.26zm7.817 5.74v2.592h-4.626v-2.592h4.626zm-8.593 5.183c0-.613.522-1.112 1.163-1.112h10.234c.641 0 1.163.5 1.163 1.112v1.137H24.22v-1.137zm-.588 2.617h13.735a14.89 14.89 0 0 1 4.755 3.69H18.878a14.892 14.892 0 0 1 4.754-3.69zM37.72 52.52H23.28c-4.776-2.522-7.735-7.306-7.735-12.529 0-2.73.797-5.323 2.232-7.539h25.443a13.821 13.821 0 0 1 2.232 7.54c0 5.222-2.958 10.006-7.734 12.528z"/>
            <path d="M27.15 14.25c-.428 0-.774-.331-.774-.74 0-2.175 1.85-3.944 4.124-3.944.427 0 .773.33.773.74 0 .408-.346.739-.773.739-1.421 0-2.577 1.106-2.577 2.465 0 .409-.347.74-.774.74z"/>
        </g>
    </g>
</svg>
