<svg width="61" height="61" viewBox="0 0 61 61" xmlns="http://www.w3.org/2000/svg">
    <g fill="none" fill-rule="evenodd">
        <path d="M0 0h61v61H0z"/>
        <g transform="translate(13 7)" fill="#B8B8D2" fill-rule="nonzero">
            <path d="M31.1 15.114V5.656c.475-.431.78-1.048.78-1.74V2.35c0-1.296-1.05-2.35-2.34-2.35h-3.12a2.348 2.348 0 0 0-2.34 2.35v1.567c0 .691.306 1.308.78 1.739v9.458a5.489 5.489 0 0 0-3.899 5.253V44.65c0 1.296 1.05 2.35 2.34 2.35h9.36C33.95 47 35 45.946 35 44.65V20.367a5.487 5.487 0 0 0-3.9-5.253zM25.64 2.35c0-.432.35-.783.78-.783h3.12c.431 0 .78.351.78.783v1.567c0 .431-.349.783-.78.783h-3.12a.782.782 0 0 1-.78-.783V2.35zm.78 12.533V6.267h3.12v8.616h-3.12zm3.12 1.567c0 .864-.7 1.567-1.56 1.567-.86 0-1.56-.703-1.56-1.567h3.12zm3.9 28.2c0 .432-.35.783-.78.783h-9.359a.782.782 0 0 1-.78-.783v-7.833h1.756a3.868 3.868 0 0 0 3.75 2.89c1.77 0 3.296-1.222 3.75-2.89h1.663v7.833zm0-9.4h-2.316a.782.782 0 0 0-.778.722c-.093 1.216-1.113 2.169-2.32 2.169-1.22 0-2.217-.934-2.318-2.172a.78.78 0 0 0-.777-.719h-2.41v-7.833h2.41c.431 0 .78-.351.78-.784 0-.075-.009-.154-.023-.242 0-1.296 1.05-2.35 2.34-2.35 1.29 0 2.34 1.054 2.33 2.418l-.01.098a.782.782 0 0 0 .776.86h2.316v7.833zm0-9.4h-1.55c-.263-1.905-1.896-3.376-3.863-3.376s-3.599 1.47-3.862 3.376h-1.644v-5.483c0-1.616.979-3.004 2.372-3.602.159 1.578 1.475 2.818 3.088 2.818 1.612 0 2.928-1.24 3.087-2.818a3.921 3.921 0 0 1 2.372 3.602v5.483z"/>
            <circle cx="28.8" cy="32.092" r="1"/>
            <circle cx="26.421" cy="30.513" r="1"/>
            <circle cx="27.164" cy="32.092" r="1"/>
            <circle cx="27.981" cy="30.513" r="1"/>
            <circle cx="29.54" cy="30.513" r="1"/>
            <circle cx="27.981" cy="33.671" r="1"/>
            <path d="M28.8 28.414a.99.99 0 0 0 .003-.96.98.98 0 0 0-.826.483.988.988 0 0 0-.002.96.978.978 0 0 0 .825-.483zM16.414 20.294c-.275-1.333-.601-2.463-.972-3.36a.78.78 0 0 0-.72-.484H2.282c-.31 0-.435.184-.559.47-.582 1.332-1.04 2.946-1.04 4.065v.001c-.78 1.621-.679 3.286-.679 4.456 0 4.99 3.306 9.091 7.698 9.507v10.484h-2.34c-.43 0-.78.351-.78.784 0 .432.35.783.78.783h6.24c.431 0 .78-.35.78-.783a.781.781 0 0 0-.78-.784h-2.34V34.945c4.353-.462 7.768-4.532 7.768-9.471 0-1.345-.236-3.33-.616-5.18zM2.805 18.017h11.382c.164.461.321.989.466 1.566-.129.002-.253.02-.38.028-.124.008-.248.01-.37.026-.133.018-.262.049-.393.075-.121.023-.245.041-.365.072-.127.033-.248.079-.373.12-.118.038-.238.07-.353.116-.123.048-.24.11-.36.166-.108.05-.22.096-.326.153-.122.066-.236.145-.353.219-.096.06-.195.114-.288.18-.123.087-.235.186-.351.282-.079.065-.162.124-.238.193-.129.117-.246.246-.364.374-.054.058-.114.11-.166.17a6.405 6.405 0 0 0-.464.613 7.423 7.423 0 0 0-6.464-2.545c-.09.01-.178.03-.267.042-.176.026-.35.05-.524.09l-.053.009c.186-.725.39-1.387.604-1.95zm5.634 15.41c-3.878-.002-7.03-3.583-7.03-7.984 0-.958.154-2.353.41-3.725.04-.015.08-.032.122-.046a5.5 5.5 0 0 1 .565-.162c.07-.017.14-.034.21-.048.127-.025.255-.045.383-.061.06-.008.122-.02.183-.025.19-.018.379-.03.569-.03 2.102 0 4.007 1.086 5.096 2.904a.767.767 0 0 0 .132.163c.022.022.048.036.073.055.03.023.059.047.091.065.034.018.07.03.105.043.028.01.055.023.085.03.035.009.07.01.107.014.026.003.05.01.075.01.02 0 .043 0 .063-.002a.78.78 0 0 0 .662-.49c.091-.23.2-.448.321-.656.103-.175.22-.34.344-.499.019-.026.035-.054.055-.08a4.68 4.68 0 0 1 2.887-1.683l.094-.017c.162-.023.327-.03.494-.037.1-.003.202-.007.306-.003.051.002.106.011.158.015.292 1.566.475 3.203.475 4.298 0 4.385-3.156 7.951-7.035 7.951z"/>
            <circle cx="4.55" cy="25.034" r="1"/>
            <circle cx="7.67" cy="29.734" r="1"/>
            <circle cx="12.546" cy="26.6" r="1"/>
        </g>
    </g>
</svg>
