<svg width="61" height="61" viewBox="0 0 61 61" xmlns="http://www.w3.org/2000/svg">
    <g fill="none" fill-rule="evenodd">
        <path d="M0 0h61v61H0z"/>
        <g fill="#B8B8D2" fill-rule="nonzero">
            <path d="M43.997 50.318V22.823a3.45 3.45 0 0 0-1.579-2.898c-.978-.627-2.106-1.332-2.933-2.272l-.677-.705c-.752-.861-1.88-1.331-3.008-1.331V13.25c.865-.11 1.504-.848 1.504-1.786V8.802c0-1.019-.752-1.802-1.73-1.802H26.25c-.978 0-1.73.783-1.73 1.802v2.663c0 .938.64 1.675 1.504 1.786v2.366h-.3c-.978 0-1.956.391-2.708 1.096l-.827.784c-1.053.94-2.256 1.723-3.61 2.506-.977.549-1.579 1.724-1.579 2.899v27.495C17 52.433 18.504 54 20.46 54h20.153c1.956 0 3.46-1.567 3.384-3.682zM26.024 8.802c0-.157.075-.235.226-.235h2.03v.783c0 .47.301.783.752.783s.752-.313.752-.783v-.783h2.256v.783c0 .47.301.783.752.783s.752-.313.752-.783v-.783h2.03c.151 0 .226.078.226.235v2.663c0 .157-.075.235-.225.235H26.25c-.15 0-.226-.078-.226-.235V8.802zm1.504 4.465h6.768v2.35h-6.768v-2.35zm15.116 37.13c0 1.175-.903 2.036-1.956 2.036H20.46c-1.128 0-1.955-.861-1.955-2.036V22.902c0-.627.376-1.254.902-1.567 1.279-.783 2.633-1.567 3.836-2.663l.827-.784c.451-.47 1.128-.705 1.73-.705h10.077c.676 0 1.353.314 1.955.862l.677.705c.977 1.097 2.18 1.88 3.309 2.585.526.313.827.94.827 1.567v27.495z"/>
            <path d="M38.132 25.017h-.15c-1.505 0-2.859-.705-3.61-1.88a4.546 4.546 0 0 0-3.76-2.037c-1.505 0-2.933.705-3.76 2.037-.753 1.175-2.106 1.88-3.61 1.88h-.15c-.903 0-1.58.705-1.58 1.645v20.21c0 .94.677 1.645 1.58 1.645h14.89c.901 0 1.578-.705 1.729-1.567V26.662c0-.94-.752-1.645-1.58-1.645zm-.15 21.933-14.966-.078.075-20.289h.15c1.956 0 3.76-.94 4.814-2.506.526-.862 1.504-1.41 2.481-1.41.978 0 1.955.548 2.482 1.41 1.053 1.566 2.858 2.506 4.813 2.506l.225.079-.075 20.288z"/>
            <path d="M35.048 34.887v-4.779l-4.512-2.82-4.512 2.82v4.779l4.512 2.82 4.512-2.82zm-7.52-3.995 3.008-1.88 3.008 1.88v3.055l-3.008 1.88-3.008-1.88v-3.055zM27.528 39.9c-.451 0-.752.313-.752.783 0 .47.301.784.752.784h6.016c.452 0 .752-.314.752-.784 0-.47-.3-.783-.752-.783h-6.016zM35.048 43.033h-9.024c-.451 0-.752.314-.752.784 0 .47.3.783.752.783h9.024c.452 0 .752-.313.752-.783 0-.47-.3-.784-.752-.784z"/>
        </g>
    </g>
</svg>
