<svg width="61" height="61" viewBox="0 0 61 61" xmlns="http://www.w3.org/2000/svg">
    <g fill="none" fill-rule="evenodd">
        <path d="M0 0h61v61H0z"/>
        <path d="M51.761 14.867c.51-.511.15-1.385-.57-1.385h-6.609l3.314-3.32c.13.032.256.08.395.08a1.622 1.622 0 0 0 .38-3.199 1.62 1.62 0 0 0-1.998 1.577c0 .14.047.266.08.396l-4.458 4.466H9.81c-.72 0-1.08.874-.57 1.385L29.69 35.362v17.017h-8.086a.81.81 0 0 0 0 1.62l17.79.001a.81.81 0 0 0 0-1.62H31.31V35.361L51.76 14.867zm-8.796.236h6.273l-1.617 1.62h-6.274l1.618-1.62zm-31.203 0h28.916l-1.617 1.62h-.096c-.663-.468-1.357-.709-2.072-.709-.802 0-1.486.298-2.096.71H13.38l-1.617-1.62zm26.215 7.392c-.781.783-1.522 1.422-2.348 1.422-.51 0-1.052-.244-1.655-.848-1.578-1.582-.69-2.746.573-4.011.78-.783 1.521-1.422 2.348-1.422.51 0 1.051.243 1.654.848 1.579 1.582.691 2.745-.572 4.011zM30.5 33.881 14.996 18.345h17.987c-.968 1.045-2.354 2.974-.725 5.196l-4.993 5.003a.812.812 0 0 0 0 1.145.808.808 0 0 0 1.144 0l4.983-4.993c.713.551 1.462.84 2.238.84 1.477 0 2.577-.98 3.492-1.897.825-.826 2.851-2.863 1.371-5.294h5.51L30.5 33.88z" fill="#B8B8D2" fill-rule="nonzero"/>
    </g>
</svg>
