<svg width="61" height="61" viewBox="0 0 61 61" xmlns="http://www.w3.org/2000/svg">
    <g fill="none" fill-rule="evenodd">
        <path d="M0 0h61v61H0z"/>
        <path d="M37.088 54H23.912c-.964 0-1.793-.672-1.929-1.563-.835-5.47-2.673-18.541-1.712-21.788.558-1.887 1.802-3.087 3.004-4.248 1.383-1.334 2.689-2.594 3.162-4.924.92-4.533.67-13.73.668-13.823a.615.615 0 0 1 .193-.46.705.705 0 0 1 .488-.194H33.1c.182 0 .357.069.485.19a.616.616 0 0 1 .196.457c-.001.092-.138 9.295.782 13.83.473 2.33 1.78 3.59 3.162 4.924 1.202 1.16 2.446 2.36 3.004 4.248.96 3.246-.877 16.319-1.712 21.788-.136.891-.965 1.563-1.93 1.563zm-8.922-35.027c-.1 1-.227 1.936-.39 2.742-.55 2.704-2.129 4.228-3.522 5.573-1.134 1.094-2.204 2.127-2.67 3.7-.729 2.464.425 12.602 1.748 21.27.04.267.29.469.58.469h13.176c.29 0 .54-.202.58-.47 1.323-8.667 2.477-18.805 1.748-21.268-.465-1.574-1.536-2.607-2.67-3.701-1.393-1.345-2.972-2.869-3.521-5.573a29.838 29.838 0 0 1-.4-2.742h-4.659zm.11-1.273h4.43a92.914 92.914 0 0 1-.25-4.968h-3.97a87.859 87.859 0 0 1-.21 4.968zm.225-6.242h3.927a136.626 136.626 0 0 1-.016-3.184h-3.93c.013.675.027 1.814.019 3.184zm2.122 37.791c-.021 0-.042 0-.062-.003a.735.735 0 0 1-.187-.008c-.12-.02-2.979-.538-4.535-2.934-1.338-2.061-1.704-4.677-1.77-5.255l-.07.017a.723.723 0 0 1-.519-.065.643.643 0 0 1-.316-.39l-.954-3.452c-.09-.33.111-.668.46-.768l3.497-1.007a.547.547 0 0 1 .032-.008c2.701-.646 5.927-.646 8.628 0a.735.735 0 0 1 .033.009l3.471 1.006c.339.098.54.423.464.746l-.818 3.452a.64.64 0 0 1-.308.404.72.72 0 0 1-.525.075l-.09-.022c-.067.573-.432 3.194-1.772 5.258-1.556 2.396-4.414 2.913-4.535 2.934a.722.722 0 0 1-.124.011zm-5.21-8.423c.006.048.283 2.802 1.591 4.817 1.13 1.739 3.174 2.249 3.556 2.33.383-.084 2.438-.605 3.558-2.33 1.317-2.03 1.587-4.79 1.59-4.817a.59.59 0 0 1 .017-.096l-1.474-.351a16.208 16.208 0 0 0-7.502 0l-1.355.338c.01.035.016.072.02.109zm5.089-2.16c1.375 0 2.75.159 4.086.479l2.211.526.53-2.237-2.856-.828c-2.445-.581-5.476-.581-7.92 0l-2.86.823.619 2.24 2.092-.522a17.615 17.615 0 0 1 4.098-.482z" fill="#B8B8D2" fill-rule="nonzero"/>
    </g>
</svg>
