<svg width="61" height="61" viewBox="0 0 61 61" xmlns="http://www.w3.org/2000/svg">
    <g fill="none" fill-rule="evenodd">
        <path d="M0 0h61v61H0z"/>
        <path d="M52.012 31.895v-1.863h1.71c.43 0 .778-.349.778-.78 0-.43-.348-.78-.778-.78h-4.976c-.43 0-.777.35-.777.78 0 .431.348.78.777.78h1.71V31.8h-4.25V15.36c0-1.098-.722-2.04-1.757-2.292C38.813 11.696 32.725 11 26.353 11c-6.371 0-12.46.696-18.096 2.068-1.035.251-1.757 1.194-1.757 2.291v22.795c0 1.097.722 2.04 1.757 2.291 2.874.7 5.865 1.222 8.951 1.567l-.633 3.1H15.57a2.443 2.443 0 0 0-2.436 2.444v1.664c0 .431.348.78.778.78h24.88c.43 0 .778-.349.778-.78v-1.664a2.443 2.443 0 0 0-2.436-2.444h-1.003l-.634-3.1a71.473 71.473 0 0 0 8.951-1.567c1.035-.251 1.757-1.194 1.757-2.291v-1.466h3.421v.884c0 .89.721 1.612 1.607 1.612h1.66c.885 0 1.606-.723 1.606-1.612v-2.496a3.28 3.28 0 0 0-2.488-3.181zm-25.659 9.057c-3.38 0-6.751-.211-10.004-.62v-4.016c3.252.246 6.612.372 10.004.372 3.392 0 6.752-.126 10.004-.372v4.016c-3.253.409-6.623.62-10.004.62zm0 1.56c1.456 0 2.896-.038 4.32-.11l.554 2.71H21.48l.554-2.71c1.424.072 2.864.11 4.32.11zM8.055 19.834c.05-.058.215-.166.5-.208.95-.142 1.93-.272 2.921-.39v3.72c-1.044.044-2.077.094-3.078.148a7.148 7.148 0 0 0-.343.025v-3.295zm0 4.871c.11-.017.252-.034.427-.043.974-.053 1.978-.101 2.994-.145v4.48c-1.016-.045-2.02-.093-2.994-.146a4.097 4.097 0 0 1-.427-.044v-4.102zm0 5.679c.137.014.257.02.343.025 1.001.054 2.034.104 3.078.149v3.72c-.99-.119-1.97-.25-2.922-.39-.284-.043-.45-.151-.499-.209v-3.295zm4.976-12.027v-4.683c.583-.1 1.17-.194 1.763-.281V40.12c-.593-.087-1.18-.18-1.763-.281V18.357zm23.326 10.811c-3.25.09-6.611.136-10.004.136s-6.754-.046-10.004-.136v-4.823a362.33 362.33 0 0 1 10.004-.137c3.393 0 6.753.047 10.004.137v4.823zm-20.008 1.56c3.251.09 6.611.136 10.004.136 3.392 0 6.753-.046 10.004-.135v4.023c-3.25.249-6.61.376-10.004.376-3.393 0-6.754-.127-10.004-.376v-4.023zm20.008-7.944c-3.252-.09-6.612-.136-10.004-.136-3.392 0-6.752.047-10.004.136v-4.023c3.25-.249 6.61-.377 10.004-.377 3.394 0 6.755.128 10.004.377v4.023zm1.556-9.391c.592.087 1.18.18 1.762.281V39.84c-.582.1-1.17.194-1.762.281V13.393zm3.317 11.124c1.016.044 2.02.092 2.994.145.175.01.316.026.427.043v4.103c-.11.017-.252.034-.427.043-.974.053-1.978.101-2.994.145v-4.48zm3.421-1.388a7.148 7.148 0 0 0-.343-.025c-1-.054-2.033-.104-3.078-.149v-3.72c.992.119 1.971.25 2.922.39.284.043.45.151.5.209v3.295zm-3.421 7.429c1.045-.045 2.077-.095 3.078-.15.086-.004.206-.01.343-.024V33.68c-.05.057-.215.165-.5.207-.95.142-1.93.272-2.921.39v-3.72zm3.421-15.199v2.779a2.91 2.91 0 0 0-.271-.055 105.17 105.17 0 0 0-3.15-.418V13.96c.969.19 1.921.397 2.853.624.33.08.568.406.568.775zm-8.294-2.178v4.016a133.15 133.15 0 0 0-10.004-.373c-3.391 0-6.752.127-10.004.373V13.18a80.596 80.596 0 0 1 10.004-.62c3.38 0 6.751.211 10.004.62zM8.624 14.584a64.427 64.427 0 0 1 2.852-.624v3.705c-1.069.126-2.126.265-3.15.418a2.91 2.91 0 0 0-.27.055v-2.779c0-.369.238-.695.568-.775zm-.569 23.57v-2.779c.088.022.178.041.271.055 1.025.153 2.083.292 3.15.418v3.705a64.576 64.576 0 0 1-2.852-.624c-.33-.08-.569-.406-.569-.775zm10.709 4.016c.564.051 1.13.1 1.701.14l-.573 2.802h-1.73l.602-2.942zm19.252 5.386v.884H14.69v-.884c0-.487.395-.884.881-.884h21.564c.486 0 .881.397.881.884zm-3.472-2.444h-1.73l-.573-2.803a79.66 79.66 0 0 0 1.702-.14l.601 2.943zm10.107-6.958c0 .369-.239.695-.568.775-.932.227-1.884.434-2.853.624v-3.705c1.069-.126 2.126-.265 3.15-.418a2.91 2.91 0 0 0 .271-.055v2.779zm8.294-.582a.052.052 0 0 1-.052.052h-1.659a.052.052 0 0 1-.051-.052v-1.664c0-.43-.349-.78-.778-.78h-4.199V33.36h5.028c.944 0 1.71.77 1.71 1.716v2.496z" fill="#B8B8D2" fill-rule="nonzero"/>
    </g>
</svg>
