<svg width="61" height="61" viewBox="0 0 61 61" xmlns="http://www.w3.org/2000/svg">
    <g fill="none" fill-rule="evenodd">
        <path d="M0 0h61v61H0z"/>
        <g fill="#B8B8D2" fill-rule="nonzero">
            <path d="M30.5 31.345c-2.46 0-4.46 1.879-4.46 4.188v4.075c0 2.31 2 4.188 4.46 4.188s4.46-1.879 4.46-4.188v-4.075c0-2.309-2-4.188-4.46-4.188zm2.974 8.263c0 1.54-1.334 2.792-2.974 2.792-1.64 0-2.974-1.252-2.974-2.792v-4.075c0-1.54 1.334-2.792 2.974-2.792 1.64 0 2.974 1.253 2.974 2.792v4.075z"/>
            <path d="M39.582 46.947v-18.93c0-3.034-2.161-5.717-5.219-6.584V15.42c.713-.402 1.191-1.135 1.191-1.97 0-.511-.178-.983-.48-1.365.255-.438.392-.932.392-1.433V9.99c0-1.649-1.428-2.99-3.185-2.99h-3.537c-1.756 0-3.185 1.341-3.185 2.99v.662c0 .494.134.981.382 1.415-.31.384-.495.864-.495 1.383 0 .835.478 1.568 1.19 1.97v6.013c-3.057.867-5.218 3.55-5.218 6.584v10.516c0 .385.333.698.744.698.41 0 .743-.313.743-.698V28.017c0-2.57 1.947-4.825 4.63-5.36.02-.004 5.91-.004 5.93 0 2.683.535 4.63 2.79 4.63 5.36v19.257c0 .218.108.423.293.555.715.511 1.125 1.282 1.125 2.117 0 1.465-1.27 2.658-2.832 2.658H24.318c-1.56 0-2.831-1.193-2.831-2.659 0-.834.41-1.605 1.125-2.116a.684.684 0 0 0 .293-.555v-3.622c0-.386-.333-.698-.744-.698-.41 0-.743.312-.743.698v3.295c-.906.77-1.418 1.844-1.418 2.999C20 52.18 21.937 54 24.318 54h12.364C39.062 54 41 52.181 41 49.946c0-1.155-.512-2.23-1.418-2.999zM27.046 9.99c0-.879.762-1.594 1.698-1.594h3.537c.937 0 1.698.715 1.698 1.594v.662c0 .213-.045.418-.13.61a2.581 2.581 0 0 0-.74-.108h-5.218c-.25 0-.49.035-.717.1a1.487 1.487 0 0 1-.128-.602V9.99zm5.83 11.257h-4.752v-1.08h2.886c.411 0 .744-.312.744-.697 0-.386-.333-.698-.744-.698h-2.886v-1.079h4.752v3.554zm0-4.95h-4.752v-.552h4.752v.552zm.233-1.948h-5.218c-.529 0-.959-.403-.959-.9 0-.495.43-.899.959-.899h5.218c.529 0 .959.404.959.9s-.43.9-.959.9z"/>
            <path d="M22.161 40.053c-.41 0-.743.312-.743.698v.635c0 .386.333.698.743.698.411 0 .744-.312.744-.698v-.635c0-.386-.333-.698-.744-.698zM37.103 48.266V28.017c0-2.508-2.173-4.549-4.845-4.549h-3.517c-2.671 0-4.845 2.04-4.845 4.55v20.248c-.802.184-1.418.879-1.418 1.68 0 .936.843 1.727 1.84 1.727h12.363c.998 0 1.84-.791 1.84-1.728 0-.8-.615-1.495-1.418-1.68zm-.422 2.011H24.318c-.185 0-.353-.158-.353-.331 0-.174.169-.332.353-.332h.322c.41 0 .743-.312.743-.698V28.017c0-1.738 1.507-3.153 3.359-3.153h3.517c1.851 0 3.358 1.415 3.358 3.153v20.899c0 .385.333.698.743.698h.322c.185 0 .353.158.353.332 0 .173-.169.331-.354.331z"/>
            <path d="M32.258 26.26c-.41 0-.743.313-.743.698 0 .386.333.698.743.698.212 0 .385.162.385.361 0 .386.333.698.743.698s.744-.312.744-.698c0-.969-.84-1.757-1.872-1.757zM33.386 29.396c-.41 0-.743.313-.743.698v.442c0 .386.333.698.743.698s.744-.312.744-.698v-.442c0-.386-.333-.698-.744-.698zM32.023 35.513h-3.046c-.41 0-.743.312-.743.698 0 .386.333.698.743.698h.78v2.766c0 .386.332.698.743.698.41 0 .743-.312.743-.698v-2.766h.78c.41 0 .743-.312.743-.698 0-.386-.333-.698-.743-.698z"/>
        </g>
    </g>
</svg>
