<svg width="61" height="61" viewBox="0 0 61 61" xmlns="http://www.w3.org/2000/svg">
    <g fill="none" fill-rule="evenodd">
        <path d="M0 0h61v61H0z"/>
        <g fill="#B8B8D2" fill-rule="nonzero">
            <path d="M37.485 21.806c-2.64-4.229-2.137-6.632-2.135-6.647a.782.782 0 0 0-.147-.683.818.818 0 0 0-.64-.306V7.797A.804.804 0 0 0 33.75 7h-6.5a.804.804 0 0 0-.813.797v6.373a.804.804 0 0 0-.812.797c0 3.488-1.275 5.69-2.397 6.95C15.793 24.845 11 31.789 11 39.66c0 5.365 2.32 10.516 6.365 14.132.15.134.345.207.548.207h25.174a.822.822 0 0 0 .548-.207C47.68 50.177 50 45.026 50 39.66c0-7.894-5.018-15.034-12.515-17.855zM28.062 8.594h4.876v5.576h-4.876V8.594zm14.706 43.813H18.232c-3.567-3.302-5.607-7.93-5.607-12.746 0-7.276 4.466-13.686 11.377-16.33a.813.813 0 0 0 .305-.206c1.254-1.35 2.733-3.696 2.922-7.362h6.459c.01 1.274.392 3.727 2.565 7.118.096.149.238.262.407.323 7.007 2.522 11.715 9.136 11.715 16.457 0 4.816-2.04 9.444-5.607 12.746z"/>
            <path d="M30.5 30.102c-4.928 0-8.938 3.931-8.938 8.763s4.01 8.763 8.938 8.763c4.928 0 8.938-3.931 8.938-8.763s-4.01-8.763-8.938-8.763zm0 15.932c-4.032 0-7.313-3.216-7.313-7.17 0-3.953 3.28-7.169 7.313-7.169 4.032 0 7.313 3.216 7.313 7.17 0 3.953-3.28 7.17-7.313 7.17z"/>
        </g>
    </g>
</svg>
