<?xml version="1.0" encoding="UTF-8"?><svg version="1.1" width="274px" height="194px" viewBox="0 0 274.0 194.0" xmlns="http://www.w3.org/2000/svg" xmlns:xlink="http://www.w3.org/1999/xlink"><defs><clipPath id="i0"><path d="M375,0 L375,812 L0,812 L0,0 L375,0 Z"></path></clipPath><clipPath id="i1"><path d="M19.4645433,3.61747531 C24.1690705,0.999545442 29.5298478,-0.46983221 35,0.13548012 L34.9915865,0.209712536 C22.8916266,-0.156076531 12.5739183,9.58618574 5.61598558,19.6942371 C4.11979167,21.8643687 2.96153846,23.862564 2.91245994,24 L0,22.0585042 C4.13802083,15.8777011 11.7017228,7.83712863 19.4645433,3.61747531 Z"></path></clipPath><clipPath id="i2"><path d="M10.0287216,0.433577041 L12.6723223,5.65681264 L18.3118174,6.35509374 C18.9534952,6.43469808 19.2288994,7.24497725 18.7773483,7.72652538 L14.8140443,11.9529636 L15.9170591,17.7420001 C16.0428782,18.4013506 15.3872205,18.9241535 14.8070543,18.6267994 L9.7127757,16.0155448 L4.75550017,18.8951009 C4.19071187,19.2231056 3.50989033,18.7358922 3.60215773,18.0707311 L4.41858438,12.2304167 L0.251173677,8.22100194 C-0.22414321,7.76443912 0.0121172424,6.94035993 0.649601067,6.82661869 L6.2471564,5.8283687 L8.6293328,0.470909731 C8.90054302,-0.139341757 9.72675561,-0.161421792 10.0287216,0.433577041 Z"></path></clipPath><clipPath id="i3"><path d="M0.615311476,0 L3.15493149,1.41893298 L2.43353651,4.20086093 L4.59636314,6.0920182 L3.57519059,9.15095237 L6.4759835,10.4265089 L5.46812232,13.9387388 L8,15.4558458 L7.56140381,19 L6.27169465,18.8275244 L6.59931745,16.1775311 L3.92780617,14.5766583 L4.89654821,11.2004595 L1.94726387,9.90357307 L3.0739766,6.52793927 L0.962086354,4.68127816 L1.63077916,2.10261996 L0,1.19150819 L0.615311476,0 Z"></path></clipPath><clipPath id="i4"><path d="M7.29576077,0.459298526 C7.94992559,1.10169113 7.95288179,2.16995561 7.2995616,2.81234821 C6.8098178,3.29414266 6.27798335,3.93223352 5.79415195,4.80118423 C4.90320959,6.40143008 5.29216104,7.31053032 5.96899007,7.7005544 C6.76674174,8.16227408 7.75411254,7.59301099 9.69281664,5.94687996 C12.3391787,3.60386766 14.3267305,3.18946708 16.5022121,4.44557404 C18.6536218,5.68877579 19.6273378,8.30136355 18.5342477,11.4115188 L21,12.8368274 L19.6566183,15.2486675 L17.3600732,13.9222988 C16.7251941,14.9532816 15.9527812,15.8767209 15.2027511,16.5736022 C14.5767405,17.1543366 13.6154125,17.1399974 13.0054499,16.5420561 L12.9319672,16.4689266 C12.2599244,15.8093271 12.2754092,14.7037809 12.9737763,14.0728596 C13.6855166,13.430467 14.3761413,12.6260423 14.9123396,11.6624534 C15.6937618,10.2600874 15.6965772,8.99250916 14.7297591,8.43328346 C13.8112255,7.902736 12.7923219,8.35585221 11.1735913,9.82847989 C8.83678559,11.9607071 6.62737803,13.0605177 4.28254837,11.7054708 C2.15535133,10.4766081 1.33732856,7.98733681 2.2964043,5.05928839 L0,3.73291975 L1.3435225,1.31964576 L3.47057877,2.54850839 C4.0084664,1.67525595 4.53579616,1.00705293 5.0396171,0.485108943 C5.65535133,-0.152981921 6.66327475,-0.161585394 7.29576077,0.459298526 Z"></path></clipPath><clipPath id="i5"><path d="M16.6403226,0 L19,1.14201967 L16.6286482,6.84986331 L9.76121352,5.00408669 L6.90683564,10 L0,9.26707252 L0.287480799,6.74262281 L5.45192012,7.29052169 L8.46390169,2.01882698 L15.0642857,3.7931569 L16.6403226,0 Z"></path></clipPath><clipPath id="i6"><path d="M14.9588546,0 L18.3775322,1.34264344 L17.1402696,4.33270214 C18.3859873,4.8859591 19.3597327,5.45980875 20.1376016,6.02953986 C21.0888,6.72419996 21.2804489,8.03938648 20.5758575,8.9729218 C19.8473099,9.93665972 18.4423546,10.1247396 17.4784735,9.38065707 C16.7555627,8.82328158 15.8198653,8.23707631 14.5896487,7.7538345 C12.3222734,6.86423026 11.1963363,7.52868775 10.8031743,8.48007006 C10.3395531,9.60031244 11.2639771,10.7933157 13.7793685,13.0447832 C17.3389644,16.1007385 18.2408415,18.6267752 16.9753953,21.6854762 C15.7254501,24.7098561 12.4589642,26.4286593 8.16800234,25.5335637 L6.73345419,29 L3.31618574,27.6573566 L4.65068191,24.4297955 C3.18090418,23.7763208 1.82667945,22.9251562 0.77542903,22.0657546 C-0.102491896,21.3463833 -0.256092828,20.0888563 0.423133313,19.1882693 L0.504865919,19.0798144 C1.25314202,18.0886196 2.71164629,17.9197595 3.66848145,18.7242473 C4.64222681,19.5438364 5.82312205,20.3085116 7.18862025,20.8439216 C9.17697728,21.625071 10.8454498,21.410907 11.4077138,20.0517894 C11.9417941,18.7613141 11.1625159,17.5079057 8.93318864,15.6449536 C5.70756906,12.956921 3.86435787,10.2579057 5.22844689,6.96307518 C6.46430026,3.97164363 9.59691377,2.47661428 13.6229492,3.22893391 L14.9588546,0 Z"></path></clipPath><clipPath id="i7"><path d="M11.738506,1.02287335 L11.741305,1.04286531 C11.8349339,1.70036295 11.370988,2.30221864 10.7120868,2.39113391 C9.96277562,2.49207231 9.088346,2.7259642 8.09551569,3.2091264 C6.63943921,3.91779226 5.40896782,5.08920895 4.7989104,6.77692137 C4.45938315,7.76030185 4.36519443,8.91060816 4.6995434,10.0157578 L12.1459107,6.39204129 C12.584525,6.17856077 13.1134094,6.36058542 13.3271184,6.79887058 C13.5408275,7.23701593 13.3583281,7.76519499 12.9197137,7.97867551 L5.14249631,11.7635859 C5.28678839,12.143433 5.43108047,12.5232802 5.54388302,12.7546556 C5.68901482,13.0521582 5.83414663,13.3496609 6.06059143,13.7303469 L13.8544633,9.93732784 C14.3021746,9.7193736 14.8421153,9.90531275 15.0603029,10.3526852 C15.2784904,10.8000576 15.0923522,11.3394209 14.644501,11.5573752 L7.18175912,15.1892003 C7.88096693,16.0350138 8.74727926,16.6360307 9.63332502,16.9412225 C11.388902,17.5183329 12.9384675,17.3371471 14.593138,16.5318768 C15.6017831,16.0408856 16.4207911,15.4207156 17.032388,14.837314 C17.5356609,14.3573673 18.3444523,14.4213974 18.7643129,14.9757198 C19.1000614,15.4191777 19.0747298,16.0378099 18.7034331,16.4520488 C17.9751149,17.2645889 16.78551,18.2464315 15.2923458,18.9731321 C13.1080911,20.036061 10.6022233,20.3555128 8.23980777,19.5418543 C6.76343804,19.0332478 5.35816469,17.9989787 4.3026352,16.5904546 L3.01198379,17.2184536 C2.57336944,17.4319341 2.04448507,17.2497697 1.83077604,16.8116243 L1.81454143,16.778351 C1.6008324,16.3402057 1.78319184,15.8118868 2.22180619,15.5984063 L3.28083451,15.0830892 C3.07034441,14.7355367 2.92451284,14.5203786 2.827665,14.3218571 C2.66643854,13.9913607 2.5060518,13.5785198 2.36259943,13.116468 L1.27054208,13.6480024 C0.831927728,13.8613431 0.303183309,13.6793184 0.089474276,13.2411731 C-0.124234757,12.8030277 0.0579847328,12.2747089 0.496599081,12.0612284 L1.82055943,11.4170121 C1.44282487,9.71909399 1.5098626,8.00943236 2.01887358,6.53450145 C2.88448613,4.02711889 4.78099635,2.12243085 7.06433811,1.01112983 C8.39557605,0.363418458 9.51618392,0.103243441 10.4337192,0.00663896081 C11.0716274,-0.0604669007 11.648096,0.388443352 11.738506,1.02287335 Z"></path></clipPath><clipPath id="i8"><path d="M2.25743691,0 L4.00380657,4.66253948 L9.75059918,4.7921036 L11.0744396,11.2489366 L14.956154,10.8369551 L15,13.3801853 L9.15874806,14 L7.78147469,7.28300695 L2.33554208,7.1603706 L0,0.924194567 L2.25743691,0 Z"></path></clipPath><clipPath id="i9"><path d="M12.1977489,1.44486864 C12.3797527,2.39607372 10.9993239,5.14475274 11.2149284,5.43738777 C11.3507312,5.62056713 12.72836,6.12349828 13.7405812,6.47446259 C14.4069951,6.70523751 14.8872051,7.29643936 14.9894073,8.00952539 C15.0580087,8.4935313 14.787803,8.9629902 14.3411937,9.13727187 L13.6439791,9.4085807 L13.8665838,10.133954 C14.0317872,10.6738882 13.7391811,11.2540739 13.2099701,11.432875 L12.6709588,11.6150658 L12.8431624,12.056843 C13.0657671,12.6258712 12.7535605,13.2714478 12.1739484,13.44121 L11.7035386,13.5791948 L11.723139,13.7061634 C11.8029407,14.234234 11.4753338,14.7422496 10.9671232,14.8765623 L10.4995135,15 L4.05377881,12.8541039 C3.4503662,12.652988 2.89455459,12.3274456 2.41994468,11.8969671 L0.279299957,10.7572158 C0.0496951605,10.6349079 -0.0567070623,10.357526 0.030094751,10.1051425 L2.01533622,4.34000641 C2.11053821,4.06163593 2.40594438,3.91079895 2.67895009,4.00147062 L5.09960065,4.80678188 L5.11299045,4.80237762 L5.21472342,4.768413 C5.85654037,4.55222723 8.97618508,3.47075064 9.31508872,2.7635623 C9.69309661,1.97449285 9.79949884,0.0600778815 10.3455102,0.00782162635 C10.8915216,-0.0442933957 11.9457437,0.134790203 12.1977489,1.44486864 Z"></path></clipPath><clipPath id="i10"><path d="M17.311593,4.06966195 C25.9612312,8.81679319 34.3891736,17.8623743 39,24.8158665 L35.7540588,27 C35.7007342,26.8454051 34.4096077,24.5974389 32.7425498,22.1559798 C24.9892124,10.7843514 13.4922376,-0.175641516 0.00965720684,0.235994051 L0,0.152356087 C6.09579691,-0.528431292 12.0684294,1.12438026 17.311593,4.06966195 Z"></path></clipPath><clipPath id="i11"><path d="M10.3887348,0.479115563 C10.7372981,-0.178403192 11.6948321,-0.153954769 12.009032,0.520390253 L14.7669444,6.44179822 L21.2482779,7.54528497 C21.9864374,7.67097862 22.2590243,8.58175427 21.7095007,9.08639848 L16.8839877,13.517747 L17.8287623,19.9728496 C17.9363471,20.7080281 17.147295,21.2466125 16.4935214,20.8840567 L10.7532473,17.7014474 L4.85580075,20.5875117 C4.18404803,20.9162711 3.42384957,20.3382817 3.56956756,19.6095748 L4.84724616,13.211135 L0.25763674,8.53976051 C-0.265208132,8.00764778 0.0542115165,7.11197263 0.797880775,7.02410212 L7.32793193,6.25225104 Z"></path></clipPath><clipPath id="i12"><path d="M14.2733175,0.27757224 C15.2300308,0.553617302 15.9686697,0.909940774 16.5187798,1.27753139 C17.0168335,1.60991218 17.1476781,2.28171572 16.8198631,2.7816953 C16.4892343,3.28308327 15.8181281,3.42673937 15.3031912,3.11266769 C14.8754841,2.85211496 14.3324087,2.60142097 13.6486401,2.40424593 C11.2906233,1.72540042 9.84851876,3.06478233 9.22524821,5.19286441 C8.84678371,6.48154416 8.74689159,7.49277046 8.64699947,8.50399676 L13.0014517,9.75887507 L12.4471208,11.6461219 L8.33606766,10.4616633 C8.09266855,11.6264044 7.81972389,12.7826952 7.2302197,13.7840628 C6.51971942,14.9769718 5.47859029,15.8459504 4.19546899,16.4191664 L4.17858582,16.4783189 L12.1235266,18.7683662 C12.7102169,18.9373734 13.0492874,19.5472076 12.8776417,20.128874 L12.8551308,20.207744 C12.6834852,20.7908188 12.0700632,21.1260164 11.4819659,20.9556008 L0,17.6472852 L0.43896255,16.1487549 C2.76321298,15.7135614 4.76386922,14.1446114 5.42371997,11.8982243 C5.63475966,11.1785354 5.77967358,10.5701095 5.88660035,9.75605828 L2.7730615,8.85891183 L3.32739241,6.97025659 L6.13844105,7.78149106 C6.25099555,6.83786763 6.41279264,5.61679075 6.75467694,4.44923281 C7.79158527,0.912757561 10.9177865,-0.689993869 14.2733175,0.27757224 Z"></path></clipPath><clipPath id="i13"><path d="M6.79854535,0.373240249 L7.08756434,3.35180634 L9.78253179,4.80954753 C10.0895023,4.97559545 10.0667637,5.41080052 9.74423528,5.54610419 L6.91134054,6.732948 L6.31385511,9.6681531 C6.24593864,10.0024242 5.81181177,10.1159749 5.57963917,9.86030462 L3.53975151,7.61524977 L0.475581745,7.97156395 C0.126574858,8.01202453 -0.118911769,7.64700915 0.0600047489,7.3539237 L1.63225609,4.77938337 L0.335859313,2.06431865 C0.188208307,1.75513597 0.470345893,1.41593416 0.813518546,1.49047445 L3.82488101,2.14451472 L6.08796553,0.110173942 C6.34571901,-0.121423022 6.76563428,0.0338934138 6.79854535,0.373240249 Z"></path></clipPath><clipPath id="i14"><path d="M7.57947256,0 L11.1732003,0.289839591 L12,1.72493724 L8.74269423,1.46215884 L8.26086957,4.72915665 L4.56307912,4.59456284 L3.74768354,7.5485054 L0.17106201,8 L0,6.64637077 L2.67426942,6.30881803 L3.53528154,3.19222347 L7.0890948,3.3216899 L7.57947256,0 Z"></path></clipPath><clipPath id="i15"><path d="M1.28922428,0 L1.98611736,2.55742886 L5.12911632,2.96282703 L5.49403589,6.44011163 L8.78515255,6.45665278 L9,9.99603675 L7.72166468,11 L7.52705952,7.79256031 L4.29024803,7.77615935 L3.91053064,4.15883575 L0.931843211,3.77460463 L0,0.354232774 L1.28922428,0 Z"></path></clipPath><clipPath id="i16"><path d="M16.4550386,0 L20,0.831955353 L19.6871627,2.18044647 L17.0363922,1.55828855 L15.1278546,4.22343944 L11.8098226,2.84745763 L10.1795864,5.83960314 L6.87925403,4.29578338 L4.78134488,6.34167011 L2.23965004,5.36647375 L1.14155383,7 L0,6.22447292 L1.7099564,3.68085986 L4.45210309,4.7327408 L6.60037702,2.63766019 L9.59118185,4.03534518 L11.1946527,1.09384043 L14.6463673,2.52625052 L16.4550386,0 Z"></path></clipPath><clipPath id="i17"><path d="M6.70998469,0 L8,0.212968193 L7.74689573,3.36413393 L4.21840449,3.46952728 L3.62782786,6.34241639 L0.249021943,7 L0,5.71850957 L2.52696037,5.22671939 L3.14883484,2.19539939 L6.54260929,2.09409634 L6.70998469,0 Z"></path></clipPath><clipPath id="i18"><path d="M17.7676415,2.9221586 C21.9536283,6.936238 22.0918518,13.5830611 18.0775529,17.7680979 C14.063254,21.9532802 7.41689044,22.0919375 3.23235854,18.0778581 C-0.953628343,14.0636332 -1.09185175,7.41695561 2.9224471,3.23177333 C6.93674596,-0.953263449 13.5831096,-1.0919208 17.7676415,2.9221586 Z"></path></clipPath><clipPath id="i19"><path d="M11.0284328,0.469820017 L10.9518604,5.20454787 L14.8055094,7.9508728 C15.1176889,8.17270723 15.039644,8.65558402 14.674453,8.76804892 L10.1522688,10.1593414 L8.7342084,14.6766567 C8.61934993,15.0416149 8.13635533,15.1166406 7.91694619,14.8037141 L5.19715648,10.9287604 L0.467343502,10.9743065 C0.0844819287,10.9781389 -0.136399748,10.5415451 0.0933171958,10.2355463 L2.93532811,6.44947382 L1.43038761,1.96031152 C1.30816642,1.59756433 1.65568692,1.25279973 2.01646033,1.37690909 L6.49152311,2.91176748 L10.2921605,0.0915960062 C10.5984498,-0.136134351 11.0343229,0.0873214558 11.0284328,0.469820017 Z"></path></clipPath><clipPath id="i20"><path d="M1.87765589,0.392281327 C1.86050323,0.0929117835 2.15209834,-0.104230373 2.36936529,0.0587364967 L4.37765512,1.56334454 L6.63037027,0.497642692 C6.8733662,0.382133207 7.12207967,0.63479155 7.05061028,0.925057633 L6.38594496,3.60505677 L7.926825,5.71019474 C8.09406337,5.93822897 7.95684214,6.29147309 7.69526417,6.30788917 L5.27531065,6.45966326 L3.97742654,8.8264138 C3.83591715,9.08280307 3.5028698,9.04832931 3.41281837,8.76821135 L2.58234407,6.18208233 L0.238148097,5.53976602 C-0.016282929,5.47022155 -0.0848935427,5.09578576 0.120938298,4.90610546 L2.02631222,3.15600245 Z"></path></clipPath><clipPath id="i21"><path d="M1.33490715,0 C2.27067711,0.34920225 2.79444602,0.801448545 2.95016402,0.950190074 L3,1 C2.02502361,0.36567093 0.459380902,0.308812214 0.0832042316,0.304508926 L0,0.304351976 L0.733711048,0.163771712 C0.827982373,0.112044283 1.22883223,0.0404657377 1.33490715,0 Z"></path></clipPath><clipPath id="i22"><path d="M0.234323616,0 C1.74885999,0.110916453 6.74640973,1.07647486 7,1.19595629 L6.66654981,2.28713437 C6.52504363,3.11665239 6.19019239,4.3998287 5.53169831,4.91115783 C5.03980924,5.99037756 5.60196818,10.1859419 5.70195216,10.8972526 L5.71491287,10.9881808 L5.71663707,11 L1.38878983,10.708648 C1.38878983,10.708648 1.08546224,8.63945664 0.761118878,6.41102806 L0.679758584,5.85170877 C0.38103022,3.79681293 0.0844111343,1.74185462 0.0073533167,1.15798489 C-0.027672964,0.892042358 0.0647964171,0.482065457 0.234323616,0 Z"></path></clipPath><clipPath id="i23"><path d="M2.49707405,0.734460963 L4,0.641364658 C4,0.641364658 3.14002981,0.984620126 2.18570553,2 C2.18570553,2 -0.100359412,0.571691051 0.00343009298,0.152817129 C0.142265405,-0.402550481 2.49707405,0.734460963 2.49707405,0.734460963 Z"></path></clipPath><clipPath id="i24"><path d="M1.62244898,1.54413846 C1.01020408,0.383327466 1.95578231,-0.534328642 2.58843537,0.358655607 L3,1.92668935 C3,1.92668935 2.49829932,4.18608341 1.83673469,4.88320051 C1.22237861,5.53224057 0.15986799,3.27893705 0.0162368281,2.96504957 L0,2.92918924 C0,2.92918924 1.46768707,1.98439408 1.62585034,1.68065608 C1.62414966,1.68983949 1.65306122,1.60129493 1.62244898,1.54413846 Z"></path></clipPath><clipPath id="i25"><path d="M13.468888,0.0116824744 C15.6247225,-0.397638503 21.4974129,10.0714842 19.6433372,12.1830651 C19.3280511,12.5424694 15.15572,13.1662737 10.7372134,13.7356445 L9.95565646,13.8354917 L9.17339838,13.9338195 C4.87713537,14.4697298 0.74915174,14.9190257 0.0909896277,14.9901867 L0.0102936992,14.9988934 L0,15 L0.368493919,14.0620486 C0.368493919,14.0620486 10.8473584,0.509925388 13.468888,0.0116824744 Z M13.5457784,2.52768316 C11.8425821,3.85100961 3.96058424,10.0832471 0.501964157,14.3507998 C6.03227446,13.7055207 15.4825476,10.8752825 17.6601436,10.4425757 C17.3583848,8.44554306 15.0661785,4.02549266 13.5457784,2.52768316 Z"></path></clipPath><clipPath id="i26"><path d="M5.15203307,0.481940015 C6.64248073,-0.370195637 8.04660904,-0.396000358 13.1610313,2.96615174 C18.2740149,6.32757899 23,14.7996456 23,14.7996456 L22.5597712,16 C22.5597712,16 17.3311349,15.5258053 11.9500082,14.7242074 L11.1986745,14.6102465 L10.4484259,14.4921245 C5.95631969,13.7710864 1.68830397,12.8301362 0.623143829,11.7554134 C-1.83264204,9.27758042 3.6615854,1.33349579 5.15203307,0.481940015 Z M7.01106857,3.96844732 L6.98919684,3.9712311 C5.70016102,4.98341401 2.87176323,9.73989083 4.00830151,10.8812423 C5.06571371,11.8284785 14.9377715,14.2609358 22.2533375,15.0584176 C20.4248057,12.1887298 7.31864908,3.7845093 6.98919684,3.9712311 Z"></path></clipPath><clipPath id="i27"><path d="M3.04546754,0 C4.12496426,0 5,0.860949778 5,1.92349123 L5,5.07693081 C5,6.1391909 4.12496426,7 3.04546754,7 L1.95596225,7 C0.876465542,7 0,6.1391909 0,5.07693081 L0,1.92349123 C0,0.860949778 0.876465542,0 1.95596225,0 Z"></path></clipPath><clipPath id="i28"><path d="M3.75430466,0 L90,0.259782574 L88.5534595,13.0084298 L84.4811487,13.0166963 L81.6173048,62 L12.7792415,62 C10.4068594,62 8.44518903,60.1365314 8.30582551,57.751852 L5.70052117,13.181326 L1.37774585,13.1902931 L0.0431416992,4.33335295 C-0.301159997,2.04871243 1.45933129,-0.00698766754 3.75430466,0 Z"></path></clipPath><clipPath id="i29"><path d="M63,0 L60.3579428,56.7587458 C60.247566,59.1309251 58.2691668,61 55.8646293,61 L2.83905879,61 L0,0 L63,0 Z"></path></clipPath><clipPath id="i30"><path d="M0,0 L67.2448253,0.253562252 C69.4534587,0.261706058 71.1811009,2.12884628 70.9847779,4.29399461 L70.2107045,12.8208363 L1.56777917,13 L0,0 Z"></path></clipPath><clipPath id="i31"><path d="M66,0 L2.09218643,4 L0,0.210355725 L66,0 Z"></path></clipPath><clipPath id="i32"><path d="M2,0 L2,13 L0,13 L0,0 L2,0 Z"></path></clipPath><clipPath id="i33"><path d="M2,0 L2,49 L0,49 L0,0 L2,0 Z"></path></clipPath><clipPath id="i34"><path d="M0.0872627676,1.61153736 C0.39154516,0.532368238 1.65633168,-0.309612689 2.73785556,0.109890701 C8.505646,2.34659772 14.3169054,4.21257735 19.5115127,5.63763974 C21.2156096,6.10517559 23.9103934,6.23321261 24.78266,8.02141831 C25.2577853,8.99827678 24.9184101,9.91594975 24.1096861,10.5259472 C22.5528925,11.6995455 19.7512416,10.3814037 18.060142,9.91892389 C12.9319656,8.51542407 7.78934763,6.83607214 1.54585421,4.34076307 C0.465918881,3.90921439 -0.259044388,2.83956253 0.0872627676,1.61153736 Z"></path></clipPath><clipPath id="i35"><path d="M0.200326485,1.30768011 C0.621866097,-0.262091348 2.7576668,-0.447513246 3.53751508,0.908563777 L3.58536991,0.992280544 C3.59315219,1.00598645 3.60084003,1.01958156 3.60843687,1.03308487 L3.65295377,1.11315492 C3.7181744,1.23206313 3.77658583,1.3466106 3.8307121,1.47063704 L3.86618914,1.5548775 L3.90056269,1.6428378 C4.32402787,2.76938745 4.52781588,4.9813503 5.97260891,16.2878177 C6.12436317,17.4645004 5.65083367,18.6262576 4.419938,18.9428526 C3.38716595,19.208069 1.97500825,18.5283801 1.82044373,17.3557158 C0.486358676,7.21878347 0.0242952751,4.16827617 0.000940786754,2.74746753 L0.000434659634,2.56330987 C0.00682992292,2.03806642 0.0833492424,1.74405214 0.200326485,1.30768011 Z"></path></clipPath><clipPath id="i36"><path d="M6.79350751,0.05942936 C7.28443075,-0.107107898 8.05140937,0.0882342928 8.37726856,0.497096544 C9.89272724,2.40213735 8.27623798,5.23383004 7.39257615,7.15676906 C6.4434579,9.22694882 5.28231772,11.1739386 3.9063097,12.9978781 C3.22897793,13.8955852 2.08064445,14.328638 1.02907264,13.7097515 C0.0956070131,13.1624577 -0.335551655,11.8020539 0.303360035,10.8815545 C1.51999588,9.12920781 2.62706335,7.29142513 3.52353187,5.3599565 C4.34458319,3.58915228 4.73732178,0.75648077 6.79350751,0.05942936 Z"></path></clipPath><clipPath id="i37"><path d="M6.45500961,0.889366525 C8.05577684,0.426863131 10.6464374,-0.631138818 12.1153114,0.515671923 C12.8275349,1.07294345 13.3370592,2.20362036 12.7303504,3.07586513 C11.232321,5.2282065 9.8162043,3.82049268 3.06743627,6.76266544 C2.03450407,7.21325014 0.855795154,7.06484789 0.253251372,5.94768853 C-0.263214727,4.99390246 0.0172319183,3.48793211 1.03072722,3.00057388 C2.78837798,2.15623629 4.58906757,1.42803327 6.45500961,0.889366525 Z"></path></clipPath></defs><g transform="translate(-51.0 -151.0)"><g clip-path="url(#i0)"><g transform="translate(51.0 151.0)"><g transform="translate(169.0 12.0)"><g clip-path="url(#i1)"><polygon points="0,5.82867088e-16 35,5.82867088e-16 35,24 0,24 0,5.82867088e-16" stroke="none" fill="#F7CC7E"></polygon></g></g><g transform="translate(199.0 0.0)"><g clip-path="url(#i2)"><polygon points="1.58206781e-14,6.10622664e-15 19,6.10622664e-15 19,19 1.58206781e-14,19 1.58206781e-14,6.10622664e-15" stroke="none" fill="#F7CC7E"></polygon></g></g><g transform="translate(89.0 6.0)"><g clip-path="url(#i3)"><polygon points="0,0 8,0 8,19 0,19 0,0" stroke="none" fill="#9BC1F8"></polygon></g></g><g transform="translate(0.0 142.0)"><g clip-path="url(#i4)"><polygon points="0,3.60822483e-15 21,3.60822483e-15 21,17 0,17 0,3.60822483e-15" stroke="none" fill="#F9DFB1"></polygon></g></g><g transform="translate(228.0 60.0)"><g clip-path="url(#i5)"><polygon points="0,0 19,0 19,10 0,10 0,0" stroke="none" fill="#466DB6"></polygon></g></g><g transform="translate(230.0 165.0)"><g clip-path="url(#i6)"><polygon points="-8.8817842e-15,0 21,0 21,29 -8.8817842e-15,29 -8.8817842e-15,0" stroke="none" fill="#95D9C8"></polygon></g></g><g transform="translate(30.0 65.0)"><g clip-path="url(#i7)"><polygon points="-2.87270208e-15,9.19316706e-15 19,9.19316706e-15 19,20 -2.87270208e-15,20 -2.87270208e-15,9.19316706e-15" stroke="none" fill="#85B0F1"></polygon></g></g><g transform="translate(9.0 94.0)"><g clip-path="url(#i8)"><polygon points="0,0 15,0 15,14 0,14 0,0" stroke="none" fill="#50BEA4"></polygon></g></g><g transform="translate(205.0 55.0)"><g clip-path="url(#i9)"><polygon points="1.38222767e-14,9.92955718e-15 15,9.92955718e-15 15,15 1.38222767e-14,15 1.38222767e-14,9.92955718e-15" stroke="none" fill="#F9DFB1"></polygon></g></g><g transform="translate(25.0 40.0)"><g clip-path="url(#i10)"><polygon points="0,1.13242749e-14 39,1.13242749e-14 39,27 0,27 0,1.13242749e-14" stroke="none" fill="#F7CC7E"></polygon></g></g><g transform="translate(10.0 27.0)"><g clip-path="url(#i11)"><polygon points="3.33066907e-15,1.23234756e-14 22,1.23234756e-14 22,21 3.33066907e-15,21 3.33066907e-15,1.23234756e-14" stroke="none" fill="#F7CC7E"></polygon></g></g><g transform="translate(239.0 136.0)"><g clip-path="url(#i12)"><polygon points="0,-1.77635684e-15 17,-1.77635684e-15 17,21 0,21 0,-1.77635684e-15" stroke="none" fill="#F7CC7E"></polygon></g></g><g transform="translate(0.0 60.0)"><g clip-path="url(#i13)"><polygon points="-4.10782519e-15,1.26704203e-14 10,1.26704203e-14 10,10 -4.10782519e-15,10 -4.10782519e-15,1.26704203e-14" stroke="none" fill="#466DB6"></polygon></g></g><g transform="translate(262.0 108.0)"><g clip-path="url(#i14)"><polygon points="0,0 12,0 12,8 0,8 0,0" stroke="none" fill="#F48B7E"></polygon></g></g><g transform="translate(75.0 19.0)"><g clip-path="url(#i15)"><polygon points="0,0 9,0 9,11 0,11 0,0" stroke="none" fill="#F48B7E"></polygon></g></g><g transform="translate(5.0 129.0)"><g clip-path="url(#i16)"><polygon points="0,0 20,0 20,7 0,7 0,0" stroke="none" fill="#F7CC7E"></polygon></g></g><g transform="translate(161.0 21.0)"><g clip-path="url(#i17)"><polygon points="0,0 8,0 8,7 0,7 0,0" stroke="none" fill="#50BEA4"></polygon></g></g><g transform="translate(221.0 18.0)"><g clip-path="url(#i18)"><polygon points="-6.21724894e-15,1.46549439e-14 21,1.46549439e-14 21,21 -6.21724894e-15,21 -6.21724894e-15,1.46549439e-14" stroke="none" fill="#FFF3D9"></polygon></g></g><g transform="translate(224.0 21.0)"><g clip-path="url(#i19)"><polygon points="-3.66373598e-15,3.21964677e-15 15,3.21964677e-15 15,15 -3.66373598e-15,15 -3.66373598e-15,3.21964677e-15" stroke="none" fill="#FDD233"></polygon></g></g><g transform="translate(263.0 67.0)"><g clip-path="url(#i20)"><polygon points="-1.85129689e-14,1.62300728e-14 8,1.62300728e-14 8,9 -1.85129689e-14,9 -1.85129689e-14,1.62300728e-14" stroke="none" fill="#F47457"></polygon></g></g><g transform="translate(99.0 83.0)"><g clip-path="url(#i21)"><polygon points="0,0 3,0 3,1 0,1 0,0" stroke="none" fill="#F47156"></polygon></g></g><g transform="translate(175.0 81.0)"><g clip-path="url(#i22)"><polygon points="-1.23234756e-14,0 7,0 7,11 -1.23234756e-14,11 -1.23234756e-14,0" stroke="none" fill="#F7A391"></polygon></g></g><g transform="translate(176.0 82.0)"><g clip-path="url(#i23)"><polygon points="8.8817842e-16,-1.35169653e-14 4,-1.35169653e-14 4,2 8.8817842e-16,2 8.8817842e-16,-1.35169653e-14" stroke="none" fill="#F47457"></polygon></g></g><g transform="translate(179.0 80.0)"><g clip-path="url(#i24)"><polygon points="0,-8.16013923e-15 3,-8.16013923e-15 3,5 0,5 0,-8.16013923e-15" stroke="none" fill="#F7A391"></polygon></g></g><g transform="translate(144.0 55.0)"><g clip-path="url(#i25)"><polygon points="0,-1.77635684e-15 20,-1.77635684e-15 20,15 0,15 0,-1.77635684e-15" stroke="none" fill="#82C6E5"></polygon></g></g><g transform="translate(119.0 54.0)"><g clip-path="url(#i26)"><polygon points="8.8817842e-16,-4.4408921e-16 23,-4.4408921e-16 23,16 8.8817842e-16,16 8.8817842e-16,-4.4408921e-16" stroke="none" fill="#82C6E5"></polygon></g></g><g transform="translate(140.0 67.0)"><g clip-path="url(#i27)"><polygon points="0,0 5,0 5,7 0,7 0,0" stroke="none" fill="#82C6E5"></polygon></g></g><g transform="translate(92.0 70.0)"><g clip-path="url(#i28)"><polygon points="8.8817842e-15,-1.77627589e-05 90,-1.77627589e-05 90,62 8.8817842e-15,62 8.8817842e-15,-1.77627589e-05" stroke="none" fill="#B32222"></polygon></g></g><g transform="translate(119.0 71.0)"><g clip-path="url(#i29)"><polygon points="0,0 63,0 63,61 0,61 0,0" stroke="none" fill="#FF3A3A"></polygon></g></g><g transform="translate(114.0 70.0)"><g clip-path="url(#i30)"><polygon points="0,0 71,0 71,13 0,13 0,0" stroke="none" fill="#FF3A3A"></polygon></g></g><g transform="translate(116.0 83.0)"><g clip-path="url(#i31)"><polygon points="0,0 66,0 66,4 0,4 0,0" stroke="none" fill="#B32222"></polygon></g></g><g transform="translate(142.0 70.0)"><g clip-path="url(#i32)"><polygon points="0,0 2,0 2,13 0,13 0,0" stroke="none" fill="#82C6E5"></polygon></g></g><g transform="translate(148.0 83.0)"><g clip-path="url(#i33)"><polygon points="0,0 2,0 2,49 0,49 0,0" stroke="none" fill="#82C6E5"></polygon></g></g><g transform="translate(92.0 41.0)"><g clip-path="url(#i34)"><polygon points="7.03603842e-15,6.09234885e-15 25,6.09234885e-15 25,11 7.03603842e-15,11 7.03603842e-15,6.09234885e-15" stroke="none" fill="#DDEFF8"></polygon></g></g><g transform="translate(127.0 19.0)"><g clip-path="url(#i35)"><polygon points="-1.24067423e-14,-2.22044605e-15 6,-2.22044605e-15 6,19 -1.24067423e-14,19 -1.24067423e-14,-2.22044605e-15" stroke="none" fill="#DDEFF8"></polygon></g></g><g transform="translate(152.0 24.0)"><g clip-path="url(#i36)"><polygon points="1.54321e-14,-8.21565038e-15 9,-8.21565038e-15 9,14 1.54321e-14,14 1.54321e-14,-8.21565038e-15" stroke="none" fill="#DDEFF8"></polygon></g></g><g transform="translate(173.0 45.0)"><g clip-path="url(#i37)"><polygon points="5.10702591e-15,3.66373598e-15 13,3.66373598e-15 13,7 5.10702591e-15,7 5.10702591e-15,3.66373598e-15" stroke="none" fill="#DDEFF8"></polygon></g></g></g></g></g></svg>