<svg width="16" height="20" viewBox="0 0 16 20" xmlns="http://www.w3.org/2000/svg">
    <path d="M9 1.503c-.21-.002-.452-.003-.735-.003H6.75c-1.435 0-2.437.002-3.192.103-.734.099-1.122.28-1.399.556-.277.277-.457.665-.556 1.4-.101.755-.103 1.756-.103 3.191v6c0 1.436.002 2.437.103 3.192.099.734.28 1.122.556 1.4.277.276.665.456 1.4.555.754.102 1.756.103 3.191.103h2c1.435 0 2.437-.001 3.192-.103.734-.099 1.122-.28 1.399-.556.277-.277.457-.665.556-1.399.101-.755.103-1.756.103-3.192V7.235c0-.283 0-.525-.003-.735h-.299c-.898 0-1.648 0-2.242-.08-.628-.084-1.195-.27-1.65-.725-.456-.456-.642-1.023-.726-1.65C9 3.45 9 2.7 9 1.802v-.299zM13.767 5c-.174-.331-.5-.672-1.305-1.477l-.485-.485c-.804-.805-1.145-1.13-1.477-1.305v.017c0 .964.002 1.612.067 2.095.062.461.169.659.3.79.13.13.327.237.788.299.483.065 1.131.066 2.095.066h.017zM10.942.286C10.251-.001 9.495 0 8.407 0H6.695c-1.367 0-2.47 0-3.337.117-.9.12-1.658.38-2.26.981-.602.602-.86 1.36-.981 2.26C0 4.225 0 5.328 0 6.695V12.805c0 1.368 0 2.47.117 3.337.12.9.38 1.658.981 2.26.602.602 1.36.86 2.26.982.867.116 1.97.116 3.337.116H8.805c1.368 0 2.47 0 3.337-.116.9-.121 1.658-.38 2.26-.982.602-.602.86-1.36.982-2.26.116-.867.116-1.97.116-3.337V7.093c0-1.088 0-1.844-.285-2.535-.287-.692-.822-1.226-1.591-1.995l-.101-.1-.485-.486-.101-.1c-.769-.77-1.303-1.305-1.995-1.591zM8.5 8v-.25a.75.75 0 1 0-1.5 0v.264a2.25 2.25 0 0 0 .25 4.486h1a.75.75 0 1 1 0 1.5h-2.5a.75.75 0 1 0 0 1.5H7v.25a.75.75 0 0 0 1.5 0v-.264A2.25 2.25 0 0 0 8.25 11h-1a.75.75 0 0 1 0-1.5h2.5a.75.75 0 0 0 0-1.5H8.5z" fill="#FFF" fill-rule="evenodd"/>
</svg>
