<svg width="61" height="61" viewBox="0 0 61 61" xmlns="http://www.w3.org/2000/svg">
    <g fill="none" fill-rule="evenodd">
        <path d="M0 0h61v61H0z"/>
        <g fill="#B8B8D2" fill-rule="nonzero">
            <path d="M52.434 15.144H9.045c-.497 0-.9.404-.9.902v27.252c0 .499.403.903.9.903h43.389c.497 0 .9-.404.9-.903V16.046a.901.901 0 0 0-.9-.902zm-.9 27.252H9.945V16.949h41.589v25.447z"/>
            <path d="M12.66 40.569h36.159c.497 0 .9-.41.9-.916V19.692a.908.908 0 0 0-.9-.916H12.66c-.497 0-.9.41-.9.916v19.961c0 .506.403.916.9.916zm16.65-1.832c.3-.483.828-.806 1.43-.806.601 0 1.13.323 1.429.806H29.31zm18.61 0h-1.26a2.373 2.373 0 0 1 1.26-1.281v1.281zm0-18.13v1.282a2.373 2.373 0 0 1-1.26-1.282h1.26zm-15.751 0c-.3.484-.828.806-1.43.806-.601 0-1.13-.322-1.429-.806h2.859zm-18.61 0h1.26a2.374 2.374 0 0 1-1.26 1.282v-1.282zm0 3.196c1.56-.353 2.792-1.607 3.14-3.196h10.668c.398 1.517 1.759 2.637 3.372 2.637 1.614 0 2.975-1.12 3.373-2.637H44.78c.347 1.59 1.58 2.843 3.14 3.196v11.738c-1.56.354-2.793 1.608-3.14 3.196H34.112c-.398-1.516-1.76-2.637-3.373-2.637-1.613 0-2.974 1.12-3.372 2.637H16.699c-.348-1.588-1.58-2.842-3.14-3.196V23.803zm0 13.653a2.373 2.373 0 0 1 1.26 1.281h-1.26v-1.281z"/>
            <path d="M17.782 36.861a.957.957 0 0 0 1.059-.213l5.288-5.37a.997.997 0 0 0 0-1.395l-5.288-5.37a.96.96 0 0 0-1.059-.214.986.986 0 0 0-.6.911v10.74c0 .4.237.759.6.911zm1.343-9.27 2.943 2.99-2.943 2.988v-5.978zM39.777 36.936c.5 0 .904-.433.904-.968v-1.695c0-.535-.405-.969-.904-.969s-.903.434-.903.969v1.695c0 .535.404.968.903.968zM39.777 31.488c.5 0 .904-.376.904-.84v-5.584c0-.464-.405-.84-.904-.84s-.903.376-.903.84v5.585c0 .463.404.84.903.84zM43.392 31.488a.908.908 0 0 0 0-1.816.908.908 0 0 0 0 1.816z"/>
        </g>
    </g>
</svg>
