<svg width="61" height="61" viewBox="0 0 61 61" xmlns="http://www.w3.org/2000/svg">
    <g fill="none" fill-rule="evenodd">
        <path d="M0 0h61v61H0z"/>
        <path d="M18.1 26.136v6.427a.918.918 0 1 1-1.836 0v-6.427a.918.918 0 1 1 1.837 0zm33.975 24.792a.918.918 0 0 1-.918.918H8.918a.918.918 0 1 1 0-1.836h1.837V20.626c0-.507.41-.918.918-.918h4.591V13.28c0-.507.411-.918.918-.918h7.387a.918.918 0 0 1 .574-1.235l2.585-.801 1.602-2.18a.919.919 0 0 1 1.49.014l1.56 2.21 2.57.85a.918.918 0 0 1 .589 1.142h7.354c.507 0 .918.411.918.918v6.428h4.592c.507 0 .918.411.918.918V50.01h1.836c.507 0 .918.41.918.918zm-25.17-38.425.055.078c.113.096.202.22.258.36l.698.97c.114.16.175.352.172.549l-.024 1.733 1.652-.527a.92.92 0 0 1 .574.006l1.642.558.009-1.733a.919.919 0 0 1 .183-.545l.712-.953a.92.92 0 0 1 .308-.442l-1.628-.538a.918.918 0 0 1-.462-.343l-1-1.416-1.026 1.397a.918.918 0 0 1-.468.333l-1.656.513zm-.54 30.62a4.137 4.137 0 0 0-4.132-4.132 4.137 4.137 0 0 0-4.132 4.132v6.887h8.264v-6.887zm15.61 0a4.137 4.137 0 0 0-4.132-4.132 4.137 4.137 0 0 0-4.132 4.132v6.887h8.264v-6.887zm5.51-21.579h-4.592a.918.918 0 0 1-.918-.918v-6.428h-7.743l-.456.611-.015 2.706a.918.918 0 0 1-1.214.864l-2.562-.871-2.578.822a.918.918 0 0 1-1.197-.887l.037-2.706-.387-.539H18.1v6.428a.918.918 0 0 1-.918.918h-4.59V50.01h3.672v-6.887a5.975 5.975 0 0 1 5.969-5.969 5.975 5.975 0 0 1 5.968 5.969v6.887h3.673v-6.887a5.975 5.975 0 0 1 5.969-5.969 5.975 5.975 0 0 1 5.968 5.969v6.887h3.673V21.544zm-5.51 4.592v6.427a.918.918 0 1 0 1.836 0v-6.427a.918.918 0 1 0-1.836 0zm-5.51-4.592a.918.918 0 0 0-.918.919v9.182a.918.918 0 1 0 1.837 0v-9.182a.918.918 0 0 0-.919-.919zm-6.427 0a.918.918 0 0 0-.918.919v9.182a.918.918 0 1 0 1.836 0v-9.182a.918.918 0 0 0-.918-.919zm-6.428 0a.918.918 0 0 0-.918.919v9.182a.918.918 0 1 0 1.836 0v-9.182a.918.918 0 0 0-.918-.919z" fill="#B8B8D2" fill-rule="nonzero"/>
    </g>
</svg>
