<svg width="61" height="61" viewBox="0 0 61 61" xmlns="http://www.w3.org/2000/svg">
    <g fill="none" fill-rule="evenodd">
        <path d="M0 0h61v61H0z"/>
        <g fill="#B8B8D2" fill-rule="nonzero">
            <path d="M47.335 25.511a10.302 10.302 0 0 0-4.025-3.355c.204-.52.317-1.083.317-1.671 0-1.852-1.124-3.52-2.84-4.278-.469-3.283-3.4-5.796-6.86-5.796a7.05 7.05 0 0 0-2.312.387 7.035 7.035 0 0 0-5.302-2.4c-2.56 0-4.89 1.363-6.094 3.52a7.123 7.123 0 0 0-1.521-.165c-3.822 0-6.931 3.014-6.931 6.718 0 1.874.796 3.57 2.077 4.79v23.77c0 3.128 2.625 5.673 5.851 5.673h14.62c3.226 0 5.85-2.545 5.85-5.672v-5.827a10.464 10.464 0 0 0 6.198-3.102c1.807-1.872 2.802-4.316 2.802-6.881a9.806 9.806 0 0 0-1.83-5.71zm-13.02 25.836h-14.62c-2.454 0-4.451-1.936-4.451-4.315v-22.74a7.052 7.052 0 0 0 3.453.898 7.05 7.05 0 0 0 4.586-1.688 4.922 4.922 0 0 0 3.722 1.688c1.598 0 3.06-.749 3.962-1.992.926.426 1.936.65 2.96.65.435 0 .88-.044 1.325-.13a4.891 4.891 0 0 0 3.513 1.472v21.842c0 2.379-1.996 4.315-4.45 4.315zm1.742-28.8-.283-.35-.445.112c-.474.12-.946.181-1.402.181a5.648 5.648 0 0 1-2.854-.776l-.646-.38-.34.655c-.593 1.137-1.774 1.843-3.082 1.843a3.479 3.479 0 0 1-3.015-1.716l-.484-.839-.653.723a5.607 5.607 0 0 1-4.156 1.832c-3.05 0-5.53-2.405-5.53-5.36 0-2.957 2.48-5.362 5.53-5.362.571 0 1.138.086 1.684.255l.604.187.252-.564c.878-1.964 2.87-3.233 5.075-3.233 1.781 0 3.465.844 4.503 2.257l.333.453.524-.227a5.633 5.633 0 0 1 2.255-.47c2.88 0 5.3 2.181 5.51 4.965l.033.445.435.147c1.389.468 2.322 1.737 2.322 3.16 0 1.845-1.55 3.347-3.454 3.347a3.474 3.474 0 0 1-2.716-1.285zm4.109 17.287V24.992a4.873 4.873 0 0 0 2.458-1.648c3.14 1.439 5.141 4.474 5.141 7.878 0 4.309-3.282 7.959-7.6 8.612z"/>
            <path d="M20.671 45.387V26.12h-1.196v19.267c0 .362-.262.656-.584.656-.323 0-.585-.294-.585-.656V26.12H17.11v19.267c0 1.103.799 2 1.78 2 .982 0 1.781-.897 1.781-2zM24.233 47.387c.982 0 1.781-.897 1.781-2V26.12h-1.196v19.267c0 .362-.262.656-.585.656-.322 0-.585-.294-.585-.656V26.12h-1.196v19.267c0 1.103.8 2 1.781 2zM29.576 47.387c.982 0 1.78-.897 1.78-2V26.12H30.16v19.267c0 .362-.262.656-.584.656-.323 0-.585-.294-.585-.656V26.12h-1.196v19.267c0 1.103.799 2 1.78 2zM35.503 45.387c0 .362-.262.656-.585.656-.322 0-.584-.294-.584-.656V26.12h-1.197v19.267c0 1.103.8 2 1.781 2 .982 0 1.781-.897 1.781-2V26.12h-1.196v19.267zM17.11 17.259h.898c0-.485.396-.879.883-.879v-.893c-.983 0-1.781.795-1.781 1.772zM20.671 49.159h14.247v1.772H20.671z"/>
        </g>
    </g>
</svg>
