<svg width="61" height="61" viewBox="0 0 61 61" xmlns="http://www.w3.org/2000/svg">
    <g fill="none" fill-rule="evenodd">
        <path d="M0 0h61v61H0z"/>
        <g fill="#B8B8D2" fill-rule="nonzero">
            <path d="M49.25 23.817v-3.763A3.058 3.058 0 0 0 46.196 17H34.122c-1.33 0-2.593.439-3.622 1.249A5.825 5.825 0 0 0 26.878 17H14.804a3.058 3.058 0 0 0-3.054 3.054v3.764A4.504 4.504 0 0 0 8 28.25a4.508 4.508 0 0 0 3.75 4.438V44H17v-1.5h27V44h5.25V32.688A4.508 4.508 0 0 0 53 28.25a4.504 4.504 0 0 0-3.75-4.433zm-36-3.763c0-.857.697-1.554 1.554-1.554h12.074c1.168 0 2.266.454 3.092 1.28l.53.53.53-.53a4.342 4.342 0 0 1 3.092-1.28h12.074c.857 0 1.554.697 1.554 1.554v3.758c-.017.003-.03.01-.047.012-.23.041-.455.1-.672.176l-.11.041a4.543 4.543 0 0 0-.624.29c-.027.015-.052.031-.078.047a4.542 4.542 0 0 0-.587.407l-.01.008a4.511 4.511 0 0 0-.508.501l-.05.056a4.53 4.53 0 0 0-.4.56l-.06.097c-.113.195-.211.4-.294.613l-.04.11a4.422 4.422 0 0 0-.188.675l-.013.089a4.491 4.491 0 0 0-.069.756v2.25H32.96c-.819 0-1.59.32-2.17.9l-.29.29-.29-.29a3.05 3.05 0 0 0-2.17-.9H17v-2.25c0-.258-.027-.51-.068-.755-.005-.03-.008-.06-.014-.09a4.412 4.412 0 0 0-.187-.675l-.041-.111a4.601 4.601 0 0 0-.295-.613 4.473 4.473 0 0 0-.459-.656c-.016-.02-.034-.037-.05-.056a4.576 4.576 0 0 0-.508-.502l-.01-.008a4.69 4.69 0 0 0-.586-.406l-.079-.047a4.375 4.375 0 0 0-.624-.29l-.11-.04a4.549 4.549 0 0 0-.672-.176c-.016-.003-.03-.01-.047-.013v-3.758zM44 34.25H17V32h11.04c.419 0 .813.163 1.11.46l1.35 1.35 1.35-1.35a1.56 1.56 0 0 1 1.11-.46H44v2.25zM13.25 42.5V28.25a.75.75 0 0 0-1.5 0v2.893A2.997 2.997 0 0 1 9.5 28.25c0-1.654 1.345-3 3-3 1.654 0 3 1.346 3 3V42.5h-2.25zm18-1.5v-2.25a.75.75 0 0 0-1.5 0V41H17v-5.25h27V41H31.25zm18-9.857V28.25a.75.75 0 0 0-1.5 0V42.5H45.5V28.25c0-1.654 1.346-3 3-3s3 1.346 3 3c0 1.393-.96 2.558-2.25 2.893z"/>
            <path d="M35.97 27.28a.748.748 0 0 0 1.06 0l.69-.69c.325.16.675.25 1.03.25s.705-.09 1.03-.249l.69.69a.75.75 0 0 0 1.06-1.061l-.689-.69c.32-.649.32-1.41 0-2.06l.69-.689a.75.75 0 1 0-1.061-1.06l-.69.69a2.339 2.339 0 0 0-2.06 0l-.69-.69a.75.75 0 1 0-1.061 1.06l.69.69c-.32.65-.32 1.41 0 2.06l-.69.69a.748.748 0 0 0 0 1.06zm3.375-3.375a.841.841 0 1 1-1.19 1.19.841.841 0 0 1 1.19-1.19zM19.47 27.28a.748.748 0 0 0 1.06 0l.69-.69c.325.16.675.25 1.03.25s.705-.09 1.03-.249l.69.69a.75.75 0 0 0 1.06-1.061l-.689-.69c.32-.649.32-1.41 0-2.06l.69-.689a.75.75 0 1 0-1.061-1.06l-.69.69a2.339 2.339 0 0 0-2.06 0l-.69-.69a.75.75 0 1 0-1.061 1.06l.69.69c-.32.65-.32 1.41 0 2.06l-.69.69a.748.748 0 0 0 0 1.06zm3.375-3.375a.841.841 0 1 1-1.19 1.19.841.841 0 0 1 1.19-1.19zM30.5 26.75a.75.75 0 0 0 .75-.75v-.75a.75.75 0 0 0-1.5 0V26c0 .414.336.75.75.75zM30.5 29.75a.75.75 0 0 0 .75-.75v-.75a.75.75 0 0 0-1.5 0V29c0 .414.336.75.75.75zM30.5 23.75a.75.75 0 0 0 .75-.75v-.75a.75.75 0 0 0-1.5 0V23c0 .414.336.75.75.75z"/>
        </g>
    </g>
</svg>
