<svg width="61" height="61" viewBox="0 0 61 61" xmlns="http://www.w3.org/2000/svg">
    <g fill="none" fill-rule="evenodd">
        <path d="M0 0h61v61H0z"/>
        <path d="M30.963 22.544c.606 0 1.098.492 1.098 1.099v.406a1.099 1.099 0 0 1-2.197 0v-.406c0-.607.492-1.099 1.099-1.099zm-21.38-11.96h6.92v7.933l-2.706 2.9a1.098 1.098 0 1 0 1.607 1.5L17.6 20.56l2.197 2.355a1.099 1.099 0 0 0 1.606-1.499l-2.705-2.9v-7.933h11.165v7.933l-2.705 2.9a1.099 1.099 0 0 0 1.607 1.5l2.197-2.356 2.196 2.355a1.096 1.096 0 0 0 1.553.054 1.099 1.099 0 0 0 .054-1.553l-2.705-2.9v-7.933h11.165v7.933l-2.705 2.9a1.098 1.098 0 1 0 1.606 1.5l2.197-2.356 2.197 2.355a1.099 1.099 0 0 0 1.607-1.499l-2.705-2.9v-7.933h6.918a1.099 1.099 0 0 0 0-2.197H9.583a1.099 1.099 0 1 0 0 2.197zm33.643 13.059v.406a1.099 1.099 0 0 0 2.197 0v-.406a1.099 1.099 0 0 0-2.197 0zm7.542 8.32v16.51h1.574a1.099 1.099 0 0 1 0 2.196h-7.463l.36 1.277a1.099 1.099 0 0 1-2.116.595l-.526-1.872h-6.073l-.526 1.872a1.099 1.099 0 0 1-2.115-.595l.359-1.277h-6.559l.359 1.277a1.099 1.099 0 0 1-2.115.595l-.526-1.872h-6.073l-.527 1.872a1.098 1.098 0 1 1-2.115-.595l.36-1.277H9.583a1.099 1.099 0 1 1 0-2.197h1.573V31.963H9.583a1.099 1.099 0 1 1 0-2.197h4.247v-1.574a1.099 1.099 0 1 1 2.197 0v1.574h2.775a1.099 1.099 0 0 1 1.013-1.525h3.7a1.099 1.099 0 0 1 1.013 1.525h27.813a1.099 1.099 0 0 1 0 2.197h-1.573zm-25.985 16.51-2.118-7.532h-.601l-2.118 7.531h4.837zm-3.577-9.729H26.005v-1.83h-7.281v1.83h2.482zm20.773 9.728-2.118-7.53h-.6l-2.119 7.53h4.837zm-3.576-9.728H43.202v-1.83H35.92v1.83h2.483zm10.168-6.78H13.355v16.508h4.308l2.118-7.53h-2.156a1.099 1.099 0 0 1-1.099-1.1v-4.027c0-.607.492-1.098 1.099-1.098h9.479c.606 0 1.098.491 1.098 1.098v4.028c0 .607-.492 1.098-1.098 1.098h-2.157l2.118 7.531h7.795l2.118-7.53H34.82a1.099 1.099 0 0 1-1.098-1.1v-4.027c0-.607.492-1.098 1.098-1.098H44.3c.607 0 1.099.491 1.099 1.098v4.028c0 .607-.492 1.098-1.099 1.098h-2.157l2.118 7.531h4.31V31.963zm-32.069-8.321v.406a1.099 1.099 0 1 0 2.198 0v-.406a1.099 1.099 0 1 0-2.198 0z" fill="#B8B8D2" fill-rule="nonzero"/>
    </g>
</svg>
