<svg width="61" height="61" viewBox="0 0 61 61" xmlns="http://www.w3.org/2000/svg">
    <g fill="none" fill-rule="evenodd">
        <path d="M0 0h61v61H0z"/>
        <g fill="#B8B8D2" fill-rule="nonzero">
            <path d="M11.552 8.556h5.39v1.825h-5.39zM24.128 10.381h1.797v1.825h-1.797zM22.331 8.556h3.593v1.825h-3.593z"/>
            <path d="M50.766 23.636v-5.042a2.14 2.14 0 0 0-1.404-2.02v-3.021h1.419v-1.406h-4.214v1.406h1.42v3.021a2.14 2.14 0 0 0-1.405 2.02v5.042h-2.136v-5.042a2.14 2.14 0 0 0-1.404-2.02v-3.021h1.419v-1.406h-4.214v1.406h1.42v3.021a2.14 2.14 0 0 0-1.405 2.02v5.042h-2.136v-5.042a2.14 2.14 0 0 0-1.405-2.02v-3.021h1.42v-1.406h-4.214v1.406h1.42v3.021a2.14 2.14 0 0 0-1.405 2.02v5.042h-5.647v-11.49h-.688a.726.726 0 0 1-.717-.732v-.704h-5.589v.704a.726.726 0 0 1-.716.733h-.688v11.489h-1.434v-8.719l-1.555-6.36h-3.883l-1.555 6.36v8.719H7.959v4.996h44.914v-4.996h-2.107zm-2.809-5.042c0-.404.322-.733.717-.733.395 0 .717.33.717.733v5.042h-1.434v-5.042zm-6.32 0c0-.404.321-.733.717-.733.395 0 .717.33.717.733v5.042h-1.434v-5.042zm-6.32 0c0-.404.321-.733.717-.733.395 0 .716.33.716.733v5.042h-1.433v-5.042zm-14.045-5.16a2.127 2.127 0 0 0 1.288-1.317h3.07c.21.615.688 1.103 1.29 1.317v3.74h-5.648v-3.74zm0 5.145h5.647v2.185h-5.647v-2.185zm0 3.59h5.647v1.467h-5.647V22.17zm-8.427-7.079L14.1 9.963h1.735l1.254 5.127v2.083h-4.243V15.09zm0 3.49h4.243v1.465h-4.243V18.58zm0 2.872h4.243v2.184h-4.243v-2.184zm38.653 5.774H9.334v-2.184h42.164v2.184zM34.907 30.457h5.39v1.825h-5.39zM43.89 30.457h5.39v1.825h-5.39zM49.362 37.698h-1.405v-3.59h-4.184v3.59h-1.405v11.49h-1.433v-11.49H39.53v-3.59h-4.184v3.59h-1.405v11.49H26.89v-5.042a2.14 2.14 0 0 0-1.405-2.02v-3.022h1.42v-1.406H22.69v1.406h1.42v3.022a2.14 2.14 0 0 0-1.405 2.02v5.041H20.57v-5.041a2.14 2.14 0 0 0-1.405-2.02v-3.022h1.42v-1.406H16.37v1.406h1.42v3.022a2.14 2.14 0 0 0-1.405 2.02v5.041H14.25v-5.041a2.14 2.14 0 0 0-1.405-2.02v-3.022h1.42v-1.406H10.05v1.406h1.419v3.022a2.14 2.14 0 0 0-1.405 2.02v5.041H7.96v4.997h44.914v-4.997h-3.511V37.698zm-5.618 1.406h1.404v-3.59h1.434v3.59h1.404v1.466h-4.242v-1.466zm0 2.873h4.242v7.21h-4.242v-7.21zm-8.427-2.873h1.404v-3.59h1.434v3.59h1.404v4.621a2.764 2.764 0 0 0-2.12-1c-.849 0-1.61.388-2.122 1v-4.62zm3.54 6.478c0 .8-.636 1.45-1.419 1.45-.782 0-1.42-.65-1.42-1.45 0-.8.637-1.451 1.42-1.451.783 0 1.42.65 1.42 1.45zm-3.54 1.856c.513.612 1.273 1.001 2.121 1.001.848 0 1.609-.389 2.122-1v1.748h-4.243v-1.749zM24.08 44.146c0-.405.321-.733.717-.733.395 0 .717.328.717.733v5.041H24.08v-5.041zm-6.32 0c0-.405.321-.733.717-.733.395 0 .717.328.717.733v5.041H17.76v-5.041zm-6.32 0c0-.405.321-.733.717-.733.395 0 .716.328.716.733v5.041h-1.433v-5.041zm40.056 6.447v2.184H9.334v-2.184h42.163z"/>
        </g>
    </g>
</svg>
