<svg width="61" height="61" viewBox="0 0 61 61" xmlns="http://www.w3.org/2000/svg">
    <g fill="none" fill-rule="evenodd">
        <path d="M0 0h61v61H0z"/>
        <g transform="translate(8 8)" fill="#B8B8D2" fill-rule="nonzero">
            <path d="M27.335 14.87H20.49c-2.022 0-3.666 1.663-3.666 3.709 0 4.693.421 6.704.91 9.033l.128.616c.383 1.854.817 3.956 1.13 7.238.036.38.352.67.73.67h8.381c.378 0 .694-.29.73-.67.313-3.282.747-5.384 1.13-7.238l.129-.616c.488-2.329.91-4.34.91-9.033 0-2.046-1.645-3.71-3.667-3.71zm1.322 12.434-.129.62c-.364 1.763-.774 3.745-1.088 6.729h-7.055c-.314-2.984-.723-4.966-1.088-6.729l-.129-.62c-.423-2.017-.769-3.67-.856-6.994h11.202c-.088 3.324-.434 4.977-.857 6.994zm.877-8.478H18.291v-.247c0-1.227.986-2.226 2.2-2.226h6.844c1.213 0 2.2.999 2.2 2.226v.247z"/>
            <circle cx="12.393" cy="19.3" r="1"/>
            <circle cx="35.432" cy="33.478" r="1"/>
            <circle cx="8.848" cy="22.844" r="1"/>
            <path d="M44.473 4.933a.707.707 0 1 0 0-1.414H2.994a.708.708 0 0 1 0-1.414h41.479a.707.707 0 1 0 0-1.414H2.994c-1.17 0-2.12.952-2.12 2.121 0 1.17.95 2.121 2.12 2.121H6.53v5.657H1.58a.707.707 0 0 0-.707.707v30.166c0 .39.317.707.707.707H12.01a22.874 22.874 0 0 0 22.037 0h10.427c.39 0 .707-.317.707-.707V11.297a.707.707 0 0 0-.707-.707h-4.95V4.933h4.95zm-36.53 0H38.11v5.657h-4.061A22.876 22.876 0 0 0 23.026 7.76c-3.856 0-7.662.978-11.02 2.829H7.943V4.933zM2.287 39.756V13.003l1.414 1.414v10.548a.707.707 0 1 0 1.414 0V14.832h7.814c.121 0 .24-.032.347-.091l.645-.363a18.62 18.62 0 0 1 9.105-2.374c3.193 0 6.342.82 9.106 2.374l.645.363c.106.06.225.09.347.09h7.813v23.097h-7.814a.707.707 0 0 0-.347.09l-.645.363a18.62 18.62 0 0 1-9.105 2.375 18.62 18.62 0 0 1-9.103-2.375l-.645-.363a.707.707 0 0 0-.346-.09H5.115V27.794a.707.707 0 1 0-1.414 0v10.548l-1.414 1.414zm31.576 1a.706.706 0 0 0-.347.09 21.455 21.455 0 0 1-10.49 2.738c-3.674 0-7.3-.947-10.488-2.738a.707.707 0 0 0-.346-.09H3.287l1.414-1.414h8.046l.484.272a20.037 20.037 0 0 0 9.795 2.556c3.434 0 6.822-.884 9.798-2.556l.484-.272h8.044l1.414 1.414h-8.903zm9.903-1-1.414-1.414V14.418l1.414-1.414v26.752zm-1-27.752-1.414 1.414h-8.043l-.484-.272a20.037 20.037 0 0 0-9.799-2.557c-3.434 0-6.822.884-9.798 2.557l-.484.272H4.701l-1.414-1.414h8.902c.121 0 .24-.032.346-.091a21.455 21.455 0 0 1 10.491-2.737c3.678 0 7.305.946 10.492 2.737.105.06.225.09.346.09h8.902z"/>
        </g>
    </g>
</svg>
