<svg width="61" height="61" viewBox="0 0 61 61" xmlns="http://www.w3.org/2000/svg">
    <g fill="none" fill-rule="evenodd">
        <path d="M0 0h61v61H0z"/>
        <g fill="#B8B8D2" fill-rule="nonzero">
            <path d="M54.444 30.505H6.301a.805.805 0 0 0-.806.804v3.433c0 .444.36.804.806.804h.053v14.642c0 .444.361.804.806.804h11.23v1.824h-1.773a.805.805 0 1 0 0 1.609h5.158a.805.805 0 1 0 0-1.61h-1.773v-1.823h20.74v1.824H38.97a.805.805 0 1 0 0 1.609h5.158a.805.805 0 1 0 0-1.61h-1.773v-1.823h11.23c.445 0 .806-.36.806-.804V35.546h.053c.445 0 .806-.36.806-.804v-3.433a.805.805 0 0 0-.806-.804zM18.39 49.383H7.966V35.546h5.617l1.089 4.891a2.51 2.51 0 0 0 2.465 1.974h1.253v6.972zm-1.253-8.58a.908.908 0 0 1-.892-.715l-.247-1.11h6.637c.504 0 .914.41.914.912 0 .503-.41.912-.914.912h-5.498zm23.606 5.148H38.11a.805.805 0 1 0 0 1.609h2.633v1.823h-20.74V47.56h2.632a.805.805 0 1 0 0-1.609h-2.633v-3.54h2.633a2.526 2.526 0 0 0 2.526-2.52c0-1.39-1.133-2.521-2.526-2.521h-6.878a.81.81 0 0 0-.115.008l-.408-1.832H45.51l-.408 1.832a.808.808 0 0 0-.116-.008H38.11a2.526 2.526 0 0 0-2.526 2.52c0 1.39 1.133 2.521 2.526 2.521h2.633v3.54zm-2.633-5.149a.914.914 0 0 1-.914-.912c0-.502.41-.911.914-.911h6.637l-.247 1.11a.908.908 0 0 1-.892.713H38.11zm14.669 8.581H42.355v-6.972h1.253a2.51 2.51 0 0 0 2.465-1.974l1.09-4.89h5.616v13.836zm.86-15.446H47.51a.806.806 0 0 0-1.59-.228l-.05.228H14.875l-.051-.228a.806.806 0 0 0-1.59.228H7.107v-1.823h46.531v1.823zM54.444 8.76H6.301c-.445 0-.806.402-.806.898v3.836c0 .496.36.898.806.898h9.51v3.084c-1.956.42-3.439 2.344-3.439 4.647 0 .497.361.9.806.9h2.633v.06c0 .496.361.898.806.898.445 0 .806-.402.806-.899v-.06h2.633c.445 0 .806-.402.806-.899 0-2.303-1.482-4.226-3.439-4.647v-3.084h12.144v3.084c-1.957.42-3.44 2.344-3.44 4.647 0 .497.362.9.807.9h2.633v.06c0 .496.36.898.805.898.446 0 .806-.402.806-.899v-.06h2.633c.445 0 .806-.402.806-.899 0-2.303-1.482-4.226-3.439-4.647v-3.084h12.144v3.084c-1.957.42-3.439 2.344-3.439 4.647 0 .497.36.9.806.9h2.633v.06c0 .496.36.898.806.898.445 0 .806-.402.806-.899v-.06h2.633c.445 0 .806-.402.806-.899 0-2.303-1.483-4.226-3.44-4.647v-3.084h9.511c.445 0 .806-.402.806-.898V9.658c0-.496-.36-.899-.806-.899zm-35.32 12.464H14.11c.342-1.18 1.336-2.037 2.507-2.037 1.17 0 2.166.856 2.507 2.037zm13.755 0h-5.013c.341-1.18 1.336-2.037 2.506-2.037 1.171 0 2.166.856 2.507 2.037zm13.756 0H41.62c.341-1.18 1.336-2.037 2.507-2.037 1.17 0 2.165.856 2.507 2.037zm7.003-8.63H7.107v-2.037h46.531v2.038z"/>
        </g>
    </g>
</svg>
