<svg width="61" height="61" viewBox="0 0 61 61" xmlns="http://www.w3.org/2000/svg">
    <g fill="none" fill-rule="evenodd">
        <path d="M0 0h61v61H0z"/>
        <g fill="#B8B8D2" fill-rule="nonzero">
            <path d="M51.147 18.882h-2.2c-.292-1.797-1.84-3.173-3.7-3.173h-9.629c-1.397 0-2.534-1.148-2.534-2.56v-1.535a.611.611 0 0 0-.608-.614.611.611 0 0 0-.608.614v1.536c0 2.088 1.682 3.787 3.75 3.787h9.629c1.187 0 2.186.83 2.46 1.945H31.107v-7.268A.611.611 0 0 0 30.5 11a.611.611 0 0 0-.608.614v7.268H13.294a2.543 2.543 0 0 1 2.46-1.945h9.628c2.068 0 3.75-1.699 3.75-3.787v-1.536a.611.611 0 0 0-.608-.614.611.611 0 0 0-.608.614v1.536c0 1.41-1.137 2.559-2.534 2.559h-9.629c-1.86 0-3.408 1.376-3.7 3.173h-2.2c-1.022 0-1.853.84-1.853 1.872v27.374C8 49.16 8.831 50 9.853 50h41.294C52.169 50 53 49.16 53 48.128V20.754a1.865 1.865 0 0 0-1.853-1.872zM9.853 20.11h41.294c.351 0 .637.289.637.644v5.089H9.216v-5.09c0-.354.286-.643.637-.643zm41.294 28.662H9.853a.641.641 0 0 1-.637-.644V27.071h42.568v21.057a.641.641 0 0 1-.637.644z"/>
            <path d="M23.86 42.12a7.73 7.73 0 0 0 2.245-5.474 7.73 7.73 0 0 0-2.245-5.474 7.578 7.578 0 0 0-5.42-2.268 7.578 7.578 0 0 0-5.42 2.267 7.73 7.73 0 0 0-2.246 5.475 7.73 7.73 0 0 0 2.245 5.475 7.578 7.578 0 0 0 5.42 2.267 7.578 7.578 0 0 0 5.421-2.267zm-9.981-.868a6.504 6.504 0 0 1-1.89-4.606c0-1.74.672-3.376 1.89-4.606a6.375 6.375 0 0 1 4.56-1.908A6.375 6.375 0 0 1 23 32.04a6.504 6.504 0 0 1 1.89 4.606 6.504 6.504 0 0 1-1.48 4.151l-2.99-3.019c.193-.341.297-.728.297-1.132 0-.614-.237-1.192-.667-1.626a2.251 2.251 0 0 0-1.61-.674c-.609 0-1.18.24-1.61.674a2.296 2.296 0 0 0-.668 1.626c0 .615.237 1.192.667 1.627a2.25 2.25 0 0 0 2.732.374l2.989 3.019a6.362 6.362 0 0 1-4.11 1.494 6.375 6.375 0 0 1-4.561-1.908zm5.31-3.848a1.055 1.055 0 0 1-1.5 0 1.07 1.07 0 0 1-.31-.758 1.07 1.07 0 0 1 1.06-1.072 1.07 1.07 0 0 1 1.061 1.072c0 .286-.11.555-.31.758zM42.56 28.904a7.578 7.578 0 0 0-5.42 2.267 7.73 7.73 0 0 0-2.245 5.475 7.73 7.73 0 0 0 2.245 5.474 7.578 7.578 0 0 0 5.42 2.268 7.578 7.578 0 0 0 5.421-2.267 7.73 7.73 0 0 0 2.245-5.475 7.73 7.73 0 0 0-2.245-5.475 7.578 7.578 0 0 0-5.42-2.267zm4.561 12.348a6.375 6.375 0 0 1-4.56 1.908A6.375 6.375 0 0 1 38 41.252a6.504 6.504 0 0 1-1.89-4.606c0-1.74.672-3.376 1.89-4.606a6.375 6.375 0 0 1 4.56-1.908c1.519 0 2.957.527 4.11 1.494l-2.988 3.02a2.251 2.251 0 0 0-2.732.374 2.297 2.297 0 0 0-.667 1.626c0 .615.237 1.192.667 1.627.43.434 1.002.673 1.61.673.609 0 1.18-.239 1.61-.673.431-.435.668-1.012.668-1.627 0-.404-.104-.79-.296-1.132l2.989-3.02a6.503 6.503 0 0 1 1.48 4.152c0 1.74-.672 3.376-1.89 4.606zm-3.81-5.364c.2.203.31.472.31.758 0 .286-.11.556-.31.758a1.055 1.055 0 0 1-1.5 0 1.07 1.07 0 0 1-.312-.758c0-.286.11-.555.311-.758.2-.202.467-.314.75-.314.284 0 .55.112.75.314zM26.142 29.118h8.716a.611.611 0 0 0 .608-.614.611.611 0 0 0-.608-.614h-8.716a.611.611 0 0 0-.608.614c0 .34.272.614.608.614zM33.591 30.592H27.41a.611.611 0 0 0-.608.614c0 .34.272.614.608.614h6.182a.611.611 0 0 0 .608-.614.611.611 0 0 0-.608-.614zM33.084 33.294h-5.168a.611.611 0 0 0-.609.615c0 .339.273.614.609.614h5.168a.611.611 0 0 0 .609-.614.611.611 0 0 0-.609-.615zM33.084 41.402h-5.168a.611.611 0 0 0-.609.614c0 .339.273.614.609.614h5.168a.611.611 0 0 0 .609-.614.611.611 0 0 0-.609-.614zM28.169 37.225h4.662a.611.611 0 0 0 .608-.614.611.611 0 0 0-.608-.614H28.17a.611.611 0 0 0-.608.614c0 .34.272.614.608.614zM28.169 39.928h4.662a.611.611 0 0 0 .608-.615.611.611 0 0 0-.608-.614H28.17a.611.611 0 0 0-.608.614c0 .34.272.615.608.615zM12.054 44.984a.611.611 0 0 0-.608.614v1.843c0 .34.272.614.608.614a.611.611 0 0 0 .608-.614v-1.843a.611.611 0 0 0-.608-.614zM14.486 44.984a.611.611 0 0 0-.608.614v1.843c0 .34.273.614.608.614a.611.611 0 0 0 .609-.614v-1.843a.611.611 0 0 0-.609-.614zM23.54 44.984a.611.611 0 0 0-.608.614v1.843c0 .34.273.614.609.614a.611.611 0 0 0 .608-.614v-1.843a.611.611 0 0 0-.608-.614zM25.973 44.984a.611.611 0 0 0-.608.614v1.843c0 .34.272.614.608.614a.611.611 0 0 0 .608-.614v-1.843a.611.611 0 0 0-.608-.614zM46.514 44.984a.611.611 0 0 0-.609.614v1.843c0 .34.273.614.609.614a.611.611 0 0 0 .608-.614v-1.843a.611.611 0 0 0-.608-.614zM48.946 44.984a.611.611 0 0 0-.608.614v1.843c0 .34.272.614.608.614a.611.611 0 0 0 .608-.614v-1.843a.611.611 0 0 0-.608-.614zM35.027 44.984a.611.611 0 0 0-.608.614v1.843c0 .34.272.614.608.614a.611.611 0 0 0 .608-.614v-1.843a.611.611 0 0 0-.608-.614zM37.46 44.984a.611.611 0 0 0-.609.614v1.843c0 .34.273.614.608.614a.611.611 0 0 0 .609-.614v-1.843a.611.611 0 0 0-.609-.614zM12.246 25.104c1.173 0 2.128-.964 2.128-2.15 0-1.184-.955-2.149-2.128-2.149-1.174 0-2.129.965-2.129 2.15s.955 2.15 2.129 2.15zm0-3.07c.503 0 .912.413.912.92 0 .509-.41.922-.912.922a.918.918 0 0 1-.912-.921c0-.508.409-.921.912-.921zM17.215 25.104c1.174 0 2.129-.964 2.129-2.15 0-1.184-.955-2.149-2.129-2.149-1.173 0-2.128.965-2.128 2.15s.955 2.15 2.128 2.15zm0-3.07c.503 0 .912.413.912.92 0 .509-.409.922-.912.922a.918.918 0 0 1-.912-.921c0-.508.41-.921.912-.921zM30.29 25.104c1.173 0 2.128-.964 2.128-2.15 0-1.184-.955-2.149-2.128-2.149-1.174 0-2.129.965-2.129 2.15s.955 2.15 2.129 2.15zm0-3.07c.503 0 .912.413.912.92 0 .509-.41.922-.912.922a.918.918 0 0 1-.913-.921c0-.508.41-.921.913-.921zM48.135 25.258h1.824a.611.611 0 0 0 .609-.614v-3.378a.611.611 0 0 0-.609-.614h-1.824a.611.611 0 0 0-.608.614v3.378c0 .339.272.614.608.614zm.608-3.378h.608v2.15h-.608v-2.15zM36.784 25.258h1.824a.611.611 0 0 0 .608-.614v-3.378a.611.611 0 0 0-.608-.614h-1.824a.611.611 0 0 0-.608.614v3.378c0 .339.272.614.608.614zm.608-3.378H38v2.15h-.608v-2.15zM44.351 25.258h1.825a.611.611 0 0 0 .608-.614v-3.378a.611.611 0 0 0-.608-.614H44.35a.611.611 0 0 0-.608.614v3.378c0 .339.273.614.608.614zm.608-3.378h.609v2.15h-.609v-2.15zM40.568 25.258h1.824a.611.611 0 0 0 .608-.614v-3.378a.611.611 0 0 0-.608-.614h-1.824a.611.611 0 0 0-.609.614v3.378c0 .339.273.614.609.614zm.608-3.378h.608v2.15h-.608v-2.15z"/>
        </g>
    </g>
</svg>
