<svg width="61" height="61" viewBox="0 0 61 61" xmlns="http://www.w3.org/2000/svg">
    <g fill="none" fill-rule="evenodd">
        <path d="M0 0h61v61H0z"/>
        <g fill="#B8B8D2" fill-rule="nonzero">
            <path d="M26.602 38.858a4.471 4.471 0 0 0-1.244-3.115 4.193 4.193 0 0 0-3.015-1.29 4.193 4.193 0 0 0-3.014 1.29 4.472 4.472 0 0 0-1.245 3.115 4.471 4.471 0 0 0 1.245 3.114c.8.826 1.883 1.29 3.014 1.29a4.193 4.193 0 0 0 3.015-1.29 4.472 4.472 0 0 0 1.244-3.114zM49.363 22.945l-6.853 2.063v5.234a2.023 2.023 0 0 0-1.668.226c-.5.315-.85.833-.96 1.427a2.2 2.2 0 0 0 .377 1.692c.35.484.883.793 1.467.851a2.04 2.04 0 0 0 1.596-.548 2.18 2.18 0 0 0 .68-1.589v-6.137L47.87 25v3.202a2.025 2.025 0 0 0-1.668.226c-.5.315-.849.833-.96 1.427a2.199 2.199 0 0 0 .377 1.692c.351.485.883.793 1.467.851a2.039 2.039 0 0 0 1.596-.548c.434-.407.68-.984.68-1.589v-7.316z"/>
            <path d="M28.423 42.42a89.44 89.44 0 0 1-1.105 6.877c-.16.807.107 1.642.704 2.19.597.55 1.431.728 2.19.47a2.287 2.287 0 0 0 1.49-1.72 94.34 94.34 0 0 0 1.85-18.595V21.57c0-.317.095-.627.272-.886.178-.26.428-.457.717-.564l14.068-5.21v.001c1.003-.372 1.739-1.268 1.928-2.352a3.138 3.138 0 0 0-1.007-2.9 2.913 2.913 0 0 0-2.938-.55l-17.013 6.3c-.326.12-.682.12-1.008 0l-14.162-5.245a2.913 2.913 0 0 0-2.938.55 3.138 3.138 0 0 0-1.008 2.901c.19 1.084.925 1.98 1.93 2.352l11.215 4.153c.29.107.54.304.717.564.177.26.272.569.272.886v4.289c0 .536-.27 1.033-.712 1.313-.443.28-.994.303-1.457.06l-8.056-4.224a2.18 2.18 0 0 0-2.236.124 2.336 2.336 0 0 0-1.014 2.06 2.317 2.317 0 0 0 1.221 1.938l11.25 5.9a9.099 9.099 0 0 1 3.855 3.907 9.5 9.5 0 0 1 .976 5.484z"/>
        </g>
    </g>
</svg>
