<svg width="61" height="61" viewBox="0 0 61 61" xmlns="http://www.w3.org/2000/svg">
    <g fill="none" fill-rule="evenodd">
        <path d="M0 0h61v61H0z"/>
        <g fill="#B8B8D2" fill-rule="nonzero">
            <path d="m35.44 8.927-7.561 2.221v5.636a2.28 2.28 0 0 0-1.84.244 2.323 2.323 0 0 0-.643 3.359 2.284 2.284 0 0 0 3.38.326 2.32 2.32 0 0 0 .75-1.712v-6.608l4.267-1.254v3.448a2.28 2.28 0 0 0-1.84.244 2.325 2.325 0 0 0-.643 3.359 2.284 2.284 0 0 0 3.38.326 2.32 2.32 0 0 0 .75-1.711V8.927zM10.733 25.522c-.873 0-1.711.35-2.33.972a3.331 3.331 0 0 0-.964 2.347v19.913c0 .88.347 1.725.965 2.347a3.283 3.283 0 0 0 2.33.972h39.533c.873 0 1.711-.35 2.33-.972a3.332 3.332 0 0 0 .964-2.347V28.841c0-.88-.347-1.725-.965-2.347a3.282 3.282 0 0 0-2.33-.972H10.734zm6.59 4.978h1.647v4.978h1.647v3.32H18.97v8.297h-1.648v-8.298h-1.647v-3.319h1.647V30.5zm8.235 0h1.648v9.957h1.647v3.319h-1.647v3.319h-1.648v-3.32h-1.647v-3.318h1.647V30.5zm8.236 0h1.648v11.616h1.647v3.32h-1.647v1.659h-1.648v-1.66h-1.647v-3.319h1.647V30.5zm8.236 0h1.648v6.638h1.647v3.319h-1.647v6.638H42.03v-6.638h-1.647v-3.32h1.647V30.5z"/>
        </g>
    </g>
</svg>
