<svg width="61" height="61" viewBox="0 0 61 61" xmlns="http://www.w3.org/2000/svg">
    <g fill="none" fill-rule="evenodd">
        <path d="M0 0h61v61H0z"/>
        <g fill="#B8B8D2" fill-rule="nonzero">
            <path d="M9.728 27.557a1.24 1.24 0 0 0-1.165.75c-.199.464-.095 1 .261 1.358l7.477 7.495-8.477 9.446a1.488 1.488 0 0 0 .506 2.363c.439.194.944.167 1.36-.073l13.887-7.947a1.696 1.696 0 0 1 1.856.112 17.843 17.843 0 0 0 8.258 3.38 3.265 3.265 0 0 0 3.224-1.509 6.982 6.982 0 0 1-4.201-1.896 6.927 6.927 0 0 1-2.092-4.091h18.6l4.339-8.715-22.888 6.534a6.93 6.93 0 0 1 2.12-3.836 6.98 6.98 0 0 1 4.005-1.808 2.736 2.736 0 0 0-1.26-1.25 2.755 2.755 0 0 0-1.764-.217 14.324 14.324 0 0 0-7.531 4.238 1.69 1.69 0 0 1-1.766.451l-14.383-4.72a1.254 1.254 0 0 0-.367-.065h.001zm9.246 6.22h1.647v5.74h-1.647v-5.74zM27.882 21.858v-6.53l4.267-1.239v3.407a2.301 2.301 0 0 0-1.84.241 2.276 2.276 0 0 0-.643 3.32 2.299 2.299 0 0 0 3.38.321c.477-.433.75-1.047.75-1.69v-7.786l-7.561 2.196v5.57a2.302 2.302 0 0 0-1.84.24 2.277 2.277 0 0 0-.643 3.319 2.3 2.3 0 0 0 3.38.322 2.28 2.28 0 0 0 .75-1.69z"/>
            <path d="m46.774 26.756.454 1.576 1.583-.452-.454-1.576zM49.94 25.852l.454 1.576 1.583-.452-.453-1.576zM48.165 38.585h-1.647v1.64h1.647zM44.871 38.585h-1.647v1.64h1.647z"/>
        </g>
    </g>
</svg>
