<?xml version="1.0" encoding="UTF-8"?>
<svg width="61px" height="61px" viewBox="0 0 61 61" version="1.1" xmlns="http://www.w3.org/2000/svg" xmlns:xlink="http://www.w3.org/1999/xlink">
    <title>9CA74B83-38C4-47B5-BAFE-0F016297D68F</title>
    <g id="UI-Designs" stroke="none" stroke-width="1" fill="none" fill-rule="evenodd">
        <g id="Party-Preferences-Music" transform="translate(-270.000000, -196.000000)">
            <g id="Group-3" transform="translate(270.000000, 196.000000)">
                <polygon id="Background-Copy-16" points="0 0 61 0 61 61 0 61"></polygon>
                <g id="noun-rhythm-and-blues-2119158" transform="translate(16.365854, 7.440503)" fill="#B8B8D2" fill-rule="nonzero">
                    <path d="M25.0113492,9.99991876 L25.0113492,3.44042273 L29.5081549,2.19616291 L29.5081549,5.61851276 L29.5081549,5.6181451 C28.8545231,5.43614186 28.1504639,5.52401848 27.5685255,5.86007876 C26.9869541,6.19650613 26.5816802,6.75023422 26.4526559,7.38483591 C26.3236317,8.01945642 26.4828777,8.67653554 26.8908703,9.19385545 C27.2992489,9.71155188 27.9183631,10.0417292 28.596415,10.1031374 C29.2744571,10.16454 29.9486506,9.95165006 30.4523293,9.51704862 C30.9564048,9.08208009 31.2439024,8.46584251 31.2439024,7.819475 L31.2439024,0 L23.2755024,2.20501025 L23.2755024,7.79895539 L23.2755024,7.79858773 C22.6218706,7.6165845 21.9175139,7.70409402 21.3358731,8.04052139 C20.7542323,8.37694876 20.3490278,8.93030976 20.2200035,9.56527854 C20.0909792,10.1998991 20.2498374,10.8566017 20.6582179,11.3742981 C21.0662096,11.8916274 21.6853139,12.2218048 22.3637626,12.2835801 C23.0418046,12.3449826 23.7156014,12.1320927 24.2196769,11.6974913 C24.7237524,11.2625227 25.01125,10.6462851 25.01125,9.99991763 L25.0113492,9.99991876 Z" id="Path"></path>
                    <path d="M5.20739146,6.58876998 C3.82649044,6.58876998 2.50182924,7.10940315 1.52541854,8.0363433 C0.548640846,8.96290694 0,10.2199868 0,11.5304176 L5.20739146,11.5304176 L5.20739146,13.1776335 L0,13.1776335 L0,17.2956732 L5.20739146,17.2956732 L5.20739146,18.9428891 L0,18.9428891 L0,23.0609288 L5.20739146,23.0609288 L5.20739146,24.7081447 L0,24.7081447 C0,26.0189521 0.548630927,27.2756366 1.52541854,28.2025956 C2.5018094,29.1291592 3.82649044,29.6497924 5.20739146,29.6497924 L6.94318862,29.6497924 L6.94318862,31.4032772 C5.94237757,31.648157 5.10859981,32.3037301 4.6687984,33.191683 C4.22903667,34.0792688 4.22903667,35.1069715 4.6687984,35.9944915 C5.10856013,36.8820773 5.94237757,37.5379798 6.94318862,37.7828973 L6.94318862,46.1219512 L8.67898577,46.1219512 L8.67898577,37.7828973 C9.67979682,37.5380174 10.5135746,36.8820773 10.953376,35.9944915 C11.3931377,35.1069056 11.3931377,34.0792029 10.953376,33.191683 C10.5136143,32.3037301 9.67979682,31.6481947 8.67898577,31.4032772 L8.67898577,29.6501689 L10.4147829,29.6501689 L10.4147829,29.6498012 C11.7960807,29.6498012 13.1203452,29.129168 14.0971526,28.2026044 C15.0735435,27.2756737 15.6221744,26.0189609 15.6221744,24.7081536 L10.4147829,24.7081536 L10.4147829,23.0609377 L15.6221744,23.0609377 L15.6221744,18.942898 L10.4147829,18.942898 L10.4147829,17.2956821 L15.6221744,17.2956821 L15.6221744,13.1776424 L10.4147829,13.1776424 L10.4147829,11.5304265 L15.6221744,11.5304265 C15.6221744,10.2199956 15.0735435,8.96293461 14.0971526,8.03635215 C13.1203749,7.10942141 11.7960807,6.58876998 10.4147829,6.58876998 L5.20739146,6.58876998 Z M7.76030273,32.9442241 C8.2295135,32.9313551 8.68399479,33.0990154 9.02068984,33.4093414 C9.3573849,33.7196675 9.54724143,34.146174 9.54685518,34.5914777 C9.54452992,35.1786678 9.21325422,35.7202441 8.67702184,36.0132603 C8.1411763,36.3059376 7.48090882,36.3059376 6.94509304,36.0132603 C6.40886066,35.7202159 6.07758129,35.1786207 6.07526029,34.5914777 C6.07526029,34.1627591 6.25116101,33.7509552 6.56577672,33.4436035 C6.8800056,33.1358565 7.30891612,32.95679 7.76030273,32.94429 L7.76030273,32.9442241 Z" id="Shape"></path>
                </g>
            </g>
        </g>
    </g>
</svg>