<svg width="61" height="61" viewBox="0 0 61 61" xmlns="http://www.w3.org/2000/svg">
    <g fill="none" fill-rule="evenodd">
        <path d="M0 0h61v61H0z"/>
        <g fill="#B8B8D2" fill-rule="nonzero">
            <path d="M9.445 26.595a2.03 2.03 0 0 0-1.418.571 1.926 1.926 0 0 0-.588 1.381v3.906c0 .697.382 1.342 1.003 1.69.62.35 1.385.35 2.005 0a1.944 1.944 0 0 0 1.003-1.69v-3.906c0-.518-.211-1.015-.588-1.38a2.03 2.03 0 0 0-1.418-.572zM15.46 14.878c-.531 0-1.042.206-1.418.572a1.926 1.926 0 0 0-.587 1.381v27.338c0 .698.382 1.342 1.003 1.691a2.05 2.05 0 0 0 2.005 0 1.944 1.944 0 0 0 1.003-1.69V16.83v.001c0-.518-.211-1.015-.588-1.381a2.033 2.033 0 0 0-1.418-.572zM21.476 20.736c-.532 0-1.042.206-1.418.572a1.925 1.925 0 0 0-.587 1.381v15.622c0 .698.382 1.343 1.003 1.691a2.05 2.05 0 0 0 2.005 0 1.943 1.943 0 0 0 1.003-1.69V22.688c0-.518-.211-1.015-.588-1.38a2.032 2.032 0 0 0-1.418-.573zM33.508 14.878c-.532 0-1.042.205-1.418.572a1.926 1.926 0 0 0-.587 1.381v27.338c0 .698.382 1.342 1.003 1.691a2.05 2.05 0 0 0 2.005 0 1.943 1.943 0 0 0 1.003-1.69V16.83v.001c0-.518-.211-1.015-.588-1.381a2.032 2.032 0 0 0-1.418-.572zM39.524 20.736c-.532 0-1.042.206-1.418.572a1.926 1.926 0 0 0-.587 1.381v15.622c0 .698.382 1.343 1.002 1.691.62.35 1.385.35 2.006 0a1.944 1.944 0 0 0 1.003-1.69V22.688c0-.518-.211-1.015-.588-1.381a2.032 2.032 0 0 0-1.418-.572zM45.54 24.642c-.532 0-1.042.205-1.418.572a1.925 1.925 0 0 0-.588 1.38v7.812c0 .697.383 1.342 1.003 1.69.62.35 1.385.35 2.006 0a1.944 1.944 0 0 0 1.002-1.69v-7.812c0-.517-.21-1.014-.587-1.38a2.03 2.03 0 0 0-1.418-.572zM51.556 26.595c-.532 0-1.042.205-1.418.57a1.927 1.927 0 0 0-.588 1.382v3.906c0 .697.383 1.342 1.003 1.69.62.35 1.385.35 2.005 0a1.944 1.944 0 0 0 1.003-1.69v-3.906c0-.518-.21-1.015-.587-1.381a2.033 2.033 0 0 0-1.418-.571zM27.492 26.595a2.03 2.03 0 0 0-1.418.571 1.927 1.927 0 0 0-.587 1.381v3.906c0 .697.382 1.342 1.003 1.69.62.35 1.384.35 2.005 0a1.944 1.944 0 0 0 1.002-1.69v-3.906c0-.518-.21-1.015-.586-1.38a2.032 2.032 0 0 0-1.419-.572z"/>
        </g>
    </g>
</svg>
