<svg width="61" height="61" viewBox="0 0 61 61" xmlns="http://www.w3.org/2000/svg">
    <g fill="none" fill-rule="evenodd">
        <path d="M0 0h61v61H0z"/>
        <g fill="#B8B8D2" fill-rule="nonzero">
            <path d="M29.61 7.432A22.24 22.24 0 0 0 7.808 33.696a22.237 22.237 0 0 0 29.727 16.776 9.478 9.478 0 0 1-.884-2.06l-2.68-9.078a4.392 4.392 0 0 1 4.237-5.637 7.413 7.413 0 0 1 5.025-6.987 9.72 9.72 0 0 1 8.606 1.171A22.24 22.24 0 0 0 29.61 7.431zm4.543 4.726a.817.817 0 0 1 .277.031 18.118 18.118 0 0 1 10.334 7.458.823.823 0 0 1-1.37.913 16.472 16.472 0 0 0-9.398-6.782.824.824 0 0 1 .155-1.618l.002-.002zm-1.216 4.768a.825.825 0 0 1 .196.03 13.18 13.18 0 0 1 7.519 5.425.824.824 0 0 1-1.374.91 11.531 11.531 0 0 0-6.576-4.745.824.824 0 0 1 .235-1.618v-.002zm-3.439 6.142a6.59 6.59 0 0 1 6.766 6.601 6.588 6.588 0 1 1-13.178 0 6.588 6.588 0 0 1 6.412-6.602zM19.334 35.682a.825.825 0 0 1 .734.367 11.53 11.53 0 0 0 6.58 4.745.824.824 0 1 1-.435 1.59 13.177 13.177 0 0 1-7.515-5.425.824.824 0 0 1 .636-1.277zm-4.114 2.735a.824.824 0 0 1 .733.366 16.472 16.472 0 0 0 9.394 6.782.823.823 0 0 1-.43 1.59 18.119 18.119 0 0 1-10.337-7.461.823.823 0 0 1 .64-1.278z"/>
            <path d="M39.856 33.728v2.186a2.745 2.745 0 0 0-4.306 2.952l2.681 9.08a7.825 7.825 0 0 0 15.328-2.216V34.1a5.765 5.765 0 0 0-2.195-4.526 8.072 8.072 0 0 0-7.6-1.304 5.766 5.766 0 0 0-3.908 5.458z"/>
        </g>
    </g>
</svg>
