<svg width="61" height="61" viewBox="0 0 61 61" xmlns="http://www.w3.org/2000/svg">
    <g fill="none" fill-rule="evenodd">
        <path d="M0 0h61v61H0z"/>
        <g fill="#B8B8D2" fill-rule="nonzero">
            <path d="M27.248 14.84c-.392-.688-.84-1.341-1.339-1.953l-1.27 1.06c.44.54.836 1.117 1.182 1.724l1.427-.832zM27.806 15.924l-1.492.705c.293.635.533 1.293.717 1.968l1.588-.444c-.21-.764-.481-1.51-.813-2.229zM46.977 11.514a.828.828 0 0 0-.824-.829.829.829 0 0 0-.824.83v9.468a2.27 2.27 0 0 0-1.84.245c-.552.34-.937.9-1.06 1.542a2.342 2.342 0 0 0 .416 1.83 2.278 2.278 0 0 0 3.38.327c.479-.44.751-1.063.751-1.717v-7.725a5.725 5.725 0 0 0 1.92 1.299c.289.119.512.36.611.66.1.299.065.627-.095.899a.839.839 0 0 0 .286 1.141.818.818 0 0 0 1.129-.288 2.78 2.78 0 0 0 .242-2.282 2.74 2.74 0 0 0-1.553-1.674 4.087 4.087 0 0 1-1.82-1.48 4.156 4.156 0 0 1-.72-2.246zM25.1 11.977a14.147 14.147 0 0 0-1.78-1.55l-.967 1.348c.56.411 1.086.87 1.571 1.37l1.176-1.168z"/>
            <path d="M10.821 8.927a3.414 3.414 0 0 0-2.226.875 3.506 3.506 0 0 0-.602 4.489 3.436 3.436 0 0 0 1.916 1.442 3.395 3.395 0 0 0 2.382-.17 3.452 3.452 0 0 0 1.696-1.701 9.426 9.426 0 0 1 4.77 3.075 9.605 9.605 0 0 1 2.173 5.283h.004c.228 2.568.232 5.151.013 7.72a24.2 24.2 0 0 0 1.216 9.905 23.994 23.994 0 0 0 5.102 8.543 11.51 11.51 0 0 0 5.898 3.404c2.259.51 4.617.323 6.769-.54a15.76 15.76 0 0 0 6.291-4.601 16.017 16.017 0 0 0 3.355-7.083 12.923 12.923 0 0 1 3.635-6.731c.307-.3.423-.749.301-1.163a1.148 1.148 0 0 0-.88-.806L36.56 27.756a1.137 1.137 0 0 0-1.103.405c-.266.33-.331.78-.17 1.174a4.22 4.22 0 0 1-.041 3.295 4.145 4.145 0 0 1-2.392 2.238 4.082 4.082 0 0 1-3.25-.214 4.163 4.163 0 0 1-2.084-2.533 41.646 41.646 0 0 1-1.693-10.52 10.954 10.954 0 0 0-3.641-7.83 10.699 10.699 0 0 0-8.134-2.679 3.462 3.462 0 0 0-1.285-1.587 3.406 3.406 0 0 0-1.946-.578zm.026 1.667c.36-.006.713.099 1.014.3.3.2.533.489.669.826.026.068.058.135.093.199h-.003a.007.007 0 0 1-.003-.004h-.02v.004a1.825 1.825 0 0 1-.206 1.438 1.786 1.786 0 0 1-1.186.819 1.77 1.77 0 0 1-1.399-.33 1.82 1.82 0 0 1-.265-2.647 1.777 1.777 0 0 1 1.306-.605z"/>
        </g>
    </g>
</svg>
