<svg width="61" height="61" viewBox="0 0 61 61" xmlns="http://www.w3.org/2000/svg">
    <g fill="none" fill-rule="evenodd">
        <path d="M0 0h61v61H0z"/>
        <g fill="#B8B8D2" fill-rule="nonzero">
            <path d="M27.771 29.371h4.008l3.708-4.34-11.478.008z"/>
            <path d="M52.919 25.524c-.101-.19-1.78-3.18-8.16-5.208-4.226-4.836-9.044-7.3-13.994-7.316h-.05c-8.33 0-14.263 6.862-14.52 7.154l.143.133c-6.46 2.028-8.158 5.048-8.258 5.238l-.079.151v14.94c0 4.07 2.95 7.384 6.573 7.384h31.853C50.05 48 53 44.687 53 40.616v-14.94l-.082-.152zM30.715 14.342h.046c4.015.013 8.009 1.801 11.57 5.313-3.046-.71-6.916-1.193-11.831-1.193-4.972 0-8.873.494-11.934 1.218 2.202-1.964 6.62-5.338 12.149-5.338zM20.407 36.516c0 2.706-1.397 4.992-3.05 4.992H9.361a7.033 7.033 0 0 1-.063-.894V28.88h8.057c1.654 0 3.05 2.285 3.05 4.993v2.643zm17.009-11.714-4.854 5.685a.642.642 0 0 1-.49.226h-4.59a.646.646 0 0 1-.484-.222l-4.929-5.673a.69.69 0 0 1-.112-.722.648.648 0 0 1 .594-.395l14.374-.014a.65.65 0 0 1 .594.394.693.693 0 0 1-.103.721zm14.282 15.813c0 .305-.026.601-.063.894H43.67c-1.653 0-3.051-2.287-3.051-4.993v-2.643c0-2.707 1.398-4.993 3.05-4.993h8.03v11.735h-.001z"/>
        </g>
    </g>
</svg>
