<svg width="61" height="61" viewBox="0 0 61 61" xmlns="http://www.w3.org/2000/svg">
    <g fill="none" fill-rule="evenodd">
        <path d="M0 0h61v61H0z"/>
        <g fill="#B8B8D2" fill-rule="nonzero">
            <path d="M25.885 34.171a5.138 5.138 0 0 0-3.445 1.516 4.89 4.89 0 0 0-1.418 3.418L13.76 50.187a2.13 2.13 0 0 0-.202 2.024c.28.666.88 1.153 1.602 1.303.721.149 1.473-.06 2.005-.558l9.865-8.97c1.695-.312 3.111-1.443 3.76-3.002a4.85 4.85 0 0 0-.548-4.71 5.122 5.122 0 0 0-4.356-2.102zm-3.808 6.391 3.293 2.676-9.372 8.519a.549.549 0 0 1-.712.018.516.516 0 0 1-.108-.686l6.899-10.527zM31.754 7.443a9.422 9.422 0 0 0-6.407 2.75 8.963 8.963 0 0 0-2.632 6.326 8.967 8.967 0 0 0 2.722 6.429 9.43 9.43 0 0 0 6.588 2.664 9.43 9.43 0 0 0 6.587-2.664 8.966 8.966 0 0 0 2.722-6.429 8.97 8.97 0 0 0-2.823-6.513 9.44 9.44 0 0 0-6.757-2.563zm.221 7.425c.458-.013.9.155 1.23.466a1.63 1.63 0 0 1 .019 2.356c-.318.311-.75.486-1.2.486-.45 0-.88-.175-1.198-.486a1.63 1.63 0 0 1-.016-2.321 1.715 1.715 0 0 1 1.165-.5zM47.273 34.775l-4.792-3.49a.86.86 0 0 0-1.18.17.812.812 0 0 0 .167 1.154l4.792 3.49a.86.86 0 0 0 1.182-.17.812.812 0 0 0-.17-1.154zM35.712 42.296l-.924-5.762a.844.844 0 0 0-.967-.688.828.828 0 0 0-.706.943l.924 5.763a.843.843 0 0 0 .966.684c.46-.07.776-.49.707-.94zM37.425 35.033l3.161 5.116a.859.859 0 0 0 1.161.28c.4-.235.53-.742.29-1.132l-3.162-5.116a.858.858 0 0 0-1.161-.28.814.814 0 0 0-.289 1.132z"/>
            <path d="M40.523 23.335c-2.09 2.478-5.208 3.915-8.498 3.915-3.29 0-6.409-1.437-8.499-3.915.34 2.101.808 4.182 1.403 6.23.246.849.831 1.566 1.624 1.992a11.593 11.593 0 0 0 10.943 0 3.318 3.318 0 0 0 1.624-1.993 52.247 52.247 0 0 0 1.402-6.23z"/>
        </g>
    </g>
</svg>
