<svg width="61" height="61" viewBox="0 0 61 61" xmlns="http://www.w3.org/2000/svg">
    <g fill="none" fill-rule="evenodd">
        <path d="M0 0h61v61H0z"/>
        <g fill="#B8B8D2" fill-rule="nonzero">
            <path d="M18.647 7.44a6.7 6.7 0 0 0-5.248 2.683 14.371 14.371 0 0 0-1.588 14.54L7.613 37.995a2.871 2.871 0 0 0 1.781 3.708 2.885 2.885 0 0 0 3.673-1.862l4.794-13.13a14.403 14.403 0 0 0 5.508-5.217 14.37 14.37 0 0 0 2.09-7.287 6.68 6.68 0 0 0-1.973-4.822 6.702 6.702 0 0 0-4.839-1.946zm.03 1.647a5.052 5.052 0 0 1 3.647 1.467 5.035 5.035 0 0 1 1.486 3.635c-.006.437-.034.874-.085 1.309l-9.64-3.262a5.046 5.046 0 0 1 4.592-3.15zm-6.495 9.46 9.108 3.084a12.751 12.751 0 0 1-4.162 3.603l-3.834-1.296a12.725 12.725 0 0 1-1.112-5.391zM41.202 27.013a3.418 3.418 0 0 0-2.282.956 3.407 3.407 0 0 0-1.036 2.245c-.867.213-1.704.534-2.49.955a3.417 3.417 0 0 0-4.891.084 3.406 3.406 0 0 0 .213 4.88c-.374.81-.644 1.663-.806 2.54a3.412 3.412 0 0 0-2.677 2.109 3.404 3.404 0 0 0 .484 3.37 3.416 3.416 0 0 0 3.163 1.27 10.71 10.71 0 0 0 4.15 4.418 10.735 10.735 0 0 0 5.885 1.463 3.412 3.412 0 0 0 4.439 2.031 3.411 3.411 0 0 0 1.934-4.476 10.721 10.721 0 0 0 1.83-1.94 3.419 3.419 0 0 0 3.333-.735 3.406 3.406 0 0 0-1.275-5.766 10.686 10.686 0 0 0-.38-2.638 3.408 3.408 0 0 0-1.212-6.233 3.418 3.418 0 0 0-2.592.575 10.718 10.718 0 0 0-2.304-1.35 3.406 3.406 0 0 0-.892-2.667 3.417 3.417 0 0 0-2.594-1.09zm.017 1.65a1.764 1.764 0 0 1 1.833 1.557 10.743 10.743 0 0 0-3.447-.283 1.76 1.76 0 0 1 1.614-1.274zm-1.022 2.889a9.08 9.08 0 0 1 6.586 2.557 9.053 9.053 0 0 1 2.75 6.498 9.056 9.056 0 0 1-4.54 7.834 9.084 9.084 0 0 1-9.063 0 9.056 9.056 0 0 1-4.54-7.834c0-2.357.92-4.62 2.564-6.312a9.08 9.08 0 0 1 6.243-2.743zm-7.264.292c.356-.016.708.077 1.011.264a10.703 10.703 0 0 0-2.374 2.516 1.758 1.758 0 0 1 .226-2.299 1.766 1.766 0 0 1 1.137-.48zm15.94 1.307a1.762 1.762 0 0 1 1.337 3.001 10.7 10.7 0 0 0-1.93-2.87 1.76 1.76 0 0 1 .593-.131zm-19.13 7.247a10.69 10.69 0 0 0 .49 3.42 1.76 1.76 0 0 1-.49-3.42zm21.33 1.747a1.761 1.761 0 0 1-1.044 3.294 10.688 10.688 0 0 0 1.044-3.294zm-5.2 7.704a1.761 1.761 0 0 1-1.899 2.056 1.767 1.767 0 0 1-1.332-.815 10.734 10.734 0 0 0 3.232-1.241z"/>
            <path d="M48.703 40.608a8.23 8.23 0 0 0-2.41-5.834 8.255 8.255 0 0 0-11.675 0 8.229 8.229 0 0 0-2.41 5.834 8.228 8.228 0 0 0 2.41 5.833 8.254 8.254 0 0 0 11.675 0 8.228 8.228 0 0 0 2.41-5.833zM26.816 17.08a16.018 16.018 0 0 1-2.745 6.335l4.173 3.592a12.769 12.769 0 0 1-5.215 1.78l-2.288-1.97c-.493.373-1.006.716-1.539 1.03l-4.261 11.675 8.215-9.092c2.561-.277 5.001-1.234 7.066-2.772a14.387 14.387 0 0 0 4.673-5.972c.65-1.547.693-3.28.122-4.857a6.689 6.689 0 0 0-3.204-3.656 6.704 6.704 0 0 0-4.838-.526 8.296 8.296 0 0 1 .132 1.681 5.054 5.054 0 0 1 3.758.213 5.032 5.032 0 0 1 2.51 6.509c-.17.404-.36.8-.57 1.184l-5.99-5.154zM49.52 18.515a2.714 2.714 0 0 0-1.312-3.91 4.084 4.084 0 0 1-2.543-3.682.824.824 0 0 0-1.65 0v9.358a2.3 2.3 0 0 0-2.903 1.766 2.292 2.292 0 0 0 2.037 2.718 2.298 2.298 0 0 0 2.516-2.283v-7.635c.546.554 1.2.99 1.921 1.284a1.073 1.073 0 0 1 .517 1.54.823.823 0 0 0 .287 1.129.826.826 0 0 0 1.13-.285z"/>
        </g>
    </g>
</svg>
