<svg width="87" height="11" viewBox="0 0 87 11" xmlns="http://www.w3.org/2000/svg">
    <g fill="#FFF" fill-rule="nonzero">
        <path d="M4.447 10.98a5.388 5.388 0 0 0 2.912-.882l-.252-.364c-.756.476-1.61.784-2.604.784-2.324 0-4.018-1.708-4.018-3.962 0-2.618 2.324-5.012 5.026-5.012 2.38 0 3.962 1.666 3.962 3.962 0 1.932-.966 2.548-1.512 2.548-.364 0-.658-.252-.658-.728 0-.084.014-.21.028-.294l.798-3.794h-.952l-.182.868c-.266-.602-.882-1.092-1.792-1.092-1.652 0-3.29 1.568-3.29 3.514 0 1.358.84 2.282 2.142 2.282.896 0 1.722-.532 2.212-1.218l.014.084c.042.588.49 1.134 1.274 1.134 1.176 0 2.422-1.106 2.422-3.304 0-2.45-1.764-4.438-4.41-4.438C2.655 1.068.009 3.56.009 6.584c0 2.478 1.89 4.396 4.438 4.396zm-.112-2.954c-.896 0-1.428-.658-1.428-1.554 0-1.344 1.078-2.674 2.478-2.674.826 0 1.288.602 1.442 1.036l-.406 1.932c-.406.588-1.12 1.26-2.086 1.26zM17.649 10V8.964h-4.578c2.604-2.058 4.536-3.794 4.536-5.698 0-1.862-1.582-2.744-3.136-2.744-1.316 0-2.534.532-3.248 1.47l.714.742c.546-.7 1.414-1.176 2.534-1.176.966 0 1.946.518 1.946 1.708 0 1.61-1.82 3.164-5.18 5.81V10h6.412zM22.997 10.168c2.548 0 3.57-2.562 3.57-4.83 0-2.282-1.022-4.816-3.57-4.816-2.562 0-3.57 2.534-3.57 4.816 0 2.268 1.008 4.83 3.57 4.83zm0-1.036c-1.778 0-2.38-1.932-2.38-3.794s.602-3.78 2.38-3.78 2.38 1.918 2.38 3.78c0 1.862-.602 3.794-2.38 3.794zM34.449 10V8.964h-4.578c2.604-2.058 4.536-3.794 4.536-5.698 0-1.862-1.582-2.744-3.136-2.744-1.316 0-2.534.532-3.248 1.47l.714.742c.546-.7 1.414-1.176 2.534-1.176.966 0 1.946.518 1.946 1.708 0 1.61-1.82 3.164-5.18 5.81V10h6.412zM42.681 10V8.964h-4.578c2.604-2.058 4.536-3.794 4.536-5.698 0-1.862-1.582-2.744-3.136-2.744-1.316 0-2.534.532-3.248 1.47l.714.742c.546-.7 1.414-1.176 2.534-1.176.966 0 1.946.518 1.946 1.708 0 1.61-1.82 3.164-5.18 5.81V10h6.412zM49.611 10V5.744h4.858V4.708h-4.858v-3.01h4.956V.662h-6.118V10zM61.721 10V3.238h-1.05v4.97c-.392.546-1.176 1.022-2.002 1.022-.91 0-1.512-.35-1.512-1.54V3.238h-1.05v4.774c0 1.47.742 2.156 2.156 2.156 1.008 0 1.89-.532 2.408-1.12V10h1.05zM69.435 10V5.254c0-1.47-.742-2.184-2.156-2.184-1.008 0-1.932.588-2.408 1.148v-.98h-1.05V10h1.05V5.058c.392-.546 1.176-1.05 2.002-1.05.91 0 1.512.378 1.512 1.568V10h1.05zM77.485 10l-3.01-3.696 2.996-3.066h-1.33l-3.556 3.598V.662h-1.05V10h1.05V8.068l1.12-1.106L76.141 10zM82.581 10.168c2.534 0 3.808-1.484 3.808-3.808V.662h-1.162v5.684c0 1.708-.924 2.786-2.646 2.786s-2.646-1.078-2.646-2.786V.662h-1.162v5.712c0 2.296 1.274 3.794 3.808 3.794z"/>
    </g>
</svg>
