<svg width="129" height="129" viewBox="0 0 129 129" xmlns="http://www.w3.org/2000/svg" xmlns:xlink="http://www.w3.org/1999/xlink">
    <defs>
        <linearGradient x1="25.228%" y1="0%" x2="71.755%" y2="100%" id="vcxxlhcccc">
            <stop stop-color="#FFF" stop-opacity=".8" offset="0%"/>
            <stop stop-color="#FFF" stop-opacity=".4" offset="100%"/>
        </linearGradient>
        <filter x="-41.8%" y="-39.4%" width="183.5%" height="183.5%" filterUnits="objectBoundingBox" id="cofgfsp9ka">
            <feMorphology radius=".5" in="SourceAlpha" result="shadowSpreadOuter1"/>
            <feOffset dy="2" in="shadowSpreadOuter1" result="shadowOffsetOuter1"/>
            <feGaussianBlur stdDeviation="12" in="shadowOffsetOuter1" result="shadowBlurOuter1"/>
            <feComposite in="shadowBlurOuter1" in2="SourceAlpha" operator="out" result="shadowBlurOuter1"/>
            <feColorMatrix values="0 0 0 0 0 0 0 0 0 0 0 0 0 0 0 0 0 0 0.2 0" in="shadowBlurOuter1"/>
        </filter>
        <path d="M187.5 164c23.237 0 42.119 18.644 42.494 41.797l.006.703c0 23.237-18.644 42.119-41.797 42.494l-.703.006c-23.472 0-42.5-19.023-42.5-42.5 0-23.237 18.644-42.119 41.797-42.494l.703-.006zm4.99 28.5h-9.98l-.215.007a3.03 3.03 0 0 0-1.981.906 3.12 3.12 0 0 0-.899 2.198v.068h-5.49l-.232.006a3.722 3.722 0 0 0-2.529 1.177A4.053 4.053 0 0 0 170 199.67v16.84l.007.238a3.836 3.836 0 0 0 1.157 2.57c.7.71 1.697 1.183 2.762 1.183h27.148l.233-.007a3.722 3.722 0 0 0 2.529-1.177A4.053 4.053 0 0 0 205 216.51v-16.84l-.007-.238a3.836 3.836 0 0 0-1.157-2.57 3.734 3.734 0 0 0-2.762-1.183h-5.523v-.068l-.007-.21c-.05-.769-.373-1.492-.891-1.988a3.02 3.02 0 0 0-2.163-.913zm0 1.758c.366 0 .7.136.932.372.233.237.366.575.366.947v.981l.006.107a.9.9 0 0 0 .892.806h6.421l.197.009c.519.046.979.273 1.334.634.4.405.632.946.632 1.555v16.84h-.033l-.009.201a2.18 2.18 0 0 1-.623 1.355c-.4.406-.932.643-1.53.643h-27.15l-.196-.009a2.116 2.116 0 0 1-1.334-.634 2.19 2.19 0 0 1-.632-1.555v-16.84l.009-.201a2.18 2.18 0 0 1 .623-1.355c.4-.406.932-.643 1.53-.643h6.422l.105-.006a.904.904 0 0 0 .793-.907v-.98l.008-.158a1.31 1.31 0 0 1 .358-.79c.233-.236.566-.372.932-.372zm-4.99 5.501a8.22 8.22 0 0 0-5.825 2.428 8.26 8.26 0 0 0-2.41 5.869c0 2.293.937 4.384 2.41 5.868a8.14 8.14 0 0 0 5.825 2.428 8.22 8.22 0 0 0 5.825-2.428 8.26 8.26 0 0 0 2.41-5.868 8.342 8.342 0 0 0-2.41-5.869 8.22 8.22 0 0 0-5.825-2.428zm0 1.855c1.774 0 3.381.742 4.553 1.889a6.471 6.471 0 0 1 1.875 4.586c.033 1.788-.703 3.406-1.875 4.587-1.172 1.146-2.779 1.888-4.553 1.888s-3.381-.742-4.553-1.888a6.471 6.471 0 0 1-1.875-4.587c0-1.787.737-3.406 1.875-4.586a6.376 6.376 0 0 1 4.553-1.889zm11.838-1.855a1.55 1.55 0 0 0-1.544 1.556c0 .859.691 1.555 1.544 1.555a1.55 1.55 0 0 0 1.544-1.555 1.55 1.55 0 0 0-1.544-1.556z" id="gslmj397kb"/>
    </defs>
    <g transform="translate(-123 -144)" fill="none" fill-rule="evenodd">
        <use fill="#000" filter="url(#cofgfsp9ka)" xlink:href="#gslmj397kb"/>
        <use fill="url(#vcxxlhcccc)" xlink:href="#gslmj397kb"/>
    </g>
</svg>
