<svg width="39" height="39" viewBox="0 0 39 39" xmlns="http://www.w3.org/2000/svg">
    <path d="M19.5 0C30.27 0 39 8.73 39 19.5S30.27 39 19.5 39 0 30.27 0 19.5 8.73 0 19.5 0zm.133 9.75c-5.541 0-9.883 4.282-9.883 9.748 0 5.468 4.342 9.752 9.883 9.752 5.108 0 8.738-2.989 9.472-7.8.096-.623.145-1.28.145-1.952 0-.737-.063-1.537-.17-2.14l-.074-.424h-9.994v4.619h5.026c-.675 1.915-2.313 3.079-4.405 3.079-2.797 0-5.252-2.4-5.252-5.134 0-2.733 2.455-5.13 5.252-5.13 1.337 0 2.468.426 3.27 1.232l.363.365 3.447-3.436-.375-.363c-1.631-1.58-3.95-2.416-6.705-2.416z" fill="#FFF" fill-rule="nonzero"/>
</svg>
