<svg width="91" height="72" viewBox="0 0 91 72" xmlns="http://www.w3.org/2000/svg">
    <g fill="#FFF" fill-rule="evenodd">
        <path fill-rule="nonzero" d="m56.155 44.806 1.899-6.239 2.61 5.898 4.232-.321-3.856-7.589 7.672-7.22-4.153.315-5.457 5.422 1.562-5.127-4.35.33-4.509 14.861zM44.726 32.726a1.452 1.452 0 0 0-.287-.6 1.957 1.957 0 0 0-.504-.437 2.134 2.134 0 0 0-.652-.261 2.41 2.41 0 0 0-.712-.053l-4.43.336-4.43 14.797 4.37-.331 3.086-10.29 2.076 9.898 5.26-.398 4.41-14.796-4.232.32-2.61 8.584-1.345-6.77zM22.915 32.807l-3.44 11.267c-.106.59-.106 1.085 0 1.485.105.4.286.729.543.988.257.258.574.454.95.588.375.133.78.225 1.216.276.435.051.89.069 1.364.052a34.17 34.17 0 0 0 3.41-.288 11.721 11.721 0 0 0 2.216-.507 8.044 8.044 0 0 0 2.056-1.03c.64-.443 1.157-1.035 1.552-1.777l3.659-12.099-4.45.338c-.039.003-.066.011-.079.025L28.71 42.714a2.697 2.697 0 0 1-.514.738 2.712 2.712 0 0 1-.673.488c-.25.128-.514.23-.79.302a9.224 9.224 0 0 1-.87.182 8.093 8.093 0 0 1-.84-.091 2.074 2.074 0 0 1-.693-.23.988.988 0 0 1-.415-.424c-.086-.174-.083-.395.01-.66l3.183-10.53-4.192.318zM72.647 22.336l-5.02 16.57c-.23.757-.139 1.43 0 1.957.139.526.378.96.716 1.301.339.34.756.599 1.25.775a7.354 7.354 0 0 0 1.603.364c.573.067 1.172.09 1.797.068a44.625 44.625 0 0 0 1.824-.1c.799-.06 1.689-.153 2.67-.279a15.439 15.439 0 0 0 2.917-.669c.964-.32 1.868-.772 2.71-1.356.842-.583 1.727-1.283 2.045-2.34 1.916-6.381 3.683-12.995 5.841-19.26-1.424.082-2.92.249-4.255.724-1.033.368-1.923.866-2.67 1.494a9.956 9.956 0 0 0-1.966 2.259 34.977 34.977 0 0 0-1.707 2.993c-.054.105-.026.177.078.212.104.034.2.023.287-.035.052-.004.09-.036.13-.087.29-.367.647-.692 1.055-.987a7.444 7.444 0 0 1 1.394-.784 1617.22 1617.22 0 0 1-3.554 11.96c-.124.414-.417.713-.677.971-.26.258-.556.472-.886.642a5.1 5.1 0 0 1-1.042.399c-.364.096-.746.176-1.146.24a10.681 10.681 0 0 1-1.107-.12 2.732 2.732 0 0 1-.912-.302 1.3 1.3 0 0 1-.547-.56c-.113-.23-.093-.515.013-.87l4.681-15.599-5.522.419z"/>
        <path d="m19.18 36.474-3.596.272-2.084.158c-.486.037-.842.069-1.068.094-.226.026-.425.054-.599.084l1.682-6.148 55.942-3.89 1.537-4.642-56.255 3.913v-.051l-.026.002c-1.51.116-2.783.33-3.816.698-1.034.369-1.924.867-2.67 1.494a9.958 9.958 0 0 0-1.967 2.259 35.019 35.019 0 0 0-1.706 2.993c-.054.106-.027.177.078.212.104.035.2.023.286-.035.052-.004.09-.036.13-.086.29-.367.648-.693 1.056-.988a7.444 7.444 0 0 1 1.393-.783L2.716 48.41l5.887-.446 2.136-7.194 7.32-.555 1.12-3.742zM4.856 51.33c.366-.028.668-.014.906.045.239.058.428.144.568.256.14.113.238.242.294.389.057.146.09.295.102.445.01.15.005.291-.016.422a2.905 2.905 0 0 1-.066.31 3.618 3.618 0 0 1-.346.787 3.419 3.419 0 0 1-.358.495 2.771 2.771 0 0 1-.522.467 3.203 3.203 0 0 1-1.62.557l-2.222.174-.793 2.755-.783.061 1.998-6.938 2.858-.225zm-.842 3.425c.326-.026.6-.098.823-.217a1.945 1.945 0 0 0 .866-.882c.075-.157.127-.29.158-.397.027-.094.047-.215.06-.36a.713.713 0 0 0-.086-.415c-.07-.13-.198-.237-.38-.322-.184-.084-.455-.112-.814-.084l-2.075.163-.774 2.688 2.222-.174zm2.496 3.228-.832.065 5.165-7.27.637-.05 1.12 6.777-.832.065-.304-1.771-3.602.283-1.352 1.9zm4.306-6.047a86.08 86.08 0 0 0-.613.849l-.72 1.004a165.651 165.651 0 0 0-1.086 1.529l2.947-.231-.528-3.15zm8.177 5.067-.861.068-.546-2.659-2.37.186-.792 2.754-.774.061 1.995-6.93 2.85-.223c.365-.028.667-.013.905.045.238.058.428.144.568.256.14.113.24.242.3.388.06.147.093.295.1.446.008.15.001.291-.02.422a2.9 2.9 0 0 1-.066.31c-.031.108-.084.253-.158.434a2.912 2.912 0 0 1-.329.577 3.38 3.38 0 0 1-.554.593 2.768 2.768 0 0 1-.82.477l.572 2.795zm-1.341-3.318c.326-.025.6-.098.823-.217.223-.12.406-.257.55-.413.144-.157.253-.313.326-.47.074-.157.127-.29.157-.396.028-.095.047-.215.057-.361a.769.769 0 0 0-.087-.414c-.068-.13-.195-.238-.381-.322-.186-.084-.459-.112-.818-.084l-2.076.163-.774 2.688 2.223-.174zm4.212-3.661 5.982-.47-.216.748-2.604.205-1.774 6.162-.774.06 1.775-6.162-2.605.205.216-.748zm12.134-.998.979-.077-3.96 3.78-.98 3.408-.774.06.981-3.407c-.155-.26-.313-.531-.474-.814l-.482-.85c-.16-.284-.322-.566-.484-.846-.161-.28-.32-.55-.475-.81l.98-.076 1.534 2.646 3.155-3.014zm7.204 2.266c.449.057.825.134 1.13.23.303.097.54.217.709.36a.87.87 0 0 1 .306.532c.036.21.012.457-.07.741-.092.322-.25.616-.474.884a3.56 3.56 0 0 1-.773.69 4.181 4.181 0 0 1-1.906.672 3.18 3.18 0 0 1-.771-.032 2.306 2.306 0 0 1-.695-.228 1.687 1.687 0 0 1-.886-1.11l.8-.322a.974.974 0 0 0 .243.472c.12.126.26.226.42.3.161.073.338.123.532.148a2.826 2.826 0 0 0 1.218-.11c.227-.067.442-.16.645-.277.203-.118.383-.263.541-.436.159-.173.27-.37.333-.59a.8.8 0 0 0 .022-.39.576.576 0 0 0-.226-.33 1.712 1.712 0 0 0-.543-.258 5.787 5.787 0 0 0-.918-.187c-.766-.106-1.294-.306-1.584-.597-.289-.292-.332-.702-.129-1.23.133-.307.313-.57.54-.792.226-.221.473-.406.742-.553.27-.148.548-.257.837-.33.288-.071.561-.111.819-.12.236 0 .447.02.634.057a2.95 2.95 0 0 1 .948.366c.136.081.267.167.395.255l-.64.661a3.834 3.834 0 0 0-.698-.417c-.25-.116-.552-.172-.903-.17-.17.014-.35.045-.54.094-.189.048-.373.117-.551.205a2.37 2.37 0 0 0-.49.32 1.326 1.326 0 0 0-.344.448l.003-.01a.912.912 0 0 0-.07.326.41.41 0 0 0 .13.3c.088.091.231.174.43.248.2.074.477.134.834.18zm11.549-3.72.704-.054-1.997 6.938-.774.061 1.636-5.68c-.138.122-.287.259-.449.41-.161.152-.385.359-.671.622l-1.114 1.026-1.767 1.633-1.966-3.241-1.64 5.698-.784.062 1.998-6.939.734-.057 2.003 3.312 4.087-3.79zm.714 6.727-.832.065 5.165-7.27.636-.05 1.12 6.777-.832.065-.303-1.77-3.603.282-1.351 1.9zm4.305-6.047a87.2 87.2 0 0 0-.613.849l-.72 1.005a162.274 162.274 0 0 0-1.085 1.528l2.946-.231-.528-3.15zm8.177 5.068-.861.067-.546-2.659-2.369.186-.793 2.755-.773.06L62.6 46.8l2.849-.223c.365-.029.667-.014.905.044.239.059.428.144.568.256.14.113.24.242.3.389.06.146.093.295.1.445.009.15.001.292-.02.423a2.905 2.905 0 0 1-.066.31c-.03.108-.083.252-.158.434a2.912 2.912 0 0 1-.329.576c-.144.202-.329.4-.553.594a2.766 2.766 0 0 1-.822.476l.573 2.796zM64.607 50c.325-.025.6-.098.822-.217.223-.12.406-.257.55-.413.144-.156.253-.313.327-.47.074-.157.126-.289.157-.396.027-.095.046-.215.056-.36a.769.769 0 0 0-.087-.415c-.067-.13-.194-.238-.38-.322-.187-.084-.46-.112-.819-.083l-2.075.162-.774 2.689L64.606 50zm4.211-3.66 5.982-.47-.215.748-2.605.204-1.774 6.162-.773.061 1.774-6.162-2.604.204.215-.748zm6.048 5.548 4.278-.336-.215.748-5.061.397 1.99-6.91 4.934-.387-.216.748-4.15.325-.669 2.32 3.809-.3-.213.74-3.808.298-.679 2.357zm10.368-.083-.861.068-.546-2.659-2.369.186-.793 2.755-.774.06 1.996-6.929 2.848-.223c.366-.029.668-.014.906.044.239.059.428.144.568.256a.97.97 0 0 1 .3.389c.06.146.093.294.1.445.008.15.001.291-.02.423a2.905 2.905 0 0 1-.066.31c-.03.107-.084.252-.158.434a2.912 2.912 0 0 1-.329.576c-.144.202-.329.4-.554.594a2.766 2.766 0 0 1-.82.476l.572 2.795zm-1.341-3.318c.326-.025.6-.098.823-.217.223-.12.406-.257.55-.413.144-.156.253-.313.327-.47.073-.157.126-.289.157-.396.027-.095.046-.215.056-.36a.769.769 0 0 0-.087-.415c-.068-.13-.195-.238-.38-.322-.187-.084-.46-.112-.819-.084l-2.075.163-.774 2.689 2.222-.175zM19.8 58.776c2.083 3.203 5.08 5.891 8.67 7.887 5.887 3.273 13.372 4.69 21.058 3.476 7.686-1.214 14.113-4.83 18.289-9.692 1.58-1.838 2.836-3.856 3.717-5.99l1.819-.148c-.944 2.496-2.367 4.853-4.196 6.983-4.42 5.147-11.214 8.972-19.333 10.254-8.119 1.283-16.032-.218-22.263-3.683-4.04-2.246-7.374-5.316-9.6-8.987.618-.031 1.23-.064 1.839-.1z" fill-rule="nonzero"/>
        <path d="M29.229 58.059a18.313 18.313 0 0 0 4.04 3.018c4.156 2.31 9.44 3.31 14.87 2.452 5.427-.857 9.965-3.41 12.913-6.842.407-.473.783-.963 1.127-1.468l2-.163a17.847 17.847 0 0 1-1.786 2.475c-3.193 3.717-8.098 6.48-13.959 7.405-5.86.926-11.575-.159-16.075-2.66-1.966-1.093-3.7-2.456-5.115-4.04.66-.057 1.32-.116 1.985-.177zM20.764 24.838c1.408-3.47 3.82-6.57 6.954-9.077 5.139-4.112 12.223-6.637 20.032-6.6 7.81.036 14.86 2.628 19.947 6.789 1.923 1.572 3.564 3.371 4.86 5.34l1.82-.128c-1.43-2.317-3.303-4.424-5.53-6.246-5.384-4.404-12.838-7.147-21.087-7.186-8.25-.04-15.739 2.633-21.178 6.986-3.527 2.822-6.193 6.35-7.648 10.302.614-.063 1.224-.123 1.83-.18z" fill-rule="nonzero"/>
        <path d="M30.19 24.123a17.014 17.014 0 0 1 3.372-3.582c3.628-2.903 8.63-4.685 14.145-4.66 5.515.027 10.494 1.857 14.084 4.793.495.405.964.831 1.404 1.277l2.001-.142a19.223 19.223 0 0 0-2.255-2.169c-3.887-3.18-9.27-5.161-15.225-5.19-5.954-.027-11.362 1.903-15.29 5.046-1.717 1.374-3.151 2.978-4.226 4.752.66-.043 1.323-.085 1.99-.125z" fill-rule="nonzero"/>
        <path d="M82.095 14.886c.751-.68 6.032-1.54 7.626-2.081-1.585-.554-6.772-1.288-7.628-2.117-.764-.74-.923-2.56-1.196-3.717-.225-.948-.596-3.001-1.108-3.71-.28 1.482-1.337 6.788-2.15 7.486-1.02.876-5.996 1.305-7.527 2.107 10.42 2.685 6.75.095 9.772 9.562.869-1.69 1.083-6.507 2.211-7.53zM71.201 5.812c.376-.34 3.016-.77 3.813-1.04-.792-.277-3.386-.644-3.814-1.059-.381-.37-.461-1.28-.598-1.858C70.49 1.381 70.304.354 70.05 0c-.14.74-.67 3.394-1.075 3.743-.51.438-2.999.652-3.764 1.053 5.21 1.343 3.375.048 4.886 4.781.434-.844.541-3.253 1.105-3.765z"/>
    </g>
</svg>
