<svg width="39" height="39" viewBox="0 0 39 39" xmlns="http://www.w3.org/2000/svg">
    <path d="M19.5 0C30.27 0 39 8.73 39 19.5S30.27 39 19.5 39 0 30.27 0 19.5 8.73 0 19.5 0zm5.007 7.8H14.493A6.7 6.7 0 0 0 7.8 14.493v10.014a6.7 6.7 0 0 0 6.693 6.693h10.013a6.702 6.702 0 0 0 6.694-6.693V14.493A6.7 6.7 0 0 0 24.507 7.8zm0 2.484a4.214 4.214 0 0 1 4.21 4.21v10.012a4.214 4.214 0 0 1-4.21 4.21H14.493a4.214 4.214 0 0 1-4.21-4.21V14.493a4.213 4.213 0 0 1 4.21-4.21zM19.5 13.65a5.857 5.857 0 0 0-5.85 5.85 5.857 5.857 0 0 0 5.85 5.85 5.856 5.856 0 0 0 5.85-5.85 5.857 5.857 0 0 0-5.85-5.85zm0 2.431a3.423 3.423 0 0 1 3.419 3.419 3.423 3.423 0 0 1-3.419 3.419 3.423 3.423 0 0 1-3.419-3.419 3.423 3.423 0 0 1 3.419-3.419zm6.337-4.381a1.463 1.463 0 1 0 0 2.925 1.463 1.463 0 0 0 0-2.925z" fill="#FFF" fill-rule="nonzero"/>
</svg>
