<svg width="87" height="115" viewBox="0 0 87 115" xmlns="http://www.w3.org/2000/svg" xmlns:xlink="http://www.w3.org/1999/xlink">
    <defs>
        <filter x="-82.6%" y="-46.5%" width="265.1%" height="198.6%" filterUnits="objectBoundingBox" id="utohtyfa2a">
            <feMorphology radius=".5" in="SourceAlpha" result="shadowSpreadOuter1"/>
            <feOffset dy="2" in="shadowSpreadOuter1" result="shadowOffsetOuter1"/>
            <feGaussianBlur stdDeviation="12" in="shadowOffsetOuter1" result="shadowBlurOuter1"/>
            <feColorMatrix values="0 0 0 0 0 0 0 0 0 0 0 0 0 0 0 0 0 0 0.2 0" in="shadowBlurOuter1"/>
        </filter>
        <path d="M189.8 198.868v-20.692l5.458 5.49a2.37 2.37 0 0 0 3.366 0c.93-.935.93-2.45 0-3.386l-9.52-9.579a2.37 2.37 0 0 0-3.366 0l-9.52 9.58a2.405 2.405 0 0 0 0 3.386 2.37 2.37 0 0 0 3.365 0l5.458-5.491v20.694C174.345 200.065 166 209.214 166 220.288 166 232.26 175.61 242 187.42 242c11.844 0 21.58-9.799 21.58-21.712 0-11.08-8.416-20.233-19.2-21.42zm-2.38 38.343c-9.186 0-16.66-7.592-16.66-16.923 0-9.243 7.474-16.762 16.66-16.762 9.275 0 16.82 7.52 16.82 16.762 0 9.331-7.545 16.923-16.82 16.923z" id="ncnn15la2b"/>
    </defs>
    <g transform="translate(-144 -151)" fill-rule="nonzero" fill="none">
        <use fill="#000" filter="url(#utohtyfa2a)" xlink:href="#ncnn15la2b"/>
        <use fill="#FFF" xlink:href="#ncnn15la2b"/>
    </g>
</svg>
