<svg width="62" height="62" viewBox="0 0 62 62" xmlns="http://www.w3.org/2000/svg" xmlns:xlink="http://www.w3.org/1999/xlink">
    <defs>
        <linearGradient x1="25.228%" y1="0%" x2="71.755%" y2="100%" id="2tmzcdjvfc">
            <stop stop-color="#FFF" stop-opacity=".6" offset="0%"/>
            <stop stop-color="#FFF" stop-opacity=".2" offset="100%"/>
        </linearGradient>
        <filter x="-221.9%" y="-209.4%" width="543.8%" height="543.8%" filterUnits="objectBoundingBox" id="333mpbox3a">
            <feMorphology radius=".5" in="SourceAlpha" result="shadowSpreadOuter1"/>
            <feOffset dy="2" in="shadowSpreadOuter1" result="shadowOffsetOuter1"/>
            <feGaussianBlur stdDeviation="12" in="shadowOffsetOuter1" result="shadowBlurOuter1"/>
            <feComposite in="shadowBlurOuter1" in2="SourceAlpha" operator="out" result="shadowBlurOuter1"/>
            <feColorMatrix values="0 0 0 0 0 0 0 0 0 0 0 0 0 0 0 0 0 0 0.2 0" in="shadowBlurOuter1"/>
        </filter>
        <rect id="vklyjq8bfb" x="0" y="0" width="16" height="16" rx="8"/>
    </defs>
    <g fill="none" fill-rule="evenodd">
        <g transform="translate(23 21)">
            <use fill="#000" filter="url(#333mpbox3a)" xlink:href="#vklyjq8bfb"/>
            <use fill="url(#2tmzcdjvfc)" xlink:href="#vklyjq8bfb"/>
        </g>
        <path d="M31 31.47a.535.535 0 0 1-.13-.015.285.285 0 0 1-.11-.055c-.833-.647-1.452-1.268-1.855-1.865s-.605-1.188-.605-1.775c0-.453.082-.852.245-1.195a2.654 2.654 0 0 1 1.505-1.39A2.76 2.76 0 0 1 31 25a2.76 2.76 0 0 1 1.82.7c.26.233.472.522.635.865.163.343.245.742.245 1.195 0 .587-.202 1.178-.605 1.775-.403.597-1.022 1.218-1.855 1.865a.285.285 0 0 1-.11.055.535.535 0 0 1-.13.015zm0-3.07a.674.674 0 0 0 .495-.205.674.674 0 0 0 .205-.495.674.674 0 0 0-.205-.495A.674.674 0 0 0 31 27a.674.674 0 0 0-.495.205.674.674 0 0 0-.205.495c0 .193.068.358.205.495A.674.674 0 0 0 31 28.4zM28.6 33a.291.291 0 0 1-.3-.3.291.291 0 0 1 .3-.3h4.8a.291.291 0 0 1 .3.3.291.291 0 0 1-.3.3h-4.8z" fill="#FFF" fill-rule="nonzero"/>
    </g>
</svg>
