<svg width="78" height="78" viewBox="0 0 78 78" xmlns="http://www.w3.org/2000/svg" xmlns:xlink="http://www.w3.org/1999/xlink">
    <defs>
        <linearGradient x1="25.228%" y1="0%" x2="71.755%" y2="100%" id="1yurgpe4pc">
            <stop stop-color="#FFF" stop-opacity=".6" offset="0%"/>
            <stop stop-color="#FFF" stop-opacity=".2" offset="100%"/>
        </linearGradient>
        <filter x="-110.9%" y="-104.7%" width="321.9%" height="321.9%" filterUnits="objectBoundingBox" id="1n614xbona">
            <feMorphology radius=".5" in="SourceAlpha" result="shadowSpreadOuter1"/>
            <feOffset dy="2" in="shadowSpreadOuter1" result="shadowOffsetOuter1"/>
            <feGaussianBlur stdDeviation="12" in="shadowOffsetOuter1" result="shadowBlurOuter1"/>
            <feComposite in="shadowBlurOuter1" in2="SourceAlpha" operator="out" result="shadowBlurOuter1"/>
            <feColorMatrix values="0 0 0 0 0 0 0 0 0 0 0 0 0 0 0 0 0 0 0.2 0" in="shadowBlurOuter1"/>
        </filter>
        <rect id="kflx4svfwb" x="0" y="0" width="32" height="32" rx="16"/>
    </defs>
    <g fill="none" fill-rule="evenodd">
        <g transform="translate(23 21)">
            <use fill="#000" filter="url(#1n614xbona)" xlink:href="#kflx4svfwb"/>
            <use fill="url(#1yurgpe4pc)" xlink:href="#kflx4svfwb"/>
        </g>
        <path d="M30.99 45.941c-.287.118-.543.059-.766-.177a.727.727 0 0 1-.168-.807l3.188-9.365c.176-.539.523-.867 1.043-.985.52-.117.963.017 1.33.404l4.842 5.049c.384.387.52.854.408 1.4-.112.548-.424.914-.935 1.099l-8.941 3.382zm9.59-9.112a.6.6 0 0 1-.168-.43.6.6 0 0 1 .167-.428l5.346-5.63c.511-.538 1.158-.811 1.942-.82.783-.008 1.43.257 1.941.795l.024.026a.57.57 0 0 1 .168.403.617.617 0 0 1-.192.43.541.541 0 0 1-.407.176.541.541 0 0 1-.408-.176l-.048-.05c-.303-.32-.655-.485-1.054-.493-.4-.009-.76.156-1.08.492l-5.44 5.73a.516.516 0 0 1-.384.177c-.144 0-.28-.068-.408-.202zm-3.812-3.913a.6.6 0 0 1-.168-.429.6.6 0 0 1 .168-.429l.312-.328c.367-.387.539-.829.515-1.325-.024-.497-.196-.913-.515-1.25l-.288-.303a.57.57 0 0 1-.168-.404c0-.151.064-.294.192-.429a.541.541 0 0 1 .407-.176c.16 0 .296.059.408.176l.216.228c.559.589.835 1.325.827 2.208-.008.884-.292 1.62-.851 2.209l-.264.278a.516.516 0 0 1-.384.176c-.143 0-.28-.067-.407-.202zm1.942 1.944a.6.6 0 0 1-.168-.43.6.6 0 0 1 .168-.428l3.236-3.408c.303-.32.451-.728.443-1.224-.008-.497-.164-.905-.467-1.224l-1.079-1.136a.57.57 0 0 1-.168-.404c0-.152.064-.295.192-.43a.541.541 0 0 1 .407-.176c.16 0 .296.059.408.177l1.103 1.16c.495.54.75 1.217.767 2.033.016.816-.232 1.493-.743 2.032L39.5 34.885a.516.516 0 0 1-.384.177c-.144 0-.28-.067-.407-.202zm3.787 4.013a.6.6 0 0 1-.168-.429.6.6 0 0 1 .168-.429l.72-.757c.558-.59 1.23-.892 2.013-.909.783-.017 1.454.27 2.013.858l.84.884a.57.57 0 0 1 .167.404.617.617 0 0 1-.192.429.541.541 0 0 1-.407.177.541.541 0 0 1-.408-.177l-.839-.884c-.367-.387-.75-.58-1.15-.58-.4 0-.783.193-1.15.58l-.816.859a.516.516 0 0 1-.383.176c-.144 0-.28-.067-.408-.202z" fill="#FFF" fill-rule="nonzero"/>
    </g>
</svg>
