<svg width="62" height="62" viewBox="0 0 62 62" xmlns="http://www.w3.org/2000/svg" xmlns:xlink="http://www.w3.org/1999/xlink">
    <defs>
        <linearGradient x1="25.228%" y1="0%" x2="71.755%" y2="100%" id="qk61hlhsbc">
            <stop stop-color="#FFF" stop-opacity=".6" offset="0%"/>
            <stop stop-color="#FFF" stop-opacity=".2" offset="100%"/>
        </linearGradient>
        <filter x="-221.9%" y="-209.4%" width="543.8%" height="543.8%" filterUnits="objectBoundingBox" id="uyovu835sa">
            <feMorphology radius=".5" in="SourceAlpha" result="shadowSpreadOuter1"/>
            <feOffset dy="2" in="shadowSpreadOuter1" result="shadowOffsetOuter1"/>
            <feGaussianBlur stdDeviation="12" in="shadowOffsetOuter1" result="shadowBlurOuter1"/>
            <feComposite in="shadowBlurOuter1" in2="SourceAlpha" operator="out" result="shadowBlurOuter1"/>
            <feColorMatrix values="0 0 0 0 0 0 0 0 0 0 0 0 0 0 0 0 0 0 0.2 0" in="shadowBlurOuter1"/>
        </filter>
        <rect id="9zsx4mnc4b" x="0" y="0" width="16" height="16" rx="8"/>
    </defs>
    <g fill="none" fill-rule="evenodd">
        <g transform="translate(23 21)">
            <use fill="#000" filter="url(#uyovu835sa)" xlink:href="#9zsx4mnc4b"/>
            <use fill="url(#qk61hlhsbc)" xlink:href="#9zsx4mnc4b"/>
        </g>
        <path d="M33.55 30.153c-.325 0-.602-.118-.831-.354a1.185 1.185 0 0 1-.344-.857c0-.335.115-.62.344-.857.229-.236.506-.354.831-.354.325 0 .602.118.831.354.23.237.344.522.344.857 0 .335-.115.62-.344.857-.229.236-.506.354-.831.354zM31.475 33a.359.359 0 0 1-.269-.11.382.382 0 0 1-.106-.276v-.271c0-.223.046-.414.137-.573a.928.928 0 0 1 .388-.367 4.06 4.06 0 0 1 .938-.361 4.383 4.383 0 0 1 1.975-.006c.316.072.629.195.937.367a.841.841 0 0 1 .387.36c.092.163.138.357.138.58v.27a.382.382 0 0 1-.106.277.359.359 0 0 1-.269.11h-4.15zM30 28.865c-.55 0-1-.18-1.35-.541-.35-.361-.525-.825-.525-1.392 0-.566.175-1.03.525-1.39C29 25.18 29.45 25 30 25s1 .18 1.35.541c.35.36.525.825.525 1.391 0 .567-.175 1.031-.525 1.392-.35.36-.8.54-1.35.54zM26.375 33a.359.359 0 0 1-.269-.11.382.382 0 0 1-.106-.276v-.825c0-.292.07-.56.212-.805s.355-.432.638-.56a9.21 9.21 0 0 1 1.606-.58 6.31 6.31 0 0 1 2.144-.168c.192.018.346.039.462.065v.502a1.892 1.892 0 0 0-.168.097.87.87 0 0 0-.144.122 1.428 1.428 0 0 0-.325.56c-.05.185-.075.587-.075 1.205V33h-3.975z" fill="#FFF" fill-rule="nonzero"/>
    </g>
</svg>
