<svg width="78" height="78" viewBox="0 0 78 78" xmlns="http://www.w3.org/2000/svg" xmlns:xlink="http://www.w3.org/1999/xlink">
    <defs>
        <linearGradient x1="25.228%" y1="0%" x2="71.755%" y2="100%" id="7zss46gz7c">
            <stop stop-color="#FFF" stop-opacity=".6" offset="0%"/>
            <stop stop-color="#FFF" stop-opacity=".2" offset="100%"/>
        </linearGradient>
        <filter x="-110.9%" y="-104.7%" width="321.9%" height="321.9%" filterUnits="objectBoundingBox" id="7tdhz0ippa">
            <feMorphology radius=".5" in="SourceAlpha" result="shadowSpreadOuter1"/>
            <feOffset dy="2" in="shadowSpreadOuter1" result="shadowOffsetOuter1"/>
            <feGaussianBlur stdDeviation="12" in="shadowOffsetOuter1" result="shadowBlurOuter1"/>
            <feComposite in="shadowBlurOuter1" in2="SourceAlpha" operator="out" result="shadowBlurOuter1"/>
            <feColorMatrix values="0 0 0 0 0 0 0 0 0 0 0 0 0 0 0 0 0 0 0.2 0" in="shadowBlurOuter1"/>
        </filter>
        <rect id="5jp6cs84zb" x="0" y="0" width="32" height="32" rx="16"/>
    </defs>
    <g fill="none" fill-rule="evenodd">
        <g transform="translate(23 21)">
            <use fill="#000" filter="url(#7tdhz0ippa)" xlink:href="#5jp6cs84zb"/>
            <use fill="url(#7zss46gz7c)" xlink:href="#5jp6cs84zb"/>
        </g>
        <path d="M35.8 45c-.407 0-.753-.14-1.038-.42a1.38 1.38 0 0 1-.427-1.022c0-.4.143-.74.427-1.021.285-.28.631-.42 1.038-.42.393 0 .735.14 1.027.42.291.28.437.62.437 1.021 0 .4-.142.741-.427 1.021-.285.28-.63.421-1.037.421zm8.135 0c-.407 0-.753-.14-1.037-.42a1.38 1.38 0 0 1-.427-1.022c0-.4.142-.74.427-1.021.284-.28.63-.42 1.037-.42.393 0 .735.14 1.027.42.291.28.437.62.437 1.021 0 .4-.142.741-.427 1.021-.285.28-.63.421-1.037.421zm-9.193-13.217 2.237 4.566h5.858l2.542-4.566H34.742zm-.61-1.201h11.979c.434 0 .708.13.824.39.115.26.078.551-.112.872l-2.746 4.866a1.894 1.894 0 0 1-.57.59c-.243.167-.508.25-.792.25h-6.163l-1.139 2.083H45.4v1.202h-9.803c-.57 0-.98-.187-1.23-.56-.25-.375-.248-.795.01-1.262l1.302-2.363-3.092-6.448H31V29h2.38l.752 1.582zm2.847 5.767-2.237-4.566H45.38l-2.542 4.566h-5.858z" fill="#FFF" fill-rule="nonzero"/>
    </g>
</svg>
