<svg width="78" height="78" viewBox="0 0 78 78" xmlns="http://www.w3.org/2000/svg" xmlns:xlink="http://www.w3.org/1999/xlink">
    <defs>
        <linearGradient x1="25.228%" y1="0%" x2="71.755%" y2="100%" id="dn0z52m3qc">
            <stop stop-color="#FFF" stop-opacity=".6" offset="0%"/>
            <stop stop-color="#FFF" stop-opacity=".2" offset="100%"/>
        </linearGradient>
        <filter x="-110.9%" y="-104.7%" width="321.9%" height="321.9%" filterUnits="objectBoundingBox" id="ayozwyd5ga">
            <feMorphology radius=".5" in="SourceAlpha" result="shadowSpreadOuter1"/>
            <feOffset dy="2" in="shadowSpreadOuter1" result="shadowOffsetOuter1"/>
            <feGaussianBlur stdDeviation="12" in="shadowOffsetOuter1" result="shadowBlurOuter1"/>
            <feComposite in="shadowBlurOuter1" in2="SourceAlpha" operator="out" result="shadowBlurOuter1"/>
            <feColorMatrix values="0 0 0 0 0 0 0 0 0 0 0 0 0 0 0 0 0 0 0.2 0" in="shadowBlurOuter1"/>
        </filter>
        <rect id="uvp8cawmnb" x="0" y="0" width="32" height="32" rx="16"/>
    </defs>
    <g fill="none" fill-rule="evenodd">
        <g transform="translate(23 21)">
            <use fill="#000" filter="url(#ayozwyd5ga)" xlink:href="#uvp8cawmnb"/>
            <use fill="url(#dn0z52m3qc)" xlink:href="#uvp8cawmnb"/>
        </g>
        <path d="M46.113 29.08c.269-.134.504-.1.706.101.201.202.235.437.1.706l-4.755 9.712a1.006 1.006 0 0 1-.222.343 1.006 1.006 0 0 1-.343.222l-9.712 4.755c-.269.135-.504.101-.706-.1-.201-.202-.235-.437-.1-.706l4.755-9.712c.054-.135.128-.249.222-.343.094-.094.208-.168.343-.222zm-7.093 6.288c-.457 0-.84.154-1.148.463a1.56 1.56 0 0 0-.464 1.149c0 .457.155.84.464 1.148a1.56 1.56 0 0 0 1.148.464c.457 0 .84-.155 1.149-.464a1.56 1.56 0 0 0 .463-1.148c0-.457-.154-.84-.463-1.149a1.56 1.56 0 0 0-1.149-.463z" fill="#FFF" fill-rule="nonzero"/>
    </g>
</svg>
